<svg xmlns="http://www.w3.org/2000/svg" viewBox="0 0 24 24">
   <path d="M24 17.58l-5.58 5.58 -3.91 -3.9 1.68 -1.68 2.23 2.23 3.91 -3.9 1.67 1.67 0 0zm-11.61 3.24c-0.45,0.11 -0.78,0.11 -1.23,0.11 -4.91,0 -8.93,-4.02 -8.93,-8.93 0,-4.91 4.02,-8.93 8.93,-8.93 4.92,0 8.93,4.02 8.93,8.93 0,0.45 0,0.78 -0.11,1.23 0.78,0.11 1.45,0.33 2.12,0.67 0.12,-0.67 0.23,-1.23 0.23,-1.9 0,-6.14 -5.03,-11.16 -11.17,-11.16 -6.14,0 -11.16,5.02 -11.16,11.16 0,6.14 5.02,11.16 11.16,11.16 0.67,0 1.34,-0.11 1.9,-0.22 -0.33,-0.56 -0.56,-1.34 -0.67,-2.12l0 0zm2.79 -6.48l-3.46 -2 0 -5.92 -1.67 0 0 6.7 3.9 2.34c0.34,-0.45 0.79,-0.78 1.23,-1.12z"/>
</svg>
