<?xml version="1.0" encoding="UTF-8"?>
<!DOCTYPE svg PUBLIC "-//W3C//DTD SVG 1.1//EN" "http://www.w3.org/Graphics/SVG/1.1/DTD/svg11.dtd">
<!-- Creator: CorelDRAW 2019 (64 Bit Versão de avaliação) -->
<svg xmlns="http://www.w3.org/2000/svg" xml:space="preserve" width="6.35mm" height="6.35mm" version="1.1" style="shape-rendering:geometricPrecision; text-rendering:geometricPrecision; image-rendering:optimizeQuality; fill-rule:evenodd; clip-rule:evenodd"
viewBox="0 0 32.94 32.94"
 xmlns:xlink="http://www.w3.org/1999/xlink">
 <defs>
  <style type="text/css">
   <![CDATA[
    .fil1 {fill:none}
    .fil0 {fill:black}
   ]]>
  </style>
 </defs>
 <g id="Camada_x0020_1">
  <metadata id="CorelCorpID_0Corel-Layer"/>
  <g id="_1411099657392">
   <path class="fil0" d="M16.2 14.96c-3.12,-0.81 -4.12,-1.65 -4.12,-2.95 0,-1.5 1.39,-2.54 3.71,-2.54 2.44,0 3.35,1.17 3.43,2.88l3.03 0c-0.1,-2.36 -1.54,-4.53 -4.41,-5.23l0 -3.01 -4.12 0 0 2.96c-2.66,0.58 -4.8,2.31 -4.8,4.95 0,3.17 2.62,4.75 6.45,5.67 3.43,0.82 4.12,2.03 4.12,3.31 0,0.95 -0.67,2.46 -3.71,2.46 -2.83,0 -3.94,-1.26 -4.09,-2.88l-3.02 0c0.16,3.01 2.42,4.69 5.05,5.26l-0 2.98 4.12 0 0 -2.95c2.68,-0.51 4.8,-2.06 4.8,-4.87 0,-3.9 -3.34,-5.23 -6.45,-6.04l0 0z"/>
   <polygon class="fil1" points="-0,0 32.94,0 32.94,32.94 -0,32.94 "/>
  </g>
 </g>
</svg>
