<?xml version="1.0" encoding="UTF-8"?>
<!DOCTYPE svg PUBLIC "-//W3C//DTD SVG 1.1//EN" "http://www.w3.org/Graphics/SVG/1.1/DTD/svg11.dtd">
<!-- Creator: CorelDRAW 2019 (64 Bit Versão de avaliação) -->
<svg xmlns="http://www.w3.org/2000/svg" xml:space="preserve" width="6.35mm" height="6.35mm" version="1.1" style="shape-rendering:geometricPrecision; text-rendering:geometricPrecision; image-rendering:optimizeQuality; fill-rule:evenodd; clip-rule:evenodd"
viewBox="0 0 12.92 12.92"
 xmlns:xlink="http://www.w3.org/1999/xlink">
 <defs>
  <style type="text/css">
   <![CDATA[
    .fil0 {fill:none}
    .fil1 {fill:black}
   ]]>
  </style>
 </defs>
 <g id="Camada_x0020_1">
  <metadata id="CorelCorpID_0Corel-Layer"/>
  <rect class="fil0" width="12.92" height="12.92"/>
  <polygon class="fil1" points="7.54,4.85 8.08,4.85 8.08,1.62 3.77,1.62 3.77,4.31 1.08,4.31 1.08,11.31 1.62,11.31 1.62,4.85 4.31,4.85 4.31,2.15 7.54,2.15 "/>
  <rect class="fil1" x="2.69" y="5.92" width="1.08" height="1.08"/>
  <rect class="fil1" x="5.38" y="2.69" width="1.08" height="1.08"/>
  <rect class="fil1" x="2.69" y="8.08" width="1.08" height="1.08"/>
  <rect class="fil1" x="2.69" y="10.23" width="1.08" height="1.08"/>
  <path class="fil1" d="M4.29 9.83c0,1.28 0.96,1.68 2.11,1.94 0.69,0.16 1.66,0.17 2.89,-0.04 0.59,-0.1 1.25,-0.55 1.44,-0.78 0.26,-0.31 0.34,-0.75 0.34,-1.03 -0.79,0 -1.52,0.23 -2.42,0.23 -0.11,0 -0.34,-0 -0.47,-0.02 -0.8,-0.08 -2.05,-0.19 -2.56,-0.91 -0.09,-0.13 -0.17,-0.28 -0.22,-0.48 -0.09,-0.3 -0.09,-0.63 -0.05,-0.95 0.01,-0.1 0.04,-0.2 0.06,-0.3 0.01,-0.06 0.05,-0.16 0.06,-0.23 0.08,-0.3 0.62,-1.29 0.61,-1.26 -0.02,0.05 0.01,-0.03 -0.17,0.24 -0.62,0.92 -1.61,2.43 -1.61,3.57z"/>
  <path class="fil1" d="M5.69 6.63c-0.12,0.27 -0.36,0.91 -0.4,1.4 -0.03,0.32 0.03,0.7 0.17,0.99 0.07,0.15 0.17,0.29 0.26,0.38 0.03,0.04 0.06,0.06 0.09,0.08 0,0 0.02,0.01 0.02,0.02l0.04 0.03c0,0 0.01,-0 0.01,-0 0,-0 -0.02,0.02 0.01,-0.01 0.03,-0.03 0.32,-0.65 0.42,-0.8 0.27,-0.42 0.72,-0.98 1.05,-1.25 0.43,-0.35 0.8,-0.61 1.58,-0.52 0.6,0.07 1.11,0.61 1.42,1.1 0.2,0.31 0.36,0.63 0.37,0.59 0.05,-0.16 -0.62,-1.56 -1.24,-2.29 -0.38,-0.44 -0.73,-0.8 -1.01,-0.95 -1.14,-0.59 -2.32,0.15 -2.79,1.23z"/>
  <path class="fil1" d="M10.74 8.5c0.04,0.11 0.31,0.75 0.31,1.4 0,0.2 -0.02,0.42 -0.07,0.59 -0.23,0.75 -1.25,1.12 -1.53,1.2 -0.32,0.09 -0.93,0.17 -1.56,0.18 -0.26,0.01 -0.53,0.01 -0.77,-0.01 -0.21,-0.02 -0.41,-0.04 -0.56,-0.08 -0.06,-0.01 -0.12,-0.03 -0.17,-0.05 -0,-0 2.04,0.18 2.67,-0.85 0.41,-0.67 0.33,-1.12 0.2,-1.66 -0.1,-0.41 -0.43,-1.06 -0.69,-1.48 -0.1,-0.16 -0.54,-0.68 -0.55,-0.72 -0.02,-0.04 -0,-0.01 -0,-0.01 -0,-0.01 -0,-0.01 0,-0.01l0.04 -0.02c0,-0 0.02,-0.01 0.02,-0.01 0.03,-0.02 0.07,-0.03 0.11,-0.05 0.12,-0.04 0.29,-0.08 0.46,-0.08 0.32,-0 0.69,0.11 0.97,0.27 0.43,0.24 1.05,1.1 1.13,1.38z"/>
 </g>
</svg>
