<svg xmlns="http://www.w3.org/2000/svg" viewBox="0 0 24 24">
   <path d="M21 16.5c0,0.38 -0.21,0.71 -0.53,0.88l-7.9 4.44c-0.16,0.12 -0.36,0.18 -0.57,0.18 -0.21,0 -0.41,-0.06 -0.57,-0.18l-7.9 -4.44c-0.32,-0.17 -0.53,-0.5 -0.53,-0.88l0 -9c0,-0.38 0.21,-0.71 0.53,-0.88l7.9 -4.44c0.16,-0.12 0.36,-0.18 0.57,-0.18 0.21,0 0.41,0.06 0.57,0.18l7.9 4.44c0.32,0.17 0.53,0.5 0.53,0.88l0 9 0 0zm-9 -12.35l-5.96 3.35 5.96 3.35 5.96 -3.35 -5.96 -3.35 0 0zm-7 11.76l6 3.38 0 -6.71 -6 -3.37 0 6.7 0 0zm14 0l0 -6.7 -6 3.37 0 6.71 6 -3.38z"/>
</svg>
