<svg xmlns="http://www.w3.org/2000/svg" viewBox="0 0 24 22.57">
  <path d="M11.98 0c-1.5,0 -2.85,0.95 -3.35,2.38l-7.34 0 0 2.37 2.32 0 -3.51 8.32c-0.55,2.38 1.19,3.56 4.16,3.56 2.97,0 4.83,-1.18 4.16,-3.56l-3.5 -8.32 3.7 0c0.39,1.01 1.17,1.79 2.18,2.18l0 13.27 -10.7 0 0 2.37 23.76 0 0 -2.37 -10.69 0 0 -13.28c1.01,-0.38 1.79,-1.16 2.16,-2.17l3.72 0 -3.5 8.32c-0.56,2.38 1.19,3.56 4.16,3.56 2.97,0 4.82,-1.18 4.15,-3.56l-3.5 -8.32 2.32 0 0 -2.37 -7.33 0c-0.51,-1.43 -1.86,-2.38 -3.37,-2.38l0 0zm0 2.38c0.66,0 1.19,0.53 1.19,1.18 0,0.66 -0.53,1.19 -1.19,1.19 -0.65,0 -1.18,-0.53 -1.18,-1.19 0,-0.65 0.53,-1.18 1.18,-1.18l0 0zm-7.72 6.23l1.78 4.46 -3.56 0 1.78 -4.46 0 0zm15.45 0l1.78 4.46 -3.57 0 1.79 -4.46z"/>
</svg>
