<?xml version="1.0" encoding="UTF-8"?>
<!DOCTYPE svg PUBLIC "-//W3C//DTD SVG 1.1//EN" "http://www.w3.org/Graphics/SVG/1.1/DTD/svg11.dtd">
<!-- Creator: CorelDRAW 2019 (64 Bit Versão de avaliação) -->
<svg xmlns="http://www.w3.org/2000/svg" xml:space="preserve" width="24px" height="24px" version="1.1" style="shape-rendering:geometricPrecision; text-rendering:geometricPrecision; image-rendering:optimizeQuality; fill-rule:evenodd; clip-rule:evenodd"
viewBox="0 0 24 24"
 xmlns:xlink="http://www.w3.org/1999/xlink">
 <defs>
  <style type="text/css">
   <![CDATA[
    .fil0 {fill:none}
    .fil1 {fill:black}
   ]]>
  </style>
 </defs>
 <g id="Camada_x0020_1">
  <metadata id="CorelCorpID_0Corel-Layer"/>
  <path class="fil0" d="M0 0l24 0 0 24 -24 0 0 -24z"/>
  <path class="fil1" d="M8.42 13.39l-0.62 -0.62 -3.12 0 -0.63 0.62 -2.18 0 0 1.25 8.74 0 0 -1.25 -2.19 0zm-5.93 9.36c0,0.69 0.56,1.25 1.25,1.25l4.99 0c0.69,0 1.25,-0.56 1.25,-1.25l0 -7.48 -7.49 0 0 7.48zm1.25 -6.24l4.99 0 0 6.24 -4.99 0 0 -6.24zm13.5 -3.8l0 8.51 3.91 -3.91 0.98 0.99 -5.59 5.6 -5.59 -5.6 0.98 -0.98 3.91 3.9 0 -8.51 1.4 0zm-8.82 -12.03l-0.62 -0.62 -3.12 0 -0.63 0.62 -2.18 0 0 1.25 8.73 0 0 -1.25 -2.18 0zm8.82 10.5l0 -8.5 3.9 3.9 0.99 -0.99 -5.59 -5.59 -5.59 5.59 0.98 0.99 3.91 -3.9 0 8.5 1.4 0zm-14.75 -1.14c0,0.69 0.56,1.25 1.25,1.25l4.99 0c0.69,0 1.25,-0.56 1.25,-1.25l0 -7.49 -7.49 0 0 7.49z"/>
  <path class="fil1" d="M19.73 11.31l0.05 -1.83c-0.02,0 -0.03,0 -0.05,0l0.05 0 -0.05 1.83 0 0z"/>
 </g>
</svg>
