<?xml version="1.0" encoding="UTF-8"?>
<!DOCTYPE svg PUBLIC "-//W3C//DTD SVG 1.1//EN" "http://www.w3.org/Graphics/SVG/1.1/DTD/svg11.dtd">
<!-- Creator: CorelDRAW 2019 (64 Bit Versão de avaliação) -->
<svg xmlns="http://www.w3.org/2000/svg" xml:space="preserve" width="6.35mm" height="6.35mm" version="1.1" style="shape-rendering:geometricPrecision; text-rendering:geometricPrecision; image-rendering:optimizeQuality; fill-rule:evenodd; clip-rule:evenodd"
viewBox="0 0 18.89 18.89"
 xmlns:xlink="http://www.w3.org/1999/xlink">
 <defs>
  <style type="text/css">
   <![CDATA[
    .fil1 {fill:none}
    .fil0 {fill:black}
   ]]>
  </style>
 </defs>
 <g id="Camada_x0020_1">
  <metadata id="CorelCorpID_0Corel-Layer"/>
  <g>
   <path class="fil0" d="M11 1.45l4.72 4.72 0 9.45c0,0.87 -0.71,1.57 -1.57,1.57l-9.45 0c-0.87,0 -1.57,-0.71 -1.57,-1.57l0 -12.59c0,-0.87 0.71,-1.57 1.57,-1.57l6.3 0 0 0zm3.15 14.17l0 -8.66 -3.94 0 0 -3.94 -5.51 0 0 12.59 9.45 0 0 0zm-5.57 -6.05c-0.19,-0.61 -0.61,-2.54 0.5,-2.57 1.1,-0.03 0.38,2.46 0.38,2.46 0.31,1.17 1.59,2.02 1.59,2.02 0.39,-0.12 2.64,-0.38 2.32,0.79 -0.34,1.16 -2.75,0.07 -2.75,0.07 -1.54,0.11 -2.68,0.52 -2.68,0.52 -0.89,1.66 -1.93,2.39 -2.35,1.68 -0.53,-0.87 1.68,-2 1.68,-2 1.14,-1.85 1.31,-2.93 1.33,-2.96l0 0zm0.51 0.66c-0.31,1.02 -0.94,2.12 -0.94,2.12 0.67,-0.27 2.13,-0.57 2.13,-0.57 -0.9,-0.79 -1.17,-1.54 -1.19,-1.54l0 0zm2.47 1.71c0,0 1.38,0.51 1.41,0.31 0.06,-0.21 -1.05,-0.4 -1.41,-0.31l0 0zm-4.46 1.17c-0.61,0.24 -1.19,1.24 -1.05,1.24 0.14,0.01 0.72,-0.47 1.05,-1.24l0 0zm1.98 -4.37c0,-0.04 0.34,-1.32 0,-1.36 -0.24,-0.02 -0.01,1.33 0,1.36z"/>
  </g>
  <polygon class="fil1" points="-0,0 18.89,0 18.89,18.89 -0,18.89 "/>
 </g>
</svg>
