<svg xmlns="http://www.w3.org/2000/svg" viewBox="0 0 24 24">
   <path d="M15 12c0,-1.3 -0.84,-2.4 -2,-2.82l0 -2.36c1.16,-0.42 2,-1.52 2,-2.82 0,-1.66 -1.34,-3 -3,-3 -1.66,0 -3,1.34 -3,3 0,1.3 0.84,2.4 2,2.82l0 2.37c-1.16,0.41 -2,1.51 -2,2.81 0,1.3 0.84,2.4 2,2.82l0 2.36c-1.16,0.42 -2,1.52 -2,2.82 0,1.66 1.34,3 3,3 1.66,0 3,-1.34 3,-3 0,-1.3 -0.84,-2.4 -2,-2.82l0 -2.36c1.16,-0.42 2,-1.52 2,-2.82l0 0zm-3 -9c0.55,0 1,0.45 1,1 0,0.55 -0.45,1 -1,1 -0.55,0 -1,-0.45 -1,-1 0,-0.55 0.45,-1 1,-1l0 0zm0 18c-0.55,0 -1,-0.45 -1,-1 0,-0.55 0.45,-1 1,-1 0.55,0 1,0.45 1,1 0,0.55 -0.45,1 -1,1z"/>
</svg>
