<svg xmlns="http://www.w3.org/2000/svg" viewBox="0 0 24 24">
   <path d="M16.18 19.6l-2.01 -3.48c0.98,-0.72 1.66,-1.84 1.8,-3.12l4.03 0c-0.17,2.76 -1.65,5.16 -3.82,6.6l0 0zm-3.18 -12.57l0 -4.03c4.3,0.26 7.74,3.7 8,8l-4.03 0c-0.23,-2.09 -1.88,-3.74 -3.97,-3.97l0 0zm-6 5.47c0,0.64 0.13,1.25 0.38,1.8l-3.48 2.01c-0.58,-1.15 -0.9,-2.44 -0.9,-3.81 0,-4.53 3.54,-8.23 8,-8.5l0 4.03c-2.25,0.25 -4,2.15 -4,4.47l0 0zm4.5 8.5c-2.97,0 -5.58,-1.5 -7.1,-3.82l3.48 -2.01c0.82,1.11 2.12,1.83 3.62,1.83 0.64,0 1.25,-0.13 1.8,-0.38l2.01 3.48c-1.15,0.58 -2.44,0.9 -3.81,0.9z"/>
</svg>
