<?xml version="1.0" encoding="UTF-8"?>
<!DOCTYPE svg PUBLIC "-//W3C//DTD SVG 1.1//EN" "http://www.w3.org/Graphics/SVG/1.1/DTD/svg11.dtd">
<!-- Creator: CorelDRAW 2019 (64 Bit Versão de avaliação) -->
<svg xmlns="http://www.w3.org/2000/svg" xml:space="preserve" width="6.35mm" height="6.35mm" version="1.1" style="shape-rendering:geometricPrecision; text-rendering:geometricPrecision; image-rendering:optimizeQuality; fill-rule:evenodd; clip-rule:evenodd"
viewBox="0 0 32.94 32.94"
 xmlns:xlink="http://www.w3.org/1999/xlink">
 <defs>
  <style type="text/css">
   <![CDATA[
    .fil0 {fill:none}
    .fil1 {fill:black}
   ]]>
  </style>
 </defs>
 <g id="Camada_x0020_1">
  <metadata id="CorelCorpID_0Corel-Layer"/>
  <rect class="fil0" width="32.94" height="32.94"/>
  <g>
   <path class="fil1" d="M24.71 15.1l-4.37 0c-0.58,-1.59 -2.09,-2.75 -3.87,-2.75 -1.78,0 -3.29,1.15 -3.87,2.75l-4.37 0c-0.45,0 -2.75,-0.14 -2.75,-2.75l0 -1.37c0,-2.51 2.11,-2.75 2.75,-2.75l13.97 0c0.58,1.59 2.09,2.75 3.87,2.75 2.28,0 4.12,-1.84 4.12,-4.12 0,-2.28 -1.84,-4.12 -4.12,-4.12 -1.78,0 -3.29,1.15 -3.87,2.74l-13.97 0c-2.21,0 -5.49,1.46 -5.49,5.49l0 1.37c0,4.04 3.28,5.49 5.49,5.49l4.37 0c0.58,1.59 2.09,2.75 3.87,2.75 1.78,0 3.29,-1.15 3.87,-2.75l4.37 0c0.45,0 2.75,0.14 2.75,2.75l0 1.37c0,2.51 -2.11,2.75 -2.75,2.75l-13.97 0c-0.58,-1.59 -2.09,-2.75 -3.87,-2.75 -2.28,0 -4.12,1.84 -4.12,4.12 0,2.28 1.84,4.12 4.12,4.12 1.78,0 3.29,-1.15 3.87,-2.74l13.97 0c2.21,0 5.49,-1.47 5.49,-5.49l0 -1.37c0,-4.02 -3.28,-5.49 -5.49,-5.49l0 0zm1.37 -9.61c0.75,0 1.37,0.62 1.37,1.37 0,0.75 -0.62,1.37 -1.37,1.37 -0.75,0 -1.37,-0.62 -1.37,-1.37 0,-0.75 0.62,-1.37 1.37,-1.37l0 0zm-19.22 21.96c-0.75,0 -1.37,-0.62 -1.37,-1.37 0,-0.75 0.62,-1.37 1.37,-1.37 0.75,0 1.37,0.62 1.37,1.37 0,0.75 -0.62,1.37 -1.37,1.37z"/>
  </g>
 </g>
</svg>
