<?xml version="1.0" encoding="UTF-8"?>
<!DOCTYPE svg PUBLIC "-//W3C//DTD SVG 1.1//EN" "http://www.w3.org/Graphics/SVG/1.1/DTD/svg11.dtd">
<!-- Creator: CorelDRAW 2019 (64 Bit Versão de avaliação) -->
<svg xmlns="http://www.w3.org/2000/svg" xml:space="preserve" width="6.35mm" height="6.35mm" version="1.1" style="shape-rendering:geometricPrecision; text-rendering:geometricPrecision; image-rendering:optimizeQuality; fill-rule:evenodd; clip-rule:evenodd"
viewBox="0 0 18.89 18.89"
 xmlns:xlink="http://www.w3.org/1999/xlink">
 <defs>
  <style type="text/css">
   <![CDATA[
    .fil1 {fill:none}
    .fil0 {fill:black}
   ]]>
  </style>
 </defs>
 <g id="Camada_x0020_1">
  <metadata id="CorelCorpID_0Corel-Layer"/>
  <g>
   <path class="fil0" d="M11.81 9.45c0,-1.02 -0.66,-1.89 -1.57,-2.22l0 -1.86c0.91,-0.33 1.57,-1.2 1.57,-2.22 0,-1.31 -1.05,-2.36 -2.36,-2.36 -1.31,0 -2.36,1.05 -2.36,2.36 0,1.02 0.66,1.89 1.57,2.22l0 1.87c-0.91,0.32 -1.57,1.19 -1.57,2.21 0,1.02 0.66,1.89 1.57,2.22l0 1.86c-0.91,0.33 -1.57,1.2 -1.57,2.22 0,1.31 1.05,2.36 2.36,2.36 1.31,0 2.36,-1.05 2.36,-2.36 0,-1.02 -0.66,-1.89 -1.57,-2.22l0 -1.86c0.91,-0.33 1.57,-1.2 1.57,-2.22l0 0zm-2.36 -7.08c0.43,0 0.79,0.35 0.79,0.79 0,0.43 -0.35,0.79 -0.79,0.79 -0.43,0 -0.79,-0.35 -0.79,-0.79 0,-0.43 0.35,-0.79 0.79,-0.79l0 0zm0 14.17c-0.43,0 -0.79,-0.35 -0.79,-0.79 0,-0.43 0.35,-0.79 0.79,-0.79 0.43,0 0.79,0.35 0.79,0.79 0,0.43 -0.35,0.79 -0.79,0.79z"/>
  </g>
  <rect class="fil1" width="18.89" height="18.89"/>
 </g>
</svg>
