<?xml version="1.0" encoding="UTF-8"?>
<!DOCTYPE svg PUBLIC "-//W3C//DTD SVG 1.1//EN" "http://www.w3.org/Graphics/SVG/1.1/DTD/svg11.dtd">
<!-- Creator: CorelDRAW 2019 (64 Bit Versão de avaliação) -->
<svg xmlns="http://www.w3.org/2000/svg" xml:space="preserve" width="24px" height="24px" version="1.1" style="shape-rendering:geometricPrecision; text-rendering:geometricPrecision; image-rendering:optimizeQuality; fill-rule:evenodd; clip-rule:evenodd"
viewBox="0 0 24 24"
 xmlns:xlink="http://www.w3.org/1999/xlink">
 <defs>
  <style type="text/css">
   <![CDATA[
    .fil0 {fill:none}
    .fil1 {fill:black}
   ]]>
  </style>
 </defs>
 <g id="Camada_x0020_1">
  <metadata id="CorelCorpID_0Corel-Layer"/>
  <rect class="fil0" width="24" height="24"/>
  <rect class="fil0" width="24" height="24"/>
  <path class="fil0" d="M0 0l24 0 0 24 -24 0 0 -24z"/>
  <g>
   <path class="fil1" d="M21.33 2.67l0 18.66 -18.66 0 0 -18.66 18.66 0 0 0zm0 -2.67l-18.66 0c-1.47,0 -2.67,1.2 -2.67,2.67l0 18.66c0,1.47 1.2,2.67 2.67,2.67l18.66 0c1.47,0 2.67,-1.2 2.67,-2.67l0 -18.66c0,-1.47 -1.2,-2.67 -2.67,-2.67zm-6.48 11.81l-4 5.16 -2.85 -3.45 -4 5.15 16 0 -5.15 -6.86 0 0z"/>
  </g>
 </g>
</svg>
