<svg xmlns="http://www.w3.org/2000/svg" viewBox="0 0 24 24">
   <path d="M20 7.5l-1 0 -2 0 -2 0 0 6 -13 0 0 3 1 0c0,1.66 1.34,3 3,3 1.66,0 3,-1.34 3,-3l6 0c0,1.66 1.34,3 3,3 1.66,0 3,-1.34 3,-3l2 0 0 -5 -3 -4 0 0zm-14 10.5c-0.83,0 -1.5,-0.67 -1.5,-1.5 0,-0.83 0.67,-1.5 1.5,-1.5 0.83,0 1.5,0.67 1.5,1.5 0,0.83 -0.67,1.5 -1.5,1.5l0 0zm12 0c-0.83,0 -1.5,-0.67 -1.5,-1.5 0,-0.83 0.67,-1.5 1.5,-1.5 0.83,0 1.5,0.67 1.5,1.5 0,0.83 -0.67,1.5 -1.5,1.5l0 0zm-1 -6.5l0 -2.5 2.5 0 1.96 2.5 -4.46 0 0 0zm1 -5l-4 0 0 6 -11 0 -1.43 -5 -0.57 0 0 -2 12 0 1 -1 4 0 0 2z"/>
</svg>
