<?xml version="1.0" encoding="UTF-8"?>
<!DOCTYPE svg PUBLIC "-//W3C//DTD SVG 1.1//EN" "http://www.w3.org/Graphics/SVG/1.1/DTD/svg11.dtd">
<!-- Creator: CorelDRAW 2019 (64 Bit Versão de avaliação) -->
<svg xmlns="http://www.w3.org/2000/svg" xml:space="preserve" width="6.35mm" height="6.35mm" version="1.1" style="shape-rendering:geometricPrecision; text-rendering:geometricPrecision; image-rendering:optimizeQuality; fill-rule:evenodd; clip-rule:evenodd"
viewBox="0 0 12.94 12.94"
 xmlns:xlink="http://www.w3.org/1999/xlink">
 <defs>
  <style type="text/css">
   <![CDATA[
    .fil1 {fill:none}
    .fil0 {fill:black}
   ]]>
  </style>
 </defs>
 <g id="Camada_x0020_1">
  <metadata id="CorelCorpID_0Corel-Layer"/>
  <path class="fil0" d="M6.47 11.72c0.59,0 1.08,-0.49 1.08,-1.08l-2.16 0c0,0.59 0.48,1.08 1.08,1.08l0 -0zm3.23 -3.23l0 -2.7c0,-1.66 -0.88,-3.04 -2.43,-3.41l0 -0.37c0,-0.45 -0.36,-0.81 -0.81,-0.81 -0.45,0 -0.81,0.36 -0.81,0.81l0 0.37c-1.55,0.37 -2.43,1.75 -2.43,3.41l0 2.7 -1.08 1.08 0 0.54 8.63 0 0 -0.54 -1.08 -1.08z"/>
  <polygon class="fil1" points="-0,0 12.94,0 12.94,12.94 -0,12.94 "/>
 </g>
</svg>
