<svg xmlns="http://www.w3.org/2000/svg" viewBox="0 0 24 24">
  <path d="M14.4 0l-9.6 0c-1.32,0 -2.39,1.08 -2.39,2.4l-0.01 19.2c0,1.32 1.07,2.4 2.39,2.4l14.41 0c1.32,0 2.4,-1.08 2.4,-2.4l0 -14.4 -7.2 -7.2zm-9.5 21.66l-0.1 -19.26 8.4 0 0 6 6 0 0.1 13.26 -14.4 0zm0.75 -1.15l0 -4.48 1.36 0 0.8 3.06 0.8 -3.06 1.36 0 0 4.48 -0.84 0 0 -3.52 -0.88 3.52 -0.88 0 -0.88 -3.52 0 3.52 -0.84 0zm6.24 0l0 -3.72 -1.33 0 0 -0.76 3.56 0 0 0.76 -1.32 0 0 3.72 -0.91 0zm2.81 0l0 -4.48 1.91 0c0.48,0 0.83,0.04 1.04,0.12 0.22,0.08 0.4,0.23 0.53,0.43 0.13,0.21 0.19,0.44 0.19,0.71 0,0.33 -0.1,0.61 -0.29,0.83 -0.2,0.22 -0.49,0.36 -0.89,0.42 0.2,0.11 0.36,0.23 0.49,0.37 0.12,0.14 0.29,0.38 0.51,0.73l0.55 0.87 -1.09 0 -0.65 -0.98c-0.23,-0.34 -0.39,-0.56 -0.47,-0.65 -0.09,-0.09 -0.18,-0.15 -0.28,-0.19 -0.09,-0.03 -0.25,-0.05 -0.45,-0.05l-0.19 0 0 1.87 -0.91 0zm0.91 -2.58l0.67 0c0.44,0 0.71,-0.02 0.81,-0.06 0.11,-0.03 0.2,-0.1 0.26,-0.19 0.06,-0.09 0.09,-0.2 0.09,-0.33 0,-0.16 -0.04,-0.28 -0.12,-0.37 -0.08,-0.09 -0.2,-0.15 -0.34,-0.17 -0.08,-0.02 -0.3,-0.02 -0.66,-0.02l-0.71 0 0 1.14z"/>
</svg>
