<?xml version="1.0" encoding="UTF-8"?>
<!DOCTYPE svg PUBLIC "-//W3C//DTD SVG 1.1//EN" "http://www.w3.org/Graphics/SVG/1.1/DTD/svg11.dtd">
<!-- Creator: CorelDRAW 2019 (64 Bit Versão de avaliação) -->
<svg xmlns="http://www.w3.org/2000/svg" xml:space="preserve" width="6.35mm" height="6.35mm" version="1.1" style="shape-rendering:geometricPrecision; text-rendering:geometricPrecision; image-rendering:optimizeQuality; fill-rule:evenodd; clip-rule:evenodd"
viewBox="0 0 18.86 18.86"
 xmlns:xlink="http://www.w3.org/1999/xlink">
 <defs>
  <style type="text/css">
   <![CDATA[
    .fil1 {fill:none}
    .fil0 {fill:black}
   ]]>
  </style>
 </defs>
 <g id="Camada_x0020_1">
  <metadata id="CorelCorpID_0Corel-Layer"/>
  <g id="_1412969424880">
   <path class="fil0" d="M13.36 9.43l-3.93 0 0 3.93 3.93 0 0 -3.93zm-0.79 -8.64l0 1.57 -6.29 -0 0 -1.57 -1.57 0 0 1.57 -0.79 -0c-0.87,0 -1.56,0.71 -1.56,1.57l-0.01 11c0,0.86 0.7,1.57 1.57,1.57l11 0c0.86,0 1.57,-0.71 1.57,-1.57l0 -11c0,-0.86 -0.71,-1.57 -1.57,-1.57l-0.79 0 0 -1.57 -1.57 0zm2.36 14.14l-11 0 0 -8.64 11 0 0 8.64z"/>
   <polygon class="fil1" points="-0,0 18.86,0 18.86,18.86 -0,18.86 "/>
  </g>
 </g>
</svg>
