<?xml version="1.0" encoding="UTF-8"?>
<!DOCTYPE svg PUBLIC "-//W3C//DTD SVG 1.1//EN" "http://www.w3.org/Graphics/SVG/1.1/DTD/svg11.dtd">
<!-- Creator: CorelDRAW 2019 (64 Bit Versão de avaliação) -->
<svg xmlns="http://www.w3.org/2000/svg" xml:space="preserve" width="6.35mm" height="6.35mm" version="1.1" style="shape-rendering:geometricPrecision; text-rendering:geometricPrecision; image-rendering:optimizeQuality; fill-rule:evenodd; clip-rule:evenodd"
viewBox="0 0 32.94 32.94"
 xmlns:xlink="http://www.w3.org/1999/xlink">
 <defs>
  <style type="text/css">
   <![CDATA[
    .fil0 {fill:none}
    .fil1 {fill:black}
   ]]>
  </style>
 </defs>
 <g id="Camada_x0020_1">
  <metadata id="CorelCorpID_0Corel-Layer"/>
  <rect class="fil0" width="32.94" height="32.94"/>
  <g>
   <path class="fil1" d="M19.22 2.75l-10.98 0c-1.51,0 -2.75,1.24 -2.75,2.74l0 21.96c0,1.51 1.24,2.74 2.75,2.74l16.47 0c1.51,0 2.75,-1.24 2.75,-2.74l0 -16.47 -8.24 -8.24 0 0zm5.49 24.71l-16.47 0 0 -21.96 9.61 0 0 6.86 6.86 0 0 15.1 0 0zm-12.35 -9.61l0 8.24 -2.74 0 0 -8.24 2.74 0 0 0zm8.24 2.75l0 5.49 2.74 0 0 -5.49 -2.74 0 0 0zm-5.49 -5.49l0 10.98 2.75 0 0 -10.98 -2.75 0z"/>
  </g>
 </g>
</svg>
