<?xml version="1.0" encoding="UTF-8"?>
<!DOCTYPE svg PUBLIC "-//W3C//DTD SVG 1.1//EN" "http://www.w3.org/Graphics/SVG/1.1/DTD/svg11.dtd">
<!-- Creator: CorelDRAW 2019 (64 Bit Versão de avaliação) -->
<svg xmlns="http://www.w3.org/2000/svg" xml:space="preserve" width="6.35mm" height="6.35mm" version="1.1" style="shape-rendering:geometricPrecision; text-rendering:geometricPrecision; image-rendering:optimizeQuality; fill-rule:evenodd; clip-rule:evenodd"
viewBox="0 0 12.94 12.94"
 xmlns:xlink="http://www.w3.org/1999/xlink">
 <defs>
  <style type="text/css">
   <![CDATA[
    .fil0 {fill:none}
    .fil1 {fill:black}
   ]]>
  </style>
 </defs>
 <g id="Camada_x0020_1">
  <metadata id="CorelCorpID_0Corel-Layer"/>
  <rect class="fil0" width="12.94" height="12.94"/>
  <g>
   <path class="fil1" d="M9.16 7.82l1.08 0 0 1.62 1.62 0 0 1.08 -1.62 0 0 1.62 -1.08 0 0 -1.62 -1.62 0 0 -1.08 1.62 0 0 -1.62 0 0zm-2.96 -7.01l5.12 2.7 0 1.08 -10.24 0 0 -1.08 5.12 -2.7 0 0zm2.43 4.85l1.62 0 0 1.12 -0.54 -0.04c-0.38,0 -0.74,0.06 -1.08,0.18l0 -1.26 0 0zm-7.55 6.47l0 -1.62 5.43 0c0.1,0.61 0.38,1.17 0.78,1.62l-6.22 0 0 0zm4.31 -6.47l1.62 0 0 2.52c-0.25,0.37 -0.42,0.79 -0.5,1.25l-1.12 0 0 -3.77 0 0zm-3.23 0l1.62 0 0 3.77 -1.62 0 0 -3.77z"/>
  </g>
 </g>
</svg>
