<svg xmlns="http://www.w3.org/2000/svg" viewBox="0 0 24 24">
  <path d="M20 8l-3 0 0 -4 -14 0c-1.1,0 -2,0.9 -2,2l0 11 2 0c0,1.66 1.34,3 3,3 1.66,0 3,-1.34 3,-3l6 0c0,1.66 1.34,3 3,3 1.66,0 3,-1.34 3,-3l2 0 0 -5 -3 -4 0 0zm-0.5 1.5l1.96 2.5 -4.46 0 0 -2.5 2.5 0zm-13.5 8.5c-0.55,0 -1,-0.45 -1,-1 0,-0.55 0.45,-1 1,-1 0.55,0 1,0.45 1,1 0,0.55 -0.45,1 -1,1zm2.22 -3c-0.55,-0.61 -1.33,-1 -2.22,-1 -0.89,0 -1.67,0.39 -2.22,1l-0.78 0 0 -9 12 0 0 9 -6.78 0zm9.78 3c-0.55,0 -1,-0.45 -1,-1 0,-0.55 0.45,-1 1,-1 0.55,0 1,0.45 1,1 0,0.55 -0.45,1 -1,1z"/>
</svg>
