<svg xmlns="http://www.w3.org/2000/svg" viewBox="0 0 24 24">
  <path d="M16.5 12c1.38,0 2.49,-1.12 2.49,-2.5 0,-1.38 -1.11,-2.5 -2.49,-2.5 -1.38,0 -2.5,1.12 -2.5,2.5 0,1.38 1.12,2.5 2.5,2.5l0 0zm-7.5 -1c1.66,0 2.99,-1.34 2.99,-3 0,-1.66 -1.33,-3 -2.99,-3 -1.66,0 -3,1.34 -3,3 0,1.66 1.34,3 3,3l0 0zm7.5 3c-1.83,0 -5.5,0.92 -5.5,2.75l0 2.25 11 0 0 -2.25c0,-1.83 -3.67,-2.75 -5.5,-2.75zm-7.5 -1c-2.33,0 -7,1.17 -7,3.5l0 2.5 7 0 0 -2.25c0,-0.85 0.33,-2.34 2.37,-3.47 -0.87,-0.18 -1.71,-0.28 -2.37,-0.28z"/>
</svg>
