<?xml version="1.0" encoding="UTF-8"?>
<!DOCTYPE svg PUBLIC "-//W3C//DTD SVG 1.1//EN" "http://www.w3.org/Graphics/SVG/1.1/DTD/svg11.dtd">
<!-- Creator: CorelDRAW 2019 (64 Bit Versão de avaliação) -->
<svg xmlns="http://www.w3.org/2000/svg" xml:space="preserve" width="24px" height="24px" version="1.1" style="shape-rendering:geometricPrecision; text-rendering:geometricPrecision; image-rendering:optimizeQuality; fill-rule:evenodd; clip-rule:evenodd"
viewBox="0 0 24 24"
 xmlns:xlink="http://www.w3.org/1999/xlink">
 <defs>
  <style type="text/css">
   <![CDATA[
    .fil0 {fill:none}
    .fil1 {fill:black}
   ]]>
  </style>
 </defs>
 <g id="Camada_x0020_1">
  <metadata id="CorelCorpID_0Corel-Layer"/>
  <path class="fil0" d="M0 0l24 0 0 24 -24 0 0 -24z"/>
  <path class="fil1" d="M21.82 1.09l-19.64 0c-1.2,0 -2.18,0.98 -2.18,2.18l0 13.09c0,1.2 0.98,2.19 2.18,2.19l7.64 0 -2.18 3.27 0 1.09 8.72 0 0 -1.09 -2.18 -3.27 7.64 0c1.2,0 2.18,-0.99 2.18,-2.19l0 -13.09c0,-1.2 -0.98,-2.18 -2.18,-2.18l0 0zm0 13.09l-19.64 0 0 -10.91 19.64 0 0 10.91 0 0zm-11.73 -1.72l3.48 0 0 -7.45 -3.48 0 0 7.45 0 0zm-5.22 0l3.48 0 0 -3.72 -3.48 0 0 3.72zm10.44 -5.12l0 5.12 3.47 0 0 -5.12 -3.47 0z"/>
 </g>
</svg>
