<?xml version="1.0" encoding="UTF-8"?>
<!DOCTYPE svg PUBLIC "-//W3C//DTD SVG 1.1//EN" "http://www.w3.org/Graphics/SVG/1.1/DTD/svg11.dtd">
<!-- Creator: CorelDRAW 2019 (64 Bit Versão de avaliação) -->
<svg xmlns="http://www.w3.org/2000/svg" xml:space="preserve" width="6.35mm" height="6.35mm" version="1.1" style="shape-rendering:geometricPrecision; text-rendering:geometricPrecision; image-rendering:optimizeQuality; fill-rule:evenodd; clip-rule:evenodd"
viewBox="0 0 32.94 32.94"
 xmlns:xlink="http://www.w3.org/1999/xlink">
 <defs>
  <style type="text/css">
   <![CDATA[
    .fil0 {fill:none}
    .fil1 {fill:black}
   ]]>
  </style>
 </defs>
 <g id="Camada_x0020_1">
  <metadata id="CorelCorpID_0Corel-Layer"/>
  <polygon class="fil0" points="-0,0 32.94,0 32.94,32.94 -0,32.94 "/>
  <path class="fil1" d="M9.06 9.88l11.53 0 0 -1.65 -11.53 0 0 1.65 0 0zm0 3.29l11.53 0 0 -1.65 -11.53 0 0 1.65zm0 3.29l11.53 0 0 -1.65 -11.53 0 0 1.65 0 -0zm13.18 0l1.65 0 0 -1.65 -1.65 0 0 1.65 0 -0zm0 -8.24l0 1.65 1.65 0 0 -1.65 -1.65 0zm0 4.94l1.65 0 0 -1.65 -1.65 0 0 1.65z"/>
  <path class="fil1" d="M28.83 2.75l-24.71 0c-1.51,0 -2.75,1.24 -2.75,2.75l0 16.47c0,1.51 1.24,2.75 2.75,2.75l9.61 -0 -2.75 4.12 0 1.37 10.98 -0 0 -1.37 -2.75 -4.12 9.61 0c1.51,0 2.75,-1.24 2.75,-2.75l-0 -16.47c0,-1.51 -1.24,-2.75 -2.75,-2.75l0 0zm0 16.47l-24.71 0 0 -13.73 24.71 0 0 13.73 0 0z"/>
 </g>
</svg>
