<svg xmlns="http://www.w3.org/2000/svg" viewBox="0 0 24 24">
 <path d="M14.4 0l-9.6 0c-1.32,0 -2.39,1.08 -2.39,2.4l-0.01 19.2c0,1.32 1.07,2.4 2.39,2.4l14.41 0c1.32,0 2.4,-1.08 2.4,-2.4l0 -14.4 -7.2 -7.2zm-9.5 21.66l-0.1 -19.26 8.4 0 0 6 6 0 0.1 13.26 -14.4 0zm3.98 -2.8l0.87 0.27c-0.13,0.49 -0.35,0.86 -0.67,1.1 -0.31,0.24 -0.71,0.36 -1.19,0.36 -0.59,0 -1.08,-0.2 -1.47,-0.61 -0.38,-0.41 -0.57,-0.96 -0.57,-1.67 0,-0.75 0.19,-1.33 0.58,-1.74 0.38,-0.41 0.89,-0.62 1.52,-0.62 0.55,0 0.99,0.16 1.33,0.49 0.21,0.19 0.36,0.47 0.46,0.82l-0.89 0.22c-0.06,-0.23 -0.17,-0.42 -0.33,-0.55 -0.17,-0.14 -0.38,-0.2 -0.62,-0.2 -0.33,0 -0.6,0.12 -0.81,0.35 -0.21,0.24 -0.31,0.63 -0.31,1.16 0,0.57 0.1,0.97 0.31,1.21 0.2,0.24 0.47,0.36 0.79,0.36 0.24,0 0.45,-0.07 0.62,-0.23 0.18,-0.15 0.3,-0.39 0.38,-0.72zm1.65 -2.83l1.65 0c0.38,0 0.66,0.03 0.85,0.09 0.27,0.07 0.49,0.21 0.68,0.41 0.19,0.2 0.33,0.44 0.43,0.73 0.09,0.28 0.14,0.64 0.14,1.06 0,0.37 -0.04,0.68 -0.14,0.95 -0.11,0.33 -0.27,0.59 -0.47,0.79 -0.16,0.15 -0.37,0.27 -0.64,0.36 -0.2,0.06 -0.46,0.09 -0.8,0.09l-1.7 0 0 -4.48zm0.91 0.76l0 2.97 0.67 0c0.25,0 0.44,-0.02 0.55,-0.05 0.14,-0.03 0.26,-0.09 0.36,-0.18 0.1,-0.09 0.18,-0.23 0.24,-0.43 0.06,-0.21 0.09,-0.48 0.09,-0.83 0,-0.34 -0.03,-0.61 -0.09,-0.79 -0.06,-0.19 -0.15,-0.33 -0.26,-0.44 -0.11,-0.1 -0.25,-0.17 -0.42,-0.21 -0.12,-0.03 -0.37,-0.04 -0.74,-0.04l-0.4 0zm3.61 3.72l0 -4.48 3.08 0 0 0.76 -2.17 0 0 1.06 1.88 0 0 0.76 -1.88 0 0 1.9 -0.91 0z"/>
</svg>
