<svg xmlns="http://www.w3.org/2000/svg" viewBox="0 0 24 24">
   <path d="M8.46 14.56l-1.41 1.41 -1.37 -1.37c-0.86,1.11 -1.44,2.44 -1.62,3.9l1.94 0 0 2 -4 0 0 -1c0,-4.84 3.44,-8.87 8,-9.8l0 -2 -8 -3.2 0 -2 20 0 0 2 -8 3.2 0 2c4.56,0.93 8,4.96 8,9.8l0 1 -4 0 0 -2 1.94 0c-0.18,-1.46 -0.76,-2.79 -1.62,-3.9l-1.37 1.37 -1.41 -1.41 1.37 -1.38c-1.11,-0.86 -2.45,-1.44 -3.91,-1.62l0 1.94 -2 0 0 -1.94c-1.46,0.18 -2.8,0.76 -3.91,1.62l1.37 1.38 0 0zm3.54 2.94c1.1,0 2,0.9 2,2 0,1.1 -0.9,2 -2,2 -0.32,0 -0.62,-0.07 -0.88,-0.21l-3.85 -1.79 3.85 -1.79c0.26,-0.14 0.56,-0.21 0.88,-0.21z"/>
</svg>
