<?xml version="1.0" encoding="UTF-8"?>
<!DOCTYPE svg PUBLIC "-//W3C//DTD SVG 1.1//EN" "http://www.w3.org/Graphics/SVG/1.1/DTD/svg11.dtd">
<!-- Creator: CorelDRAW 2019 (64 Bit Versão de avaliação) -->
<svg xmlns="http://www.w3.org/2000/svg" xml:space="preserve" width="6.35mm" height="6.35mm" version="1.1" style="shape-rendering:geometricPrecision; text-rendering:geometricPrecision; image-rendering:optimizeQuality; fill-rule:evenodd; clip-rule:evenodd"
viewBox="0 0 33.05 33.05"
 xmlns:xlink="http://www.w3.org/1999/xlink"
 enable-background="new 0 0 24 24">
 <defs>
  <style type="text/css">
   <![CDATA[
    .fil0 {fill:none}
    .fil1 {fill:black}
   ]]>
  </style>
 </defs>
 <g id="Camada_x0020_1">
  <metadata id="CorelCorpID_0Corel-Layer"/>
  <g id="_1411275862848">
   <g>
    <rect class="fil0" width="33.05" height="33.05"/>
   </g>
   <g>
    <g>
     <g>
      <path class="fil1" d="M31.67 11.02c0,1.51 -1.24,2.75 -2.75,2.75 -0.25,0 -0.48,-0.03 -0.7,-0.1l-4.9 4.89c0.07,0.22 0.1,0.47 0.1,0.72 0,1.51 -1.24,2.75 -2.75,2.75 -1.52,0 -2.75,-1.24 -2.75,-2.75 0,-0.25 0.03,-0.5 0.1,-0.72l-3.51 -3.51c-0.22,0.07 -0.47,0.1 -0.72,0.1 -0.25,0 -0.5,-0.03 -0.72,-0.1l-6.27 6.28c0.07,0.22 0.1,0.45 0.1,0.7 0,1.51 -1.24,2.75 -2.75,2.75 -1.52,0 -2.75,-1.24 -2.75,-2.75 0,-1.52 1.24,-2.75 2.75,-2.75 0.25,0 0.48,0.03 0.7,0.1l6.28 -6.27c-0.07,-0.22 -0.1,-0.47 -0.1,-0.72 0,-1.51 1.24,-2.75 2.75,-2.75 1.52,0 2.75,1.24 2.75,2.75 0,0.25 -0.03,0.5 -0.1,0.72l3.51 3.51c0.22,-0.07 0.47,-0.1 0.72,-0.1 0.25,0 0.5,0.03 0.72,0.1l4.89 -4.9c-0.07,-0.22 -0.1,-0.45 -0.1,-0.7 0,-1.51 1.24,-2.75 2.75,-2.75 1.52,0 2.75,1.24 2.75,2.75z"/>
     </g>
    </g>
   </g>
  </g>
  <rect class="fil0" width="33.05" height="33.05"/>
 </g>
</svg>
