<svg xmlns="http://www.w3.org/2000/svg" viewBox="0 0 24 24">
  <path d="M6.37 6.35l1.43 1.44c-1.2,1.1 -1.8,2.49 -1.8,4.2 0,1.59 0.6,3 1.8,4.2l-1.43 1.46c-1.61,-1.61 -2.41,-3.5 -2.41,-5.66 0,-2.16 0.8,-4.03 2.41,-5.64zm14.13 -2.87c2.3,2.43 3.5,5.27 3.5,8.51 0,3.36 -1.2,6.2 -3.5,8.53l-1.41 -1.46c1.91,-1.91 2.87,-4.28 2.87,-7.07 0,-2.8 -0.96,-5.2 -2.87,-7.11l1.41 -1.4zm-15.59 1.4c-1.91,1.91 -2.87,4.28 -2.87,7.11 0,2.83 0.96,5.16 2.87,7.07l-1.41 1.46c-2.3,-2.44 -3.5,-5.29 -3.5,-8.53 0,-3.24 1.2,-6.08 3.5,-8.51l1.41 1.4zm12.72 1.47c1.5,1.5 2.3,3.37 2.41,5.64 0,2.16 -0.8,4.05 -2.41,5.66l-1.43 -1.46c1.2,-1.09 1.8,-2.5 1.8,-4.2 0,-1.6 -0.6,-3 -1.8,-4.2l1.43 -1.44zm-8.67 6.8c0,1.15 0.86,1.52 1.89,1.75 0.16,0.04 0.35,0.07 0.55,0.08l0 0 0.01 0 0.01 0 0.01 0 0 0 0.01 0 0 0.01 0.01 0 0.01 0 0.01 0 0 0 0.01 0 0.01 0 0.01 0 0 0 0.01 0 0.01 0 0.01 0 0.01 0 0 0 0.01 0 0.01 0.01 0.01 0 0.01 0 0 0 0.01 0 0.01 0 0.01 0 0 0 0.01 0 0.01 0 0.01 0 0.03 0 0.01 0 0.01 0 0 0 0.01 0c0.14,0.01 0.29,0.01 0.45,0l0.01 0 0.01 0 0 0 0.01 0 0.01 0 0.02 0 0.01 0c0.53,-0.02 1.04,-0.08 1.33,-0.15l0.02 -0.01 0 0 0.01 0 0.01 -0.01 0.01 0 0.01 0 0.01 0 0 0 0.02 -0.01 0 0c0.1,-0.03 0.2,-0.07 0.3,-0.11l0 0 0.02 -0.01 0.01 0 0.02 -0.01 0 -0.01c0.19,-0.08 0.41,-0.2 0.59,-0.36l0.01 -0.01 0.01 -0.01c0.06,-0.05 0.1,-0.09 0.14,-0.13 0.03,-0.03 0.05,-0.07 0.08,-0.11 0.07,-0.09 0.12,-0.19 0.15,-0.3 0.05,-0.13 0.06,-0.29 0.07,-0.44l0 0 0 0 0 -0.01 0 0 0 -0.01 0 -0.01 0 0 0 -0.01 0 0 0 -0.01 0 0 0 -0.01 0 0 0 0 0 -0.01 0 -0.01 0 -0.02c0,-0.58 -0.25,-1.15 -0.28,-1.26 -0.02,-0.05 -0.06,-0.14 -0.12,-0.24 -0.2,-0.46 -0.61,-1.22 -1.01,-1.69 -0.34,-0.39 -0.65,-0.72 -0.91,-0.85 -0.94,-0.49 -1.91,0.04 -2.39,0.88l0 0 0 0.01c-0.56,0.83 -1.37,2.1 -1.37,3.08zm4.59 0.21c-0.2,0.02 -0.41,0.04 -0.64,0.04 -0.1,0 -0.3,-0.01 -0.42,-0.02 -0.61,-0.06 -1.51,-0.14 -2.05,-0.56 0.04,-0.06 0.28,-0.57 0.37,-0.71 0.25,-0.38 0.65,-0.88 0.95,-1.13 0.19,-0.15 0.37,-0.29 0.59,-0.38 0.04,0.07 0.4,0.51 0.49,0.64 0.23,0.38 0.53,0.96 0.62,1.33 0.07,0.27 0.12,0.52 0.09,0.79z"/>
</svg>
