<?xml version="1.0" encoding="UTF-8"?>
<!DOCTYPE svg PUBLIC "-//W3C//DTD SVG 1.1//EN" "http://www.w3.org/Graphics/SVG/1.1/DTD/svg11.dtd">
<!-- Creator: CorelDRAW 2019 (64 Bit Versão de avaliação) -->
<svg xmlns="http://www.w3.org/2000/svg" xml:space="preserve" width="24px" height="24px" version="1.1" style="shape-rendering:geometricPrecision; text-rendering:geometricPrecision; image-rendering:optimizeQuality; fill-rule:evenodd; clip-rule:evenodd"
viewBox="0 0 24 24"
 xmlns:xlink="http://www.w3.org/1999/xlink">
 <defs>
  <style type="text/css">
   <![CDATA[
    .fil0 {fill:none}
    .fil1 {fill:black}
   ]]>
  </style>
 </defs>
 <g id="Camada_x0020_1">
  <metadata id="CorelCorpID_0Corel-Layer"/>
  <path class="fil0" d="M0 0l24 0 0 24 -24 0 0 -24z"/>
  <path class="fil1" d="M17.4 12c1.66,0 2.99,-1.34 2.99,-3 0,-1.66 -1.33,-3 -2.99,-3 -1.66,0 -3,1.34 -3,3 0,1.66 1.34,3 3,3l0 0zm-9 -1.2c1.99,0 3.59,-1.61 3.59,-3.6 0,-1.99 -1.6,-3.6 -3.59,-3.6 -1.99,0 -3.6,1.61 -3.6,3.6 0,1.99 1.61,3.6 3.6,3.6l0 0zm9 3.6c-2.2,0 -6.6,1.1 -6.6,3.3l0 2.7 13.2 0 0 -2.7c0,-2.2 -4.4,-3.3 -6.6,-3.3zm-9 -1.2c-2.8,0 -8.4,1.4 -8.4,4.2l0 3 8.4 0 0 -2.7c0,-1.02 0.4,-2.81 2.84,-4.16 -1.04,-0.22 -2.05,-0.34 -2.84,-0.34z"/>
 </g>
</svg>
