<?xml version="1.0" encoding="UTF-8"?>
<!DOCTYPE svg PUBLIC "-//W3C//DTD SVG 1.1//EN" "http://www.w3.org/Graphics/SVG/1.1/DTD/svg11.dtd">
<!-- Creator: CorelDRAW 2019 (64 Bit Versão de avaliação) -->
<svg xmlns="http://www.w3.org/2000/svg" xml:space="preserve" width="6.35mm" height="6.35mm" version="1.1" style="shape-rendering:geometricPrecision; text-rendering:geometricPrecision; image-rendering:optimizeQuality; fill-rule:evenodd; clip-rule:evenodd"
viewBox="0 0 33.05 33.05"
 xmlns:xlink="http://www.w3.org/1999/xlink">
 <defs>
  <style type="text/css">
   <![CDATA[
    .str0 {stroke:black;stroke-width:1.04;stroke-miterlimit:22.9256}
    .fil0 {fill:none}
    .fil1 {fill:black}
   ]]>
  </style>
 </defs>
 <g id="Camada_x0020_1">
  <metadata id="CorelCorpID_0Corel-Layer"/>
  <g id="_1411217101120">
   <polygon class="fil0" points="-0,0 33.05,0 33.05,33.05 -0,33.05 "/>
   <path class="fil1" d="M8.26 26.17c0,1.51 1.24,2.75 2.75,2.75l11.02 0c1.51,0 2.75,-1.24 2.75,-2.75l0 -16.52 -16.53 0 0 16.52zm2.75 -13.77l11.02 0 0 13.77 -11.02 0 0 -13.77zm10.33 -6.89l-1.38 -1.38 -6.89 0 -1.38 1.38 -4.82 0 0 2.75 19.28 0 0 -2.75 -4.82 0z"/>
  </g>
  <rect class="fil1 str0" x="11.02" y="19.28" width="11.02" height="6.88"/>
 </g>
</svg>
