<?xml version="1.0" encoding="UTF-8"?>
<!DOCTYPE svg PUBLIC "-//W3C//DTD SVG 1.1//EN" "http://www.w3.org/Graphics/SVG/1.1/DTD/svg11.dtd">
<!-- Creator: CorelDRAW 2019 (64 Bit Versão de avaliação) -->
<svg xmlns="http://www.w3.org/2000/svg" xml:space="preserve" width="6.35mm" height="6.35mm" version="1.1" style="shape-rendering:geometricPrecision; text-rendering:geometricPrecision; image-rendering:optimizeQuality; fill-rule:evenodd; clip-rule:evenodd"
viewBox="0 0 12.94 12.94"
 xmlns:xlink="http://www.w3.org/1999/xlink">
 <defs>
  <style type="text/css">
   <![CDATA[
    .fil1 {fill:none}
    .fil0 {fill:black}
   ]]>
  </style>
 </defs>
 <g id="Camada_x0020_1">
  <metadata id="CorelCorpID_0Corel-Layer"/>
  <g>
   <path class="fil0" d="M8.09 10.72c0.02,0.16 -0.03,0.33 -0.16,0.45 -0.21,0.21 -0.55,0.21 -0.76,0l-2.16 -2.16c-0.12,-0.12 -0.18,-0.29 -0.16,-0.45l0 -2.76 -2.58 -3.3c-0.18,-0.23 -0.14,-0.57 0.09,-0.75 0.1,-0.08 0.22,-0.12 0.33,-0.12l0 0 7.55 0 0 0c0.12,0 0.23,0.04 0.33,0.12 0.23,0.18 0.28,0.52 0.09,0.75l-2.58 3.3 0 4.92 0 0zm-4.29 -8.02l2.13 2.73 0 2.98 1.08 1.08 0 -4.06 2.13 -2.72 -5.35 0z"/>
  </g>
  <polygon class="fil1" points="-0,0 12.94,0 12.94,12.94 -0,12.94 "/>
 </g>
</svg>
