<svg xmlns="http://www.w3.org/2000/svg" viewBox="0 0 24 24">
    <path d="M12 18.29c1.26,0 2.29,-1.03 2.29,-2.29 0,-1.27 -1.03,-2.28 -2.29,-2.28 -1.26,-0.01 -2.29,1.02 -2.29,2.28 0,1.26 1.03,2.29 2.29,2.29l0 0zm6.86 -10.29c1.26,0 2.28,1.02 2.28,2.28l0 11.44c0,1.26 -1.02,2.28 -2.28,2.28l-13.72 0c-1.26,0 -2.28,-1.02 -2.28,-2.28l0 -11.44c0,-1.26 1.03,-2.28 2.28,-2.28l1.15 0 0 -2.29c0,-3.15 2.55,-5.71 5.71,-5.71 3.16,0 5.71,2.56 5.71,5.71l0 2.29 1.15 0 0 0zm-6.86 -5.72c-1.89,0 -3.43,1.54 -3.43,3.43l0 2.29 6.86 0 0 -2.29c0,-1.89 -1.54,-3.43 -3.43,-3.43z"/>
</svg>
