<?xml version="1.0" encoding="UTF-8"?>
<!DOCTYPE svg PUBLIC "-//W3C//DTD SVG 1.1//EN" "http://www.w3.org/Graphics/SVG/1.1/DTD/svg11.dtd">
<!-- Creator: CorelDRAW 2019 (64 Bit Versão de avaliação) -->
<svg xmlns="http://www.w3.org/2000/svg" xml:space="preserve" width="24px" height="24px" version="1.1" style="shape-rendering:geometricPrecision; text-rendering:geometricPrecision; image-rendering:optimizeQuality; fill-rule:evenodd; clip-rule:evenodd"
viewBox="0 0 24 24"
 xmlns:xlink="http://www.w3.org/1999/xlink">
 <defs>
  <style type="text/css">
   <![CDATA[
    .fil0 {fill:none}
    .fil1 {fill:black}
   ]]>
  </style>
 </defs>
 <g id="Camada_x0020_1">
  <metadata id="CorelCorpID_0Corel-Layer"/>
  <rect class="fil0" width="24" height="24"/>
  <g>
   <path class="fil1" d="M14.4 11.4c1.66,0 3,-1.34 3,-3 0,-1.66 -1.34,-3 -3,-3 -1.66,0 -3,1.34 -3,3 0,1.66 1.34,3 3,3l0 0zm0 -11.4c4.63,0 8.4,3.76 8.4,8.4 0,6.3 -8.4,15.6 -8.4,15.6 0,0 -8.4,-9.3 -8.4,-15.6 0,-4.64 3.76,-8.4 8.4,-8.4l0 0zm-10.8 8.4c0,5.4 6.1,12.79 7.2,14.17l-1.2 1.43c0,0 -8.4,-9.3 -8.4,-15.6 0,-3.81 2.53,-7.02 6,-8.05 -2.21,1.98 -3.6,4.84 -3.6,8.05z"/>
  </g>
 </g>
</svg>
