<svg xmlns="http://www.w3.org/2000/svg" viewBox="0 0 24 24">
  <path d="M18 16.12c-0.76,0 -1.44,0.31 -1.96,0.77l-7.13 -4.14c0.05,-0.23 0.09,-0.47 0.09,-0.71 0,-0.23 -0.04,-0.47 -0.09,-0.7l7.05 -4.11c0.54,0.5 1.25,0.82 2.04,0.82 1.66,0 3,-1.35 3,-3.01 0,-1.66 -1.34,-3 -3,-3 -1.66,0 -3,1.34 -3,3 0,0.24 0.04,0.47 0.09,0.7l-7.05 4.11c-0.54,-0.49 -1.25,-0.81 -2.04,-0.81 -1.66,0 -3,1.35 -3,3 0,1.67 1.34,3.01 3,3.01 0.79,0 1.5,-0.31 2.04,-0.82l7.12 4.16c-0.05,0.21 -0.08,0.43 -0.08,0.66 0,1.61 1.31,2.91 2.92,2.91 1.61,0 2.92,-1.3 2.92,-2.91 0,-1.61 -1.31,-2.93 -2.92,-2.93z"/>
</svg>
