<?xml version="1.0" encoding="UTF-8"?>
<!DOCTYPE svg PUBLIC "-//W3C//DTD SVG 1.1//EN" "http://www.w3.org/Graphics/SVG/1.1/DTD/svg11.dtd">
<!-- Creator: CorelDRAW 2019 (64 Bit Versão de avaliação) -->
<svg xmlns="http://www.w3.org/2000/svg" xml:space="preserve" width="24px" height="24px" version="1.1" style="shape-rendering:geometricPrecision; text-rendering:geometricPrecision; image-rendering:optimizeQuality; fill-rule:evenodd; clip-rule:evenodd"
viewBox="0 0 24 24"
 xmlns:xlink="http://www.w3.org/1999/xlink">
 <defs>
  <style type="text/css">
   <![CDATA[
    .fil0 {fill:none}
    .fil1 {fill:black}
   ]]>
  </style>
 </defs>
 <g id="Camada_x0020_1">
  <metadata id="CorelCorpID_0Corel-Layer"/>
  <path class="fil0" d="M1852.69 -25.5l75.01 0 0 75 -75.01 0 0 -75z"/>
  <path class="fil0" d="M0 0l24 0 0 24 -24 0 0 -24z"/>
  <path class="fil1" d="M12 24c1.35,0 2.46,-1.11 2.46,-2.46l-4.92 0c0,1.35 1.09,2.46 2.46,2.46l0 0zm7.38 -7.38l0 -6.16c0,-3.78 -2.01,-6.94 -5.53,-7.78l0 -0.83c0,-1.03 -0.83,-1.85 -1.85,-1.85 -1.02,0 -1.85,0.82 -1.85,1.85l0 0.83c-3.53,0.84 -5.53,3.99 -5.53,7.78l0 6.16 -2.47 2.46 0 1.23 19.7 0 0 -1.23 -2.47 -2.46z"/>
 </g>
</svg>
