<?xml version="1.0" encoding="UTF-8"?>
<!DOCTYPE svg PUBLIC "-//W3C//DTD SVG 1.1//EN" "http://www.w3.org/Graphics/SVG/1.1/DTD/svg11.dtd">
<!-- Creator: CorelDRAW 2019 (64 Bit Versão de avaliação) -->
<svg xmlns="http://www.w3.org/2000/svg" xml:space="preserve" width="6.35mm" height="6.35mm" version="1.1" style="shape-rendering:geometricPrecision; text-rendering:geometricPrecision; image-rendering:optimizeQuality; fill-rule:evenodd; clip-rule:evenodd"
viewBox="0 0 32.94 32.94"
 xmlns:xlink="http://www.w3.org/1999/xlink">
 <defs>
  <style type="text/css">
   <![CDATA[
    .fil0 {fill:none}
    .fil1 {fill:black}
   ]]>
  </style>
 </defs>
 <g id="Camada_x0020_1">
  <metadata id="CorelCorpID_0Corel-Layer"/>
  <rect class="fil0" width="32.94" height="32.94"/>
  <g>
   <path class="fil1" d="M19.22 15.79c1.89,0 3.43,-1.54 3.43,-3.43 0,-1.89 -1.54,-3.43 -3.43,-3.43 -1.89,0 -3.43,1.54 -3.43,3.43 0,1.89 1.54,3.43 3.43,3.43l0 0zm0 -13.04c5.3,0 9.61,4.3 9.61,9.61 0,7.21 -9.61,17.84 -9.61,17.84 0,0 -9.61,-10.64 -9.61,-17.84 0,-5.31 4.3,-9.61 9.61,-9.61l0 0zm-12.35 9.61c0,6.18 6.97,14.63 8.24,16.21l-1.37 1.63c0,0 -9.61,-10.64 -9.61,-17.84 0,-4.35 2.9,-8.03 6.86,-9.21 -2.53,2.27 -4.12,5.55 -4.12,9.21z"/>
  </g>
 </g>
</svg>
