<?xml version="1.0" encoding="UTF-8"?>
<!DOCTYPE svg PUBLIC "-//W3C//DTD SVG 1.1//EN" "http://www.w3.org/Graphics/SVG/1.1/DTD/svg11.dtd">
<!-- Creator: CorelDRAW 2019 (64 Bit Versão de avaliação) -->
<svg xmlns="http://www.w3.org/2000/svg" xml:space="preserve" width="6.35mm" height="6.35mm" version="1.1" style="shape-rendering:geometricPrecision; text-rendering:geometricPrecision; image-rendering:optimizeQuality; fill-rule:evenodd; clip-rule:evenodd"
viewBox="0 0 146.25 146.25"
 xmlns:xlink="http://www.w3.org/1999/xlink">
 <defs>
  <style type="text/css">
   <![CDATA[
    .fil0 {fill:none}
    .fil1 {fill:black}
   ]]>
  </style>
 </defs>
 <g id="Camada_x0020_1">
  <metadata id="CorelCorpID_0Corel-Layer"/>
  <polygon class="fil0" points="-0,0 146.25,0 146.25,146.25 -0,146.25 "/>
  <g>
   <path class="fil1" d="M73.14 94.45c-11.76,0 -21.33,-9.57 -21.33,-21.33 0,-11.76 9.57,-21.33 21.33,-21.33 11.76,0 21.33,9.57 21.33,21.33 0,11.76 -9.57,21.33 -21.33,21.33l0 0zm45.28 -15.42c0.24,-1.95 0.43,-3.9 0.43,-5.91 0,-2.01 -0.18,-4.02 -0.43,-6.09l12.86 -9.93c1.16,-0.91 1.46,-2.56 0.73,-3.9l-12.19 -21.08c-0.73,-1.34 -2.38,-1.89 -3.72,-1.34l-15.17 6.09c-3.17,-2.38 -6.46,-4.45 -10.3,-5.97l-2.25 -16.15c-0.24,-1.46 -1.52,-2.56 -3.05,-2.56l-24.38 0c-1.52,0 -2.8,1.1 -3.05,2.56l-2.25 16.15c-3.84,1.52 -7.13,3.6 -10.3,5.97l-15.17 -6.09c-1.34,-0.55 -2.99,0 -3.72,1.34l-12.19 21.08c-0.79,1.34 -0.43,2.99 0.73,3.9l12.86 9.93c-0.24,2.07 -0.43,4.08 -0.43,6.09 0,2.01 0.18,3.96 0.43,5.91l-12.86 10.12c-1.16,0.91 -1.52,2.56 -0.73,3.9l12.19 21.08c0.73,1.34 2.38,1.83 3.72,1.34l15.17 -6.16c3.17,2.44 6.46,4.51 10.3,6.03l2.25 16.15c0.24,1.46 1.52,2.56 3.05,2.56l24.38 0c1.52,0 2.8,-1.1 3.05,-2.56l2.25 -16.15c3.84,-1.58 7.13,-3.6 10.3,-6.03l15.17 6.16c1.34,0.49 2.99,0 3.72,-1.34l12.19 -21.08c0.73,-1.34 0.43,-2.99 -0.73,-3.9l-12.86 -10.12z"/>
  </g>
 </g>
</svg>
