<?xml version="1.0" encoding="UTF-8"?>
<!DOCTYPE svg PUBLIC "-//W3C//DTD SVG 1.1//EN" "http://www.w3.org/Graphics/SVG/1.1/DTD/svg11.dtd">
<!-- Creator: CorelDRAW 2019 (64 Bit Versão de avaliação) -->
<svg xmlns="http://www.w3.org/2000/svg" xml:space="preserve" width="6.35mm" height="6.35mm" version="1.1" style="shape-rendering:geometricPrecision; text-rendering:geometricPrecision; image-rendering:optimizeQuality; fill-rule:evenodd; clip-rule:evenodd"
viewBox="0 0 18.86 18.86"
 xmlns:xlink="http://www.w3.org/1999/xlink">
 <defs>
  <style type="text/css">
   <![CDATA[
    .fil1 {fill:none}
    .fil0 {fill:black}
   ]]>
  </style>
 </defs>
 <g id="Camada_x0020_1">
  <metadata id="CorelCorpID_0Corel-Layer"/>
  <g>
   <path class="fil0" d="M15.71 5.89l-0.79 0 -1.57 0 -1.57 0 0 4.71 -10.21 0 0 2.36 0.79 0c0,1.3 1.05,2.36 2.36,2.36 1.3,0 2.36,-1.05 2.36,-2.36l4.71 0c0,1.3 1.05,2.36 2.36,2.36 1.3,0 2.36,-1.05 2.36,-2.36l1.57 0 0 -3.93 -2.36 -3.14 0 0zm-11 8.25c-0.65,0 -1.18,-0.53 -1.18,-1.18 0,-0.65 0.53,-1.18 1.18,-1.18 0.65,0 1.18,0.53 1.18,1.18 0,0.65 -0.53,1.18 -1.18,1.18l0 0zm9.43 0c-0.65,0 -1.18,-0.53 -1.18,-1.18 0,-0.65 0.53,-1.18 1.18,-1.18 0.65,0 1.18,0.53 1.18,1.18 0,0.65 -0.53,1.18 -1.18,1.18l0 0zm-0.79 -5.11l0 -1.96 1.96 0 1.54 1.96 -3.5 0 0 0zm0.79 -3.93l-3.14 0 0 4.71 -8.64 0 -1.12 -3.93 -0.45 0 0 -1.57 9.43 0 0.79 -0.79 3.14 0 0 1.57z"/>
  </g>
  <polygon class="fil1" points="-0,0 18.86,0 18.86,18.86 -0,18.86 "/>
 </g>
</svg>
