<svg xmlns="http://www.w3.org/2000/svg" viewBox="0 0 24 24">
   <path d="M5.33 5.33l5 0 0 5 -5 0 0 -5 0 0zm13.34 0l0 5 -5 0 0 -5 5 0 0 0zm-5 9.17l1.66 0 0 -1.67 -1.66 0 0 -1.66 1.66 0 0 1.66 1.67 0 0 -1.66 1.67 0 0 1.66 -1.67 0 0 1.67 1.67 0 0 2.5 -1.67 0 0 1.67 -1.67 0 0 -1.67 -2.5 0 0 1.67 -1.66 0 0 -3.34 2.5 0 0 -0.83 0 0zm1.66 0l0 2.5 1.67 0 0 -2.5 -1.67 0 0 0zm-10 4.17l0 -5 5 0 0 5 -5 0 0 0zm1.67 -11.67l0 1.67 1.67 0 0 -1.67 -1.67 0 0 0zm8.33 0l0 1.67 1.67 0 0 -1.67 -1.67 0 0 0zm-8.33 8.33l0 1.67 1.67 0 0 -1.67 -1.67 0 0 0zm-1.67 -4.16l1.67 0 0 1.66 -1.67 0 0 -1.66 0 0zm4.17 0l3.33 0 0 3.33 -1.66 0 0 -1.67 -1.67 0 0 -1.66 0 0zm1.67 -4.17l1.66 0 0 3.33 -1.66 0 0 -3.33 0 0zm-7.5 -3.33l0 3.33 -1.67 0 0 -3.33c0,-0.92 0.75,-1.67 1.67,-1.67l3.33 0 0 1.67 -3.33 0 0 0zm16.66 -1.67c0.92,0 1.67,0.75 1.67,1.67l0 3.33 -1.67 0 0 -3.33 -3.33 0 0 -1.67 3.33 0 0 0zm-16.66 15l0 3.33 3.33 0 0 1.67 -3.33 0c-0.92,0 -1.67,-0.75 -1.67,-1.67l0 -3.33 1.67 0 0 0zm16.66 3.33l0 -3.33 1.67 0 0 3.33c0,0.92 -0.75,1.67 -1.67,1.67l-3.33 0 0 -1.67 3.33 0z"/>
</svg>
