<?xml version="1.0" encoding="UTF-8"?>
<!DOCTYPE svg PUBLIC "-//W3C//DTD SVG 1.1//EN" "http://www.w3.org/Graphics/SVG/1.1/DTD/svg11.dtd">
<!-- Creator: CorelDRAW 2019 (64 Bit Versão de avaliação) -->
<svg xmlns="http://www.w3.org/2000/svg" xml:space="preserve" width="24px" height="24px" version="1.1" style="shape-rendering:geometricPrecision; text-rendering:geometricPrecision; image-rendering:optimizeQuality; fill-rule:evenodd; clip-rule:evenodd"
viewBox="0 0 24 24"
 xmlns:xlink="http://www.w3.org/1999/xlink">
 <defs>
  <style type="text/css">
   <![CDATA[
    .fil0 {fill:none}
    .fil1 {fill:black}
   ]]>
  </style>
 </defs>
 <g id="Camada_x0020_1">
  <metadata id="CorelCorpID_0Corel-Layer"/>
  <path class="fil0" d="M0 0l24 0 0 24 -24 0 0 -24z"/>
  <g>
   <path class="fil1" d="M12 16.2c-2.31,0 -4.2,-1.88 -4.2,-4.2 0,-2.32 1.89,-4.2 4.2,-4.2 2.32,0 4.2,1.88 4.2,4.2 0,2.32 -1.88,4.2 -4.2,4.2l0 0zm8.92 -3.04c0.05,-0.38 0.08,-0.76 0.08,-1.16 0,-0.4 -0.03,-0.79 -0.08,-1.2l2.53 -1.96c0.23,-0.18 0.29,-0.5 0.15,-0.76l-2.4 -4.16c-0.15,-0.26 -0.47,-0.37 -0.74,-0.26l-2.99 1.2c-0.62,-0.47 -1.27,-0.88 -2.02,-1.18l-0.45 -3.18c-0.04,-0.29 -0.3,-0.5 -0.6,-0.5l-4.8 0c-0.3,0 -0.55,0.21 -0.6,0.5l-0.44 3.18c-0.76,0.3 -1.41,0.71 -2.03,1.18l-2.99 -1.2c-0.26,-0.11 -0.59,0 -0.73,0.26l-2.4 4.16c-0.16,0.26 -0.08,0.58 0.14,0.76l2.54 1.96c-0.05,0.41 -0.09,0.8 -0.09,1.2 0,0.4 0.04,0.78 0.09,1.16l-2.54 2c-0.22,0.18 -0.3,0.5 -0.14,0.76l2.4 4.16c0.14,0.26 0.47,0.36 0.73,0.26l2.99 -1.21c0.62,0.48 1.27,0.89 2.03,1.19l0.44 3.18c0.05,0.29 0.3,0.5 0.6,0.5l4.8 0c0.3,0 0.56,-0.21 0.6,-0.5l0.45 -3.18c0.75,-0.31 1.4,-0.71 2.02,-1.19l2.99 1.21c0.27,0.1 0.59,0 0.74,-0.26l2.4 -4.16c0.14,-0.26 0.08,-0.58 -0.15,-0.76l-2.53 -2z"/>
  </g>
 </g>
</svg>
