<?xml version="1.0" encoding="UTF-8"?>
<!DOCTYPE svg PUBLIC "-//W3C//DTD SVG 1.1//EN" "http://www.w3.org/Graphics/SVG/1.1/DTD/svg11.dtd">
<!-- Creator: CorelDRAW 2019 (64 Bit Versão de avaliação) -->
<svg xmlns="http://www.w3.org/2000/svg" xml:space="preserve" width="6.35mm" height="6.35mm" version="1.1" style="shape-rendering:geometricPrecision; text-rendering:geometricPrecision; image-rendering:optimizeQuality; fill-rule:evenodd; clip-rule:evenodd"
viewBox="0 0 146.25 146.25"
 xmlns:xlink="http://www.w3.org/1999/xlink">
 <defs>
  <style type="text/css">
   <![CDATA[
    .fil0 {fill:none}
    .fil1 {fill:black}
   ]]>
  </style>
 </defs>
 <g id="Camada_x0020_1">
  <metadata id="CorelCorpID_0Corel-Layer"/>
  <rect class="fil0" width="146.25" height="146.25"/>
  <g>
   <path class="fil1" d="M32.5 32.5l30.47 0 0 30.47 -30.47 0 0 -30.47 0 0zm81.25 0l0 30.47 -30.47 0 0 -30.47 30.47 0 0 0zm-30.47 55.86l10.15 0 0 -10.16 -10.15 0 0 -10.16 10.15 0 0 10.16 10.16 0 0 -10.16 10.16 0 0 10.16 -10.16 0 0 10.16 10.16 0 0 15.23 -10.16 0 0 10.16 -10.16 0 0 -10.16 -15.23 0 0 10.16 -10.16 0 0 -20.31 15.24 0 0 -5.08 0 0zm10.15 0l0 15.23 10.16 0 0 -15.23 -10.16 0 0 0zm-60.94 25.39l0 -30.47 30.47 0 0 30.47 -30.47 0 0 0zm10.16 -71.09l0 10.16 10.16 0 0 -10.16 -10.16 0 0 0zm50.78 0l0 10.16 10.16 0 0 -10.16 -10.16 0 0 0zm-50.78 50.78l0 10.16 10.16 0 0 -10.16 -10.16 0 0 0zm-10.16 -25.39l10.16 0 0 10.16 -10.16 0 0 -10.16 0 0zm25.39 0l20.31 0 0 20.31 -10.16 0 0 -10.16 -10.16 0 0 -10.16 0 0zm10.16 -25.39l10.16 0 0 20.31 -10.16 0 0 -20.31 0 0zm-45.7 -20.31l0 20.31 -10.16 0 0 -20.31c0,-5.59 4.57,-10.16 10.16,-10.16l20.31 0 0 10.16 -20.31 0 0 0zm101.56 -10.16c5.59,0 10.16,4.57 10.16,10.16l0 20.31 -10.16 0 0 -20.31 -20.31 0 0 -10.16 20.31 0 0 0zm-101.56 91.41l0 20.31 20.31 0 0 10.16 -20.31 0c-5.59,0 -10.16,-4.57 -10.16,-10.16l0 -20.31 10.16 0 0 0zm101.56 20.31l0 -20.31 10.16 0 0 20.31c0,5.59 -4.57,10.16 -10.16,10.16l-20.31 0 0 -10.16 20.31 0z"/>
  </g>
 </g>
</svg>
