<svg xmlns="http://www.w3.org/2000/svg" viewBox="0 0 24 24">
  <path d="M23 8c0,1.1 -0.9,2 -2,2 -0.18,0 -0.35,-0.02 -0.51,-0.07l-3.56 3.55c0.05,0.16 0.07,0.34 0.07,0.52 0,1.1 -0.9,2 -2,2 -1.1,0 -2,-0.9 -2,-2 0,-0.18 0.02,-0.36 0.07,-0.52l-2.55 -2.55c-0.16,0.05 -0.34,0.07 -0.52,0.07 -0.18,0 -0.36,-0.02 -0.52,-0.07l-4.55 4.56c0.05,0.16 0.07,0.33 0.07,0.51 0,1.1 -0.9,2 -2,2 -1.1,0 -2,-0.9 -2,-2 0,-1.1 0.9,-2 2,-2 0.18,0 0.35,0.02 0.51,0.07l4.56 -4.55c-0.05,-0.16 -0.07,-0.34 -0.07,-0.52 0,-1.1 0.9,-2 2,-2 1.1,0 2,0.9 2,2 0,0.18 -0.02,0.36 -0.07,0.52l2.55 2.55c0.16,-0.05 0.34,-0.07 0.52,-0.07 0.18,0 0.36,0.02 0.52,0.07l3.55 -3.56c-0.05,-0.16 -0.07,-0.33 -0.07,-0.51 0,-1.1 0.9,-2 2,-2 1.1,0 2,0.9 2,2z"/>
</svg>
