<?xml version="1.0" encoding="UTF-8"?>
<!DOCTYPE svg PUBLIC "-//W3C//DTD SVG 1.1//EN" "http://www.w3.org/Graphics/SVG/1.1/DTD/svg11.dtd">
<!-- Creator: CorelDRAW 2019 (64 Bit Versão de avaliação) -->
<svg xmlns="http://www.w3.org/2000/svg" xml:space="preserve" width="24px" height="24px" version="1.1" style="shape-rendering:geometricPrecision; text-rendering:geometricPrecision; image-rendering:optimizeQuality; fill-rule:evenodd; clip-rule:evenodd"
viewBox="0 0 24 24"
 xmlns:xlink="http://www.w3.org/1999/xlink">
 <defs>
  <style type="text/css">
   <![CDATA[
    .fil0 {fill:none}
    .fil1 {fill:black}
   ]]>
  </style>
 </defs>
 <g id="Camada_x0020_1">
  <metadata id="CorelCorpID_0Corel-Layer"/>
  <path class="fil0" d="M0 0l24 0 0 24 -24 0 0 -24z"/>
  <path class="fil1" d="M12.52 10.53c-3.03,-0.78 -4,-1.6 -4,-2.86 0,-1.46 1.35,-2.47 3.6,-2.47 2.37,0 3.25,1.13 3.33,2.8l2.95 0c-0.09,-2.29 -1.49,-4.4 -4.28,-5.08l0 -2.92 -4 0 0 2.88c-2.59,0.56 -4.67,2.24 -4.67,4.81 0,3.08 2.55,4.62 6.27,5.51 3.33,0.8 4,1.97 4,3.21 0,0.92 -0.65,2.39 -3.6,2.39 -2.75,0 -3.83,-1.23 -3.97,-2.8l-2.94 0c0.16,2.92 2.35,4.56 4.91,5.11l0 2.89 4 0 0 -2.87c2.6,-0.49 4.67,-2 4.67,-4.73 0,-3.79 -3.24,-5.08 -6.27,-5.87l0 0z"/>
 </g>
</svg>
