<svg xmlns="http://www.w3.org/2000/svg" viewBox="0 0 24 24">
   <path d="M21.6 19.2l-19.2 0 0 -12 19.2 0 0 12zm0 -14.4l-9.6 0 -2.4 -2.4 -7.2 0c-1.33,0 -2.4,1.07 -2.4,2.4l0 14.4c0,1.33 1.07,2.4 2.4,2.4l19.2 0c1.33,0 2.4,-1.07 2.4,-2.4l0 -12c0,-1.33 -1.08,-2.4 -2.4,-2.4zm-3.48 10.14c-0.26,0.03 -0.54,0.05 -0.82,0.05 -0.14,0 -0.4,-0.01 -0.56,-0.02 -0.79,-0.08 -1.96,-0.19 -2.66,-0.73 0.05,-0.07 0.37,-0.75 0.49,-0.93 0.31,-0.49 0.84,-1.15 1.22,-1.46 0.25,-0.2 0.48,-0.38 0.77,-0.49 0.06,0.08 0.53,0.65 0.64,0.83 0.31,0.49 0.69,1.25 0.81,1.73 0.09,0.35 0.15,0.66 0.11,1.02zm-5.91 -0.34c0,1.5 1.12,1.97 2.46,2.28 0.21,0.05 0.45,0.08 0.71,0.1l0 0 0.01 0 0.02 0.01 0.01 0 0 0 0.01 0 0.01 0 0.01 0 0.01 0 0.01 0 0.01 0 0.01 0 0.01 0 0.01 0 0.01 0.01 0 0 0.02 0 0.01 0 0.01 0 0 0 0.02 0 0.01 0 0.02 0 0 0 0.01 0 0.01 0 0.02 0 0.01 0 0 0 0.01 0 0.02 0 0.01 0 0.03 0.01 0.01 0 0.02 0 0 0 0.01 0c0.19,0 0.38,0 0.59,0l0.01 0 0.02 0 0 0 0.01 0 0.01 0 0.03 -0.01 0.01 0c0.69,-0.01 1.36,-0.1 1.73,-0.19l0.02 -0.01 0 0 0.02 0 0.02 -0.01 0 0 0.02 0 0.01 -0.01 0 0 0.02 0 0.01 -0.01c0.13,-0.03 0.26,-0.08 0.38,-0.14l0.01 0 0.03 -0.01 0 -0.01 0.03 -0.01 0.01 0c0.24,-0.11 0.52,-0.27 0.77,-0.48l0 -0.01 0.02 -0.01c0.07,-0.06 0.13,-0.12 0.18,-0.17 0.03,-0.05 0.07,-0.09 0.1,-0.14 0.09,-0.12 0.16,-0.26 0.2,-0.4 0.06,-0.17 0.08,-0.37 0.09,-0.56l0 -0.01 0 0 0 -0.02 0 0 0 -0.01 0 0 0 -0.01 0 -0.01 0 0 0 -0.01 0 -0.01 0 0 0 -0.01 0 0 0 -0.01 0 -0.01 0 -0.03c-0.01,-0.76 -0.33,-1.5 -0.37,-1.63 -0.02,-0.08 -0.08,-0.19 -0.16,-0.32 -0.25,-0.6 -0.79,-1.59 -1.3,-2.19 -0.44,-0.52 -0.86,-0.94 -1.19,-1.11 -1.22,-0.64 -2.49,0.05 -3.11,1.14l0 0.01 0 0c-0.72,1.08 -1.78,2.74 -1.78,4.01z"/>
</svg>
