<svg xmlns="http://www.w3.org/2000/svg" viewBox="0 0 24 24">
  <path d="M15.96 10.2l1.3 2.23c0.06,-0.04 0.12,-0.09 0.16,-0.16l0.79 -1.36 0.69 1.22 -0.43 0.25c-0.13,0.07 -0.1,0.27 0.05,0.31l1.71 0.32c0.33,0.07 0.66,-0.12 0.77,-0.44l0.57 -1.65c0.06,-0.14 -0.1,-0.27 -0.24,-0.2l-0.43 0.25 -1.14 -1.97c-0.14,-0.24 -0.4,-0.39 -0.68,-0.39l-1.75 0c-0.28,0 -0.54,0.15 -0.68,0.39l-0.69 1.2zm3.45 5.93l1.45 2.49 -0.78 0.01 0 0.5c0,0.15 -0.19,0.22 -0.29,0.11l-1.15 -1.32c-0.09,-0.11 -0.15,-0.24 -0.16,-0.37 -0.02,-0.18 0.03,-0.36 0.15,-0.51l0.78 -0.91zm0 0l1.45 2.49 1.49 -0.01c0.29,0 0.55,-0.15 0.68,-0.4l0.87 -1.52c0.14,-0.25 0.13,-0.55 -0.01,-0.79l-1.24 -2.1c-0.1,-0.19 -0.34,-0.25 -0.53,-0.14l-1.31 0.77c-0.19,0.11 -0.25,0.35 -0.14,0.53l0.79 1.35 -1.4 0.01 0 -0.5c-0.01,-0.15 -0.2,-0.22 -0.3,-0.11l-0.35 0.42zm-13.59 -0.76l-2.22 -0.01 1 -1.71 0.61 0.35c0.19,0.11 0.41,-0.07 0.34,-0.28l-0.8 -2.33c-0.15,-0.45 -0.61,-0.71 -1.08,-0.63l-2.43 0.45c-0.21,0.04 -0.26,0.33 -0.07,0.44l0.61 0.35 -1.63 2.79c-0.2,0.34 -0.2,0.77 0,1.11l1.23 2.16c0.2,0.34 0.56,0.56 0.96,0.56l3.46 0.01c0.3,0 0.55,-0.24 0.55,-0.55l0.01 -2.16c0.01,-0.3 -0.24,-0.55 -0.54,-0.55l0 0zm10.66 0.5c0.2,-0.34 0.2,-0.77 -0.01,-1.11l-1.75 -2.98c-0.15,-0.27 -0.49,-0.35 -0.75,-0.2l-1.87 1.1c-0.26,0.15 -0.35,0.49 -0.19,0.75l1.12 1.91 -1.98 0.02 -0.01 -0.71c0,-0.22 -0.27,-0.32 -0.41,-0.15l-1.6 1.87c-0.31,0.36 -0.31,0.89 0.01,1.25l1.62 1.86c0.15,0.17 0.42,0.06 0.42,-0.15l-0.01 -0.71 3.23 -0.02c0.39,-0.01 0.76,-0.22 0.96,-0.57l1.22 -2.16zm-5.19 -5.2c0.47,0.09 0.93,-0.18 1.09,-0.63l0.81 -2.33c0.08,-0.21 -0.15,-0.39 -0.34,-0.28l-0.61 0.35 -1.61 -2.79c-0.2,-0.34 -0.57,-0.56 -0.97,-0.56l-2.48 0c-0.4,0 -0.76,0.22 -0.96,0.56l-1.73 3c-0.15,0.26 -0.07,0.6 0.2,0.75l1.87 1.08c0.26,0.15 0.6,0.06 0.75,-0.2l1.11 -1.92 0.99 1.71 -0.61 0.36c-0.19,0.11 -0.14,0.39 0.07,0.43l2.42 0.47z"/>
</svg>
