<?xml version="1.0" encoding="UTF-8"?>
<!DOCTYPE svg PUBLIC "-//W3C//DTD SVG 1.1//EN" "http://www.w3.org/Graphics/SVG/1.1/DTD/svg11.dtd">
<!-- Creator: CorelDRAW 2019 (64 Bit Versão de avaliação) -->
<svg xmlns="http://www.w3.org/2000/svg" xml:space="preserve" width="6.35mm" height="6.35mm" version="1.1" style="shape-rendering:geometricPrecision; text-rendering:geometricPrecision; image-rendering:optimizeQuality; fill-rule:evenodd; clip-rule:evenodd"
viewBox="0 0 33.05 33.05"
 xmlns:xlink="http://www.w3.org/1999/xlink">
 <defs>
  <style type="text/css">
   <![CDATA[
    .fil1 {fill:none}
    .fil0 {fill:black}
   ]]>
  </style>
 </defs>
 <g id="Camada_x0020_1">
  <metadata id="CorelCorpID_0Corel-Layer"/>
  <g>
   <path class="fil0" d="M30.3 9.64c0,-1.51 -1.24,-2.75 -2.75,-2.75l-22.03 0c-1.51,0 -2.75,1.24 -2.75,2.75l0 16.53c0,1.51 1.24,2.75 2.75,2.75l22.03 0c1.51,0 2.75,-1.24 2.75,-2.75l0 -16.53 0 0zm-2.75 0l-11.02 6.89 -11.02 -6.89 22.03 0 0 0zm0 16.53l-22.03 0 0 -13.77 11.02 6.89 11.02 -6.89 0 13.77z"/>
  </g>
  <rect class="fil1" width="33.05" height="33.05"/>
 </g>
</svg>
