<?xml version="1.0" encoding="UTF-8"?>
<!DOCTYPE svg PUBLIC "-//W3C//DTD SVG 1.1//EN" "http://www.w3.org/Graphics/SVG/1.1/DTD/svg11.dtd">
<!-- Creator: CorelDRAW 2019 (64 Bit Versão de avaliação) -->
<svg xmlns="http://www.w3.org/2000/svg" xml:space="preserve" width="24px" height="24px" version="1.1" style="shape-rendering:geometricPrecision; text-rendering:geometricPrecision; image-rendering:optimizeQuality; fill-rule:evenodd; clip-rule:evenodd"
viewBox="0 0 24 24"
 xmlns:xlink="http://www.w3.org/1999/xlink">
 <defs>
  <style type="text/css">
   <![CDATA[
    .fil0 {fill:none}
    .fil1 {fill:black}
   ]]>
  </style>
 </defs>
 <g id="Camada_x0020_1">
  <metadata id="CorelCorpID_0Corel-Layer"/>
  <path class="fil0" d="M0 0l24 0 0 24 -24 0 0 -24z"/>
  <path class="fil1" d="M12 15.16c2.1,0 3.78,-1.69 3.78,-3.79l0.01 -7.58c0,-2.1 -1.69,-3.79 -3.79,-3.79 -2.1,0 -3.79,1.69 -3.79,3.79l0 7.58c0,2.1 1.69,3.79 3.79,3.79zm6.7 -3.79c0,3.79 -3.21,6.44 -6.7,6.44 -3.49,0 -6.7,-2.65 -6.7,-6.44l-2.14 0c0,4.31 3.43,7.87 7.58,8.49l0 4.14 2.52 0 0 -4.14c4.15,-0.61 7.58,-4.17 7.58,-8.49l-2.14 0z"/>
 </g>
</svg>
