<?xml version="1.0" encoding="UTF-8"?>
<!DOCTYPE svg PUBLIC "-//W3C//DTD SVG 1.1//EN" "http://www.w3.org/Graphics/SVG/1.1/DTD/svg11.dtd">
<!-- Creator: CorelDRAW 2019 (64 Bit Versão de avaliação) -->
<svg xmlns="http://www.w3.org/2000/svg" xml:space="preserve" width="24px" height="24px" version="1.1" style="shape-rendering:geometricPrecision; text-rendering:geometricPrecision; image-rendering:optimizeQuality; fill-rule:evenodd; clip-rule:evenodd"
viewBox="0 0 24 24"
 xmlns:xlink="http://www.w3.org/1999/xlink">
 <defs>
  <style type="text/css">
   <![CDATA[
    .fil0 {fill:none}
    .fil1 {fill:black}
   ]]>
  </style>
 </defs>
 <g id="Camada_x0020_1">
  <metadata id="CorelCorpID_0Corel-Layer"/>
  <path class="fil0" d="M0 0l24 0 0 24 -24 0 0 -24z"/>
  <rect class="fil0" width="24" height="24"/>
  <path class="fil1" d="M15.61 7.76l1.29 0 0 -7.76 -10.35 0 0 6.47 -6.47 0 0 16.82 1.3 0 0 -15.53 6.47 0 0 -6.47 7.76 0 0 6.47zm-11.65 5.18l2.59 0 0 -2.59 -2.59 0 0 2.59zm6.47 -7.77l2.59 0 0 -2.58 -2.59 0 0 2.58zm-6.47 12.94l2.59 0 0 -2.58 -2.59 0 0 2.58zm0 5.18l2.59 0 0 -2.59 -2.59 0 0 2.59zm14.79 -7.91c0.45,0.09 0.89,-0.17 1.05,-0.6l0.79 -2.26c0.07,-0.2 -0.15,-0.38 -0.33,-0.27l-0.6 0.34 -1.56 -2.71c-0.19,-0.33 -0.55,-0.54 -0.93,-0.54l-2.4 0c-0.39,0 -0.75,0.21 -0.94,0.54l-1.68 2.9c-0.14,0.26 -0.05,0.59 0.2,0.74l1.81 1.04c0.26,0.15 0.59,0.06 0.73,-0.2l1.08 -1.85 0.96 1.66 -0.6 0.34c-0.18,0.11 -0.13,0.38 0.07,0.42l2.35 0.45zm5.02 5.04c0.2,-0.33 0.19,-0.74 0,-1.07l-1.7 -2.89c-0.15,-0.26 -0.48,-0.34 -0.73,-0.19l-1.81 1.05c-0.25,0.15 -0.34,0.48 -0.19,0.74l1.09 1.85 -1.92 0.01 0 -0.68c-0.01,-0.22 -0.27,-0.31 -0.41,-0.15l-1.55 1.82c-0.29,0.35 -0.29,0.86 0.01,1.21l1.58 1.8c0.14,0.16 0.4,0.06 0.4,-0.15l-0.01 -0.68 3.13 -0.03c0.38,0 0.74,-0.21 0.93,-0.54l1.18 -2.1zm-10.33 -0.48l-2.15 -0.01 0.97 -1.66 0.59 0.34c0.19,0.11 0.4,-0.07 0.33,-0.27l-0.77 -2.26c-0.15,-0.43 -0.59,-0.69 -1.04,-0.61l-2.36 0.44c-0.21,0.04 -0.26,0.31 -0.07,0.42l0.59 0.35 -1.57 2.7c-0.2,0.33 -0.2,0.74 -0.01,1.07l1.19 2.09c0.2,0.33 0.55,0.54 0.94,0.54l3.35 0.02c0.29,0 0.53,-0.24 0.53,-0.54l0.01 -2.09c0,-0.29 -0.23,-0.53 -0.53,-0.53l0 0z"/>
 </g>
</svg>
