<svg xmlns="http://www.w3.org/2000/svg" viewBox="0 0 24 24">
   <path d="M12 0c3.78,0 6.86,3.04 6.86,6.8 0,5.1 -6.86,12.63 -6.86,12.63 0,0 -6.86,-7.53 -6.86,-12.63 0,-3.76 3.08,-6.8 6.86,-6.8l0 0zm0 4.57c-1.26,0 -2.29,1.02 -2.29,2.29 0,1.26 1.03,2.28 2.29,2.28 1.26,0 2.29,-1.02 2.29,-2.28 0,-1.27 -1.03,-2.29 -2.29,-2.29l0 0zm9.14 14.86c0,2.53 -4.09,4.57 -9.14,4.57 -5.05,0 -9.14,-2.04 -9.14,-4.57 0,-1.48 1.39,-2.79 3.55,-3.62l0.73 1.04c-1.23,0.51 -2,1.22 -2,2.01 0,1.58 3.08,2.86 6.86,2.86 3.78,0 6.86,-1.28 6.86,-2.86 0,-0.79 -0.77,-1.5 -2,-2.01l0.73 -1.04c2.16,0.83 3.55,2.14 3.55,3.62z"/>
</svg>
