<?xml version="1.0" encoding="UTF-8"?>
<!DOCTYPE svg PUBLIC "-//W3C//DTD SVG 1.1//EN" "http://www.w3.org/Graphics/SVG/1.1/DTD/svg11.dtd">
<!-- Creator: CorelDRAW 2019 (64 Bit Versão de avaliação) -->
<svg xmlns="http://www.w3.org/2000/svg" xml:space="preserve" width="24px" height="24px" version="1.1" style="shape-rendering:geometricPrecision; text-rendering:geometricPrecision; image-rendering:optimizeQuality; fill-rule:evenodd; clip-rule:evenodd"
viewBox="0 0 24 24"
 xmlns:xlink="http://www.w3.org/1999/xlink">
 <defs>
  <style type="text/css">
   <![CDATA[
    .fil0 {fill:none}
    .fil1 {fill:black}
   ]]>
  </style>
 </defs>
 <g id="Camada_x0020_1">
  <metadata id="CorelCorpID_0Corel-Layer"/>
  <rect class="fil0" width="24" height="24"/>
  <path class="fil1" d="M16.3 10.08c0.67,0.13 1.34,-0.26 1.56,-0.9l1.18 -3.37c0.11,-0.3 -0.22,-0.57 -0.49,-0.41l-0.88 0.51 -2.33 -4.03c-0.29,-0.5 -0.82,-0.8 -1.39,-0.8l-3.58 0c-0.58,0 -1.11,0.3 -1.4,0.8l-2.49 4.33c-0.22,0.38 -0.09,0.86 0.29,1.09l2.7 1.55c0.38,0.22 0.87,0.09 1.09,-0.29l1.6 -2.77 1.43 2.48 -0.89 0.51c-0.27,0.16 -0.2,0.57 0.11,0.63l3.49 0.67zm7.49 7.51c0.29,-0.5 0.28,-1.11 -0.01,-1.61l-2.53 -4.3c-0.22,-0.38 -0.71,-0.51 -1.09,-0.29l-2.69 1.58c-0.38,0.23 -0.51,0.71 -0.28,1.09l1.62 2.76 -2.86 0.02 -0.01 -1.02c0,-0.31 -0.4,-0.46 -0.6,-0.22l-2.31 2.71c-0.44,0.52 -0.44,1.29 0.01,1.8l2.35 2.69c0.21,0.24 0.6,0.09 0.6,-0.22l-0.01 -1.02 4.66 -0.04c0.57,0 1.1,-0.31 1.38,-0.81l1.77 -3.12zm-15.4 -0.73l-3.2 -0.01 1.44 -2.47 0.89 0.51c0.27,0.16 0.59,-0.1 0.49,-0.4l-1.15 -3.37c-0.22,-0.64 -0.89,-1.03 -1.56,-0.91l-3.51 0.65c-0.31,0.06 -0.38,0.47 -0.11,0.63l0.88 0.51 -2.34 4.03c-0.29,0.49 -0.29,1.1 -0.01,1.6l1.78 3.11c0.29,0.5 0.81,0.81 1.39,0.81l4.99 0.02c0.44,0 0.8,-0.35 0.8,-0.79l0.02 -3.12c0,-0.44 -0.36,-0.79 -0.8,-0.8l0 0z"/>
 </g>
</svg>
