<?xml version="1.0" encoding="UTF-8"?>
<!DOCTYPE svg PUBLIC "-//W3C//DTD SVG 1.1//EN" "http://www.w3.org/Graphics/SVG/1.1/DTD/svg11.dtd">
<!-- Creator: CorelDRAW 2019 (64 Bit Versão de avaliação) -->
<svg xmlns="http://www.w3.org/2000/svg" xml:space="preserve" width="6.35mm" height="6.35mm" version="1.1" style="shape-rendering:geometricPrecision; text-rendering:geometricPrecision; image-rendering:optimizeQuality; fill-rule:evenodd; clip-rule:evenodd"
viewBox="0 0 33.05 33.05"
 xmlns:xlink="http://www.w3.org/1999/xlink">
 <defs>
  <style type="text/css">
   <![CDATA[
    .fil1 {fill:none}
    .fil0 {fill:black}
   ]]>
  </style>
 </defs>
 <g id="Camada_x0020_1">
  <metadata id="CorelCorpID_0Corel-Layer"/>
  <g id="_1411238834960">
   <path class="fil0" d="M16.53 19.28c2.29,0 4.12,-1.85 4.12,-4.13l0.01 -8.26c0,-2.29 -1.85,-4.13 -4.13,-4.13 -2.29,0 -4.13,1.85 -4.13,4.13l0 8.26c0,2.29 1.85,4.13 4.13,4.13zm7.3 -4.13c0,4.13 -3.5,7.02 -7.3,7.02 -3.8,0 -7.3,-2.89 -7.3,-7.02l-2.34 0c0,4.7 3.75,8.58 8.26,9.25l0 4.52 2.75 0 0 -4.52c4.52,-0.66 8.26,-4.54 8.26,-9.25l-2.34 -0z"/>
   <polygon class="fil1" points="-0,0 33.05,0 33.05,33.05 -0,33.05 "/>
  </g>
  <rect class="fil1" width="33.05" height="33.05"/>
 </g>
</svg>
