<svg xmlns="http://www.w3.org/2000/svg" viewBox="0 0 24 24">
   <path d="M18 11l-3.18 0c-0.42,-1.16 -1.52,-2 -2.82,-2 -1.3,0 -2.4,0.84 -2.82,2l-3.18 0c-0.33,0 -2,-0.1 -2,-2l0 -1c0,-1.83 1.54,-2 2,-2l10.18 0c0.42,1.16 1.52,2 2.82,2 1.66,0 3,-1.34 3,-3 0,-1.66 -1.34,-3 -3,-3 -1.3,0 -2.4,0.84 -2.82,2l-10.18 0c-1.61,0 -4,1.06 -4,4l0 1c0,2.94 2.39,4 4,4l3.18 0c0.42,1.16 1.52,2 2.82,2 1.3,0 2.4,-0.84 2.82,-2l3.18 0c0.33,0 2,0.1 2,2l0 1c0,1.83 -1.54,2 -2,2l-10.18 0c-0.42,-1.16 -1.52,-2 -2.82,-2 -1.66,0 -3,1.34 -3,3 0,1.66 1.34,3 3,3 1.3,0 2.4,-0.84 2.82,-2l10.18 0c1.61,0 4,-1.07 4,-4l0 -1c0,-2.93 -2.39,-4 -4,-4l0 0zm1 -7c0.55,0 1,0.45 1,1 0,0.55 -0.45,1 -1,1 -0.55,0 -1,-0.45 -1,-1 0,-0.55 0.45,-1 1,-1l0 0zm-14 16c-0.55,0 -1,-0.45 -1,-1 0,-0.55 0.45,-1 1,-1 0.55,0 1,0.45 1,1 0,0.55 -0.45,1 -1,1z"/>
</svg>
