<?xml version="1.0" encoding="UTF-8"?>
<!DOCTYPE svg PUBLIC "-//W3C//DTD SVG 1.1//EN" "http://www.w3.org/Graphics/SVG/1.1/DTD/svg11.dtd">
<!-- Creator: CorelDRAW 2019 (64 Bit Versão de avaliação) -->
<svg xmlns="http://www.w3.org/2000/svg" xml:space="preserve" width="24px" height="24px" version="1.1" style="shape-rendering:geometricPrecision; text-rendering:geometricPrecision; image-rendering:optimizeQuality; fill-rule:evenodd; clip-rule:evenodd"
viewBox="0 0 24 24"
 xmlns:xlink="http://www.w3.org/1999/xlink">
 <defs>
  <style type="text/css">
   <![CDATA[
    .fil0 {fill:none}
    .fil1 {fill:black}
   ]]>
  </style>
 </defs>
 <g id="Camada_x0020_1">
  <metadata id="CorelCorpID_0Corel-Layer"/>
  <rect class="fil0" width="24" height="24"/>
  <g>
   <path class="fil1" d="M14.4 0l7.2 7.2 0 14.4c0,1.32 -1.08,2.4 -2.4,2.4l-14.4 0c-1.32,0 -2.4,-1.08 -2.4,-2.4l0 -19.2c0,-1.32 1.08,-2.4 2.4,-2.4l9.6 0 0 0zm4.8 21.6l0 -13.2 -6 0 0 -6 -8.4 0 0 19.2 14.4 0 0 0zm-7.2 -9.6l4.8 4.8 -3 0 0 3.6 -3.6 0 0 -3.6 -3 0 4.8 -4.8z"/>
  </g>
 </g>
</svg>
