<?xml version="1.0" encoding="UTF-8"?>
<!DOCTYPE svg PUBLIC "-//W3C//DTD SVG 1.1//EN" "http://www.w3.org/Graphics/SVG/1.1/DTD/svg11.dtd">
<!-- Creator: CorelDRAW 2019 (64 Bit Versão de avaliação) -->
<svg xmlns="http://www.w3.org/2000/svg" xml:space="preserve" width="24px" height="24px" version="1.1" style="shape-rendering:geometricPrecision; text-rendering:geometricPrecision; image-rendering:optimizeQuality; fill-rule:evenodd; clip-rule:evenodd"
viewBox="0 0 24 24"
 xmlns:xlink="http://www.w3.org/1999/xlink">
 <defs>
  <style type="text/css">
   <![CDATA[
    .fil0 {fill:none}
    .fil1 {fill:black}
   ]]>
  </style>
 </defs>
 <g id="Camada_x0020_1">
  <metadata id="CorelCorpID_0Corel-Layer"/>
  <path class="fil0" d="M0 0l24 0 0 24 -24 0 0 -24z"/>
  <path class="fil1" d="M19.23 16.97c-0.91,0 -1.73,0.36 -2.36,0.93l-8.6 -5c0.06,-0.28 0.11,-0.56 0.11,-0.85 0,-0.29 -0.05,-0.56 -0.11,-0.84l8.5 -4.95c0.66,0.6 1.51,0.97 2.46,0.97 2,0 3.62,-1.61 3.62,-3.62 0,-2 -1.62,-3.61 -3.62,-3.61 -2,0 -3.61,1.61 -3.61,3.61 0,0.29 0.05,0.57 0.11,0.85l-8.5 4.95c-0.66,-0.6 -1.51,-0.97 -2.46,-0.97 -2,0 -3.62,1.61 -3.62,3.61 0,2.01 1.62,3.62 3.62,3.62 0.95,0 1.8,-0.37 2.46,-0.98l8.58 5.01c-0.06,0.25 -0.1,0.52 -0.1,0.79 0,1.94 1.58,3.51 3.52,3.51 1.94,0 3.52,-1.57 3.52,-3.51 0,-1.94 -1.58,-3.52 -3.52,-3.52z"/>
 </g>
</svg>
