<svg xmlns="http://www.w3.org/2000/svg" viewBox="0 0 24 24">
  <path d="M11.43 4.07l-1.58 -0.38 -4.89 3.01 -0.38 1.58 -3.43 2.1 1.21 1.96 13.7 -8.41 -1.2 -1.96 -3.43 2.1zm-2.69 17.63c0,1.27 1.03,2.3 2.29,2.3l9.19 0c1.27,0 2.3,-1.03 2.3,-2.3l0 -13.78 -10.44 0 -3.34 2.08 0 11.7zm12.72 -19.28l-1.43 -0.64c-0.64,0.27 -2.15,0.97 -2.39,1.51 -0.42,0.93 0.21,2.13 1.39,2.66 1.19,0.52 2.49,0.19 2.91,-0.74 0.24,-0.55 -0.25,-2.14 -0.48,-2.79zm1.37 -1.11c-0.01,-0.05 -0.05,-0.12 -0.16,-0.17 -0.23,-0.1 -0.69,-0.04 -0.91,0 -0.05,-0.25 -0.14,-0.56 -0.3,-0.63 -0.17,-0.07 -0.46,0.07 -0.67,0.2 -0.12,-0.2 -0.39,-0.58 -0.61,-0.68 -0.11,-0.05 -0.19,-0.03 -0.24,-0.01 -0.07,0.04 -0.13,0.1 -0.16,0.19 -0.11,0.31 0.14,0.94 0.31,1.32l1.52 0.68c0.4,-0.13 1.03,-0.37 1.19,-0.65 0.05,-0.09 0.06,-0.17 0.03,-0.25zm-11.8 8.91l9.19 0 0 11.48 -9.19 0 0 -11.48zm2.7 8.9l-0.76 -0.39c-0.35,0.12 -1.2,0.45 -1.35,0.73 -0.26,0.5 0.04,1.17 0.67,1.49 0.62,0.33 1.34,0.2 1.6,-0.3 0.15,-0.28 -0.07,-1.16 -0.16,-1.53zm0.78 -0.55c-0.01,-0.03 -0.03,-0.07 -0.08,-0.1 -0.12,-0.06 -0.38,-0.05 -0.5,-0.03 -0.02,-0.14 -0.06,-0.31 -0.14,-0.35 -0.09,-0.05 -0.25,0.02 -0.37,0.08 -0.06,-0.11 -0.19,-0.33 -0.31,-0.39 -0.06,-0.03 -0.1,-0.02 -0.12,-0.01 -0.05,0.02 -0.08,0.05 -0.1,0.1 -0.07,0.16 0.04,0.51 0.12,0.72l0.8 0.43c0.23,-0.06 0.58,-0.17 0.67,-0.32 0.03,-0.04 0.04,-0.09 0.03,-0.13zm2.68 -3.47c-0.05,-0.02 -0.12,-0.04 -0.23,0.01 -0.22,0.11 -0.48,0.5 -0.59,0.69 -0.22,-0.12 -0.51,-0.25 -0.67,-0.17 -0.17,0.08 -0.25,0.39 -0.29,0.63 -0.23,-0.03 -0.69,-0.08 -0.91,0.03 -0.1,0.05 -0.14,0.12 -0.16,0.17 -0.02,0.08 -0.01,0.17 0.04,0.25 0.17,0.28 0.8,0.5 1.21,0.62l1.5 -0.72c0.16,-0.39 0.39,-1.02 0.27,-1.33 -0.03,-0.09 -0.09,-0.15 -0.17,-0.18zm-0.04 1.76l-1.41 0.67c-0.21,0.67 -0.66,2.27 -0.41,2.81 0.45,0.92 1.76,1.21 2.93,0.66 1.17,-0.56 1.77,-1.77 1.32,-2.7 -0.25,-0.53 -1.78,-1.19 -2.43,-1.44zm-4.59 3.56l-0.18 -0.1 0.38 -0.65c-0.09,0.02 -0.19,0.02 -0.29,0l0.09 -0.16c0.05,0.02 0.12,0.02 0.19,0.01 0.08,-0.01 0.14,-0.04 0.19,-0.08l0.14 0.08 -0.52 0.9zm5.53 -1.19l0.12 0.24 -0.93 0.45c-0.04,-0.1 -0.05,-0.2 -0.04,-0.31 0.01,-0.1 0.06,-0.26 0.14,-0.47 0.07,-0.17 0.1,-0.28 0.11,-0.33 0.01,-0.08 0,-0.14 -0.02,-0.19 -0.03,-0.06 -0.07,-0.1 -0.12,-0.12 -0.04,-0.01 -0.09,-0.01 -0.15,0.02 -0.06,0.03 -0.09,0.06 -0.11,0.11 -0.02,0.05 -0.01,0.12 0.03,0.2l-0.28 0.1c-0.06,-0.16 -0.06,-0.29 -0.01,-0.39 0.06,-0.1 0.15,-0.19 0.27,-0.24 0.14,-0.07 0.26,-0.08 0.37,-0.05 0.12,0.04 0.2,0.11 0.25,0.22 0.03,0.06 0.05,0.13 0.06,0.2 0,0.06 -0.01,0.14 -0.02,0.22 -0.02,0.06 -0.05,0.15 -0.09,0.26 -0.05,0.12 -0.08,0.2 -0.09,0.23 -0.01,0.04 -0.02,0.07 -0.02,0.1l0.53 -0.25zm1.08 -15.13l0.28 0.08c-0.02,0.07 -0.03,0.13 -0.01,0.19 0.03,0.04 0.06,0.08 0.11,0.11 0.06,0.02 0.11,0.02 0.17,-0.01 0.06,-0.02 0.1,-0.07 0.13,-0.14 0.03,-0.07 0.04,-0.13 0.02,-0.19 -0.02,-0.05 -0.05,-0.09 -0.11,-0.11 -0.03,-0.02 -0.07,-0.03 -0.13,-0.04l0.13 -0.2c0.07,0.03 0.13,0.04 0.19,0.02 0.05,-0.01 0.09,-0.05 0.11,-0.1 0.02,-0.05 0.03,-0.1 0.01,-0.14 -0.02,-0.04 -0.04,-0.07 -0.09,-0.09 -0.05,-0.02 -0.09,-0.02 -0.14,0 -0.05,0.01 -0.09,0.05 -0.12,0.11l-0.23 -0.15c0.06,-0.08 0.11,-0.14 0.17,-0.17 0.06,-0.04 0.12,-0.06 0.2,-0.06 0.07,0 0.15,0.02 0.23,0.05 0.13,0.06 0.21,0.15 0.26,0.27 0.03,0.1 0.03,0.19 -0.01,0.28 -0.05,0.12 -0.17,0.19 -0.33,0.2 0.07,0.06 0.12,0.12 0.14,0.21 0.02,0.07 0.01,0.16 -0.03,0.24 -0.05,0.13 -0.14,0.21 -0.27,0.26 -0.13,0.05 -0.26,0.04 -0.4,-0.02 -0.12,-0.06 -0.21,-0.14 -0.26,-0.25 -0.05,-0.11 -0.06,-0.23 -0.02,-0.35z"/>
</svg>
