<svg xmlns="http://www.w3.org/2000/svg" viewBox="0 0 24 24">
	<path d="M16.67 1.33l-1.34 -1.33 -6.66 0 -1.34 1.33 -4.66 0 0 2.67 18.66 0 0 -2.67 -4.66 0zm-10 6.67l10.66 0 0 13.33 -10.66 0 0 -13.33zm-2.67 13.33c0,1.47 1.2,2.67 2.67,2.67l10.66 0c1.47,0 2.67,-1.2 2.67,-2.67l0 -16 -16 0 0 16zm9.36 -7.48c0.21,0.04 0.43,-0.08 0.5,-0.29l0.38 -1.09c0.04,-0.09 -0.07,-0.18 -0.16,-0.13l-0.28 0.16 -0.75 -1.29c-0.09,-0.16 -0.27,-0.26 -0.45,-0.26l-1.15 0c-0.19,0 -0.36,0.1 -0.45,0.26l-0.81 1.39c-0.07,0.12 -0.03,0.28 0.1,0.35l0.87 0.5c0.12,0.07 0.28,0.03 0.35,-0.09l0.51 -0.89 0.46 0.79 -0.28 0.17c-0.09,0.05 -0.07,0.18 0.03,0.2l1.13 0.22zm2.41 2.42c0.09,-0.16 0.09,-0.36 0,-0.52l-0.82 -1.39c-0.07,-0.12 -0.23,-0.16 -0.35,-0.09l-0.86 0.51c-0.13,0.07 -0.17,0.23 -0.1,0.35l0.53 0.89 -0.93 0.01 0 -0.33c0,-0.1 -0.13,-0.15 -0.19,-0.07l-0.75 0.87c-0.14,0.17 -0.14,0.42 0.01,0.58l0.75 0.87c0.07,0.07 0.2,0.03 0.2,-0.08l0 -0.32 1.49 -0.02c0.19,0 0.36,-0.1 0.45,-0.26l0.57 -1zm-4.96 -0.24l-1.03 0 0.46 -0.8 0.29 0.17c0.09,0.05 0.19,-0.04 0.16,-0.13l-0.37 -1.09c-0.08,-0.2 -0.29,-0.33 -0.51,-0.29l-1.13 0.21c-0.1,0.02 -0.12,0.15 -0.03,0.2l0.28 0.17 -0.75 1.29c-0.1,0.16 -0.1,0.36 -0.01,0.52l0.58 1c0.09,0.16 0.26,0.26 0.44,0.26l1.61 0.01c0.15,0 0.26,-0.11 0.26,-0.25l0.01 -1.01c0,-0.14 -0.12,-0.26 -0.26,-0.26l0 0z"/>
</svg>
