<?xml version="1.0" encoding="UTF-8"?>
<!DOCTYPE svg PUBLIC "-//W3C//DTD SVG 1.1//EN" "http://www.w3.org/Graphics/SVG/1.1/DTD/svg11.dtd">
<!-- Creator: CorelDRAW 2019 (64 Bit Versão de avaliação) -->
<svg xmlns="http://www.w3.org/2000/svg" xml:space="preserve" width="6.35mm" height="6.35mm" version="1.1" style="shape-rendering:geometricPrecision; text-rendering:geometricPrecision; image-rendering:optimizeQuality; fill-rule:evenodd; clip-rule:evenodd"
viewBox="0 0 12.94 12.94"
 xmlns:xlink="http://www.w3.org/1999/xlink">
 <defs>
  <style type="text/css">
   <![CDATA[
    .fil1 {fill:none}
    .fil0 {fill:black}
   ]]>
  </style>
 </defs>
 <g id="Camada_x0020_1">
  <metadata id="CorelCorpID_0Corel-Layer"/>
  <g>
   <path class="fil0" d="M4.85 5.93l0 1.08 -1.08 0 0 -1.08 1.08 0 0 0zm2.16 0l0 1.08 -1.08 0 0 -1.08 1.08 0 0 0zm2.16 0l0 1.08 -1.08 0 0 -1.08 1.08 0 0 0zm1.08 -3.77c0.59,0 1.08,0.49 1.08,1.08l0 7.55c0,0.59 -0.49,1.08 -1.08,1.08l-7.55 0c-0.6,0 -1.08,-0.49 -1.08,-1.08l0 -7.55c0,-0.59 0.49,-1.08 1.08,-1.08l0.54 0 0 -1.08 1.08 0 0 1.08 4.31 0 0 -1.08 1.08 0 0 1.08 0.54 0 0 0zm0 8.63l0 -5.93 -7.55 0 0 5.93 7.55 0 0 0zm-5.39 -2.7l0 1.08 -1.08 0 0 -1.08 1.08 0 0 0zm2.16 0l0 1.08 -1.08 0 0 -1.08 1.08 0 0 0zm2.16 0l0 1.08 -1.08 0 0 -1.08 1.08 0z"/>
  </g>
  <polygon class="fil1" points="-0,0 12.94,0 12.94,12.94 -0,12.94 "/>
 </g>
</svg>
