<?xml version="1.0" encoding="UTF-8"?>
<!DOCTYPE svg PUBLIC "-//W3C//DTD SVG 1.1//EN" "http://www.w3.org/Graphics/SVG/1.1/DTD/svg11.dtd">
<!-- Creator: CorelDRAW 2019 (64 Bit Versão de avaliação) -->
<svg xmlns="http://www.w3.org/2000/svg" xml:space="preserve" width="6.35mm" height="6.35mm" version="1.1" style="shape-rendering:geometricPrecision; text-rendering:geometricPrecision; image-rendering:optimizeQuality; fill-rule:evenodd; clip-rule:evenodd"
viewBox="0 0 146.25 146.25"
 xmlns:xlink="http://www.w3.org/1999/xlink">
 <defs>
  <style type="text/css">
   <![CDATA[
    .fil0 {fill:none}
    .fil1 {fill:black}
   ]]>
  </style>
 </defs>
 <g id="Camada_x0020_1">
  <metadata id="CorelCorpID_0Corel-Layer"/>
  <rect class="fil0" width="146.25" height="146.25"/>
  <path class="fil1" d="M121.88 48.75l-18.28 0 0 -24.38 -85.31 0c-6.7,0 -12.19,5.48 -12.19,12.19l0 67.03 12.19 0c0,10.12 8.16,18.28 18.28,18.28 10.12,0 18.28,-8.16 18.28,-18.28l36.56 0c0,10.12 8.16,18.28 18.28,18.28 10.12,0 18.28,-8.16 18.28,-18.28l12.18 0 0 -30.47 -18.28 -24.37 0 0zm-3.05 9.14l11.94 15.24 -27.18 0 0 -15.24 15.24 0zm-82.27 51.8c-3.35,0 -6.09,-2.74 -6.09,-6.09 0,-3.35 2.74,-6.09 6.09,-6.09 3.35,0 6.09,2.74 6.09,6.09 0,3.35 -2.74,6.09 -6.09,6.09zm13.53 -18.28c-3.35,-3.72 -8.1,-6.09 -13.53,-6.09 -5.42,0 -10.18,2.38 -13.53,6.09l-4.75 0 0 -54.85 73.13 0 0 54.85 -41.32 0zm59.6 18.28c-3.35,0 -6.09,-2.74 -6.09,-6.09 0,-3.35 2.74,-6.09 6.09,-6.09 3.35,0 6.09,2.74 6.09,6.09 0,3.35 -2.74,6.09 -6.09,6.09z"/>
 </g>
</svg>
