<?xml version="1.0" encoding="UTF-8"?>
<!DOCTYPE svg PUBLIC "-//W3C//DTD SVG 1.1//EN" "http://www.w3.org/Graphics/SVG/1.1/DTD/svg11.dtd">
<!-- Creator: CorelDRAW 2019 (64 Bit Versão de avaliação) -->
<svg xmlns="http://www.w3.org/2000/svg" xml:space="preserve" width="6.35mm" height="6.35mm" version="1.1" style="shape-rendering:geometricPrecision; text-rendering:geometricPrecision; image-rendering:optimizeQuality; fill-rule:evenodd; clip-rule:evenodd"
viewBox="0 0 33.05 33.05"
 xmlns:xlink="http://www.w3.org/1999/xlink">
 <defs>
  <style type="text/css">
   <![CDATA[
    .fil1 {fill:none}
    .fil0 {fill:black}
   ]]>
  </style>
 </defs>
 <g id="Camada_x0020_1">
  <metadata id="CorelCorpID_0Corel-Layer"/>
  <g>
   <path class="fil0" d="M22.28 26.99l-2.77 -4.79c1.35,-0.99 2.29,-2.53 2.48,-4.3l5.55 0c-0.23,3.8 -2.27,7.11 -5.26,9.09l0 0zm-4.38 -17.31l0 -5.55c5.92,0.36 10.66,5.1 11.02,11.02l-5.55 0c-0.32,-2.88 -2.59,-5.15 -5.47,-5.47l0 0zm-8.26 7.53c0,0.88 0.18,1.72 0.52,2.48l-4.79 2.77c-0.8,-1.58 -1.24,-3.36 -1.24,-5.25 0,-6.24 4.88,-11.33 11.02,-11.71l0 5.55c-3.1,0.34 -5.51,2.96 -5.51,6.16l0 0zm6.2 11.71c-4.09,0 -7.68,-2.07 -9.78,-5.26l4.79 -2.77c1.13,1.53 2.92,2.52 4.99,2.52 0.88,0 1.72,-0.18 2.48,-0.52l2.77 4.79c-1.58,0.8 -3.36,1.24 -5.25,1.24z"/>
  </g>
  <rect class="fil1" width="33.05" height="33.05"/>
  <rect class="fil1" width="33.05" height="33.05"/>
 </g>
</svg>
