<?xml version="1.0" encoding="UTF-8"?>
<!DOCTYPE svg PUBLIC "-//W3C//DTD SVG 1.1//EN" "http://www.w3.org/Graphics/SVG/1.1/DTD/svg11.dtd">
<!-- Creator: CorelDRAW 2019 (64 Bit Versão de avaliação) -->
<svg xmlns="http://www.w3.org/2000/svg" xml:space="preserve" width="6.35mm" height="6.35mm" version="1.1" style="shape-rendering:geometricPrecision; text-rendering:geometricPrecision; image-rendering:optimizeQuality; fill-rule:evenodd; clip-rule:evenodd"
viewBox="0 0 18.89 18.89"
 xmlns:xlink="http://www.w3.org/1999/xlink">
 <defs>
  <style type="text/css">
   <![CDATA[
    .fil1 {fill:none}
    .fil0 {fill:black}
   ]]>
  </style>
 </defs>
 <g id="Camada_x0020_1">
  <metadata id="CorelCorpID_0Corel-Layer"/>
  <g>
   <path class="fil0" d="M11.02 1.57l-6.3 0c-0.87,0 -1.57,0.71 -1.57,1.57l0 12.59c0,0.87 0.7,1.57 1.57,1.57l9.45 0c0.87,0 1.57,-0.7 1.57,-1.57l0 -9.45 -4.72 -4.72 0 0zm3.15 14.17l-9.45 0 0 -12.59 5.51 0 0 3.94 3.94 0 0 8.66 0 0zm-4.01 -4.33l2.28 3.54 -1.42 0 -1.57 -2.68 -1.57 2.68 -1.42 0 2.28 -3.54 -2.28 -3.54 1.42 0 1.57 2.68 1.57 -2.68 1.42 0 -2.28 3.54z"/>
  </g>
  <polygon class="fil1" points="-0,0 18.89,0 18.89,18.89 -0,18.89 "/>
 </g>
</svg>
