<?xml version="1.0" encoding="UTF-8"?>
<!DOCTYPE svg PUBLIC "-//W3C//DTD SVG 1.1//EN" "http://www.w3.org/Graphics/SVG/1.1/DTD/svg11.dtd">
<!-- Creator: CorelDRAW 2019 (64 Bit Versão de avaliação) -->
<svg xmlns="http://www.w3.org/2000/svg" xml:space="preserve" width="24px" height="24px" version="1.1" style="shape-rendering:geometricPrecision; text-rendering:geometricPrecision; image-rendering:optimizeQuality; fill-rule:evenodd; clip-rule:evenodd"
viewBox="0 0 24 24"
 xmlns:xlink="http://www.w3.org/1999/xlink">
 <defs>
  <style type="text/css">
   <![CDATA[
    .fil0 {fill:none}
    .fil1 {fill:black}
   ]]>
  </style>
 </defs>
 <g id="Camada_x0020_1">
  <metadata id="CorelCorpID_0Corel-Layer"/>
  <rect class="fil0" width="24" height="24"/>
  <g>
   <path class="fil1" d="M14.18 13.09l1.64 0 0 3.08 2.66 1.54 -0.82 1.41 -3.48 -2 0 -4.03 0 0zm4.37 -5.45l-15.28 0 0 12 5.1 0c-0.47,-1 -0.73,-2.11 -0.73,-3.28 0,-4.22 3.41,-7.63 7.63,-7.63 1.17,0 2.28,0.26 3.28,0.73l0 -1.82 0 0zm-15.28 14.18c-1.21,0 -2.18,-0.98 -2.18,-2.18l0 -15.28c0,-1.21 0.97,-2.18 2.18,-2.18l1.09 0 0 -2.18 2.19 0 0 2.18 8.72 0 0 -2.18 2.18 0 0 2.18 1.1 0c1.2,0 2.18,0.98 2.18,2.18l0 6.66c1.35,1.37 2.18,3.26 2.18,5.34 0,4.23 -3.41,7.64 -7.64,7.64 -2.08,0 -3.97,-0.83 -5.34,-2.18l-6.66 0 0 0zm12 -10.75c-2.92,0 -5.29,2.37 -5.29,5.29 0,2.93 2.37,5.3 5.29,5.3 2.93,0 5.3,-2.37 5.3,-5.3 0,-2.92 -2.37,-5.29 -5.3,-5.29z"/>
  </g>
 </g>
</svg>
