<?xml version="1.0" encoding="UTF-8"?>
<!DOCTYPE svg PUBLIC "-//W3C//DTD SVG 1.1//EN" "http://www.w3.org/Graphics/SVG/1.1/DTD/svg11.dtd">
<!-- Creator: CorelDRAW 2019 (64 Bit Versão de avaliação) -->
<svg xmlns="http://www.w3.org/2000/svg" xml:space="preserve" width="6.35mm" height="6.35mm" version="1.1" style="shape-rendering:geometricPrecision; text-rendering:geometricPrecision; image-rendering:optimizeQuality; fill-rule:evenodd; clip-rule:evenodd"
viewBox="0 0 33.05 33.05"
 xmlns:xlink="http://www.w3.org/1999/xlink">
 <defs>
  <style type="text/css">
   <![CDATA[
    .fil0 {fill:none}
    .fil1 {fill:black}
   ]]>
  </style>
 </defs>
 <g id="Camada_x0020_1">
  <metadata id="CorelCorpID_0Corel-Layer"/>
  <g id="_1410916737664">
   <polygon class="fil0" points="-0,0 33.05,0 33.05,33.05 -0,33.05 "/>
   <path class="fil1" d="M15.15 9.64l2.75 0 0 2.75 -2.75 -0 0 -2.75zm0 5.51l2.75 0 0 8.26 -2.75 0 0 -8.26zm1.38 -12.39c-7.6,0 -13.77,6.17 -13.77,13.77 0,7.6 6.17,13.77 13.77,13.77 7.6,0 13.77,-6.17 13.77,-13.77 0,-7.6 -6.17,-13.77 -13.77,-13.77zm0 24.79c-6.07,0 -11.02,-4.94 -11.02,-11.02 0,-6.07 4.94,-11.02 11.02,-11.02 6.07,0 11.02,4.94 11.02,11.02 0,6.07 -4.94,11.02 -11.02,11.02z"/>
  </g>
 </g>
</svg>
