<?xml version="1.0" encoding="UTF-8"?>
<!DOCTYPE svg PUBLIC "-//W3C//DTD SVG 1.1//EN" "http://www.w3.org/Graphics/SVG/1.1/DTD/svg11.dtd">
<!-- Creator: CorelDRAW 2019 (64 Bit Versão de avaliação) -->
<svg xmlns="http://www.w3.org/2000/svg" xml:space="preserve" width="6.35mm" height="6.35mm" version="1.1" style="shape-rendering:geometricPrecision; text-rendering:geometricPrecision; image-rendering:optimizeQuality; fill-rule:evenodd; clip-rule:evenodd"
viewBox="0 0 148.42 148.42"
 xmlns:xlink="http://www.w3.org/1999/xlink"
 enable-background="new 0 0 511.998 511.998">
 <defs>
  <style type="text/css">
   <![CDATA[
    .fil0 {fill:none}
    .fil1 {fill:black}
   ]]>
  </style>
 </defs>
 <g id="Camada_x0020_1">
  <metadata id="CorelCorpID_0Corel-Layer"/>
  <rect class="fil0" width="148.42" height="148.42"/>
  <polygon class="fil1" points="86.58,55.66 92.76,55.66 92.76,18.55 43.29,18.55 43.29,49.47 12.37,49.47 12.37,129.87 18.55,129.87 18.55,55.66 49.47,55.66 49.47,24.74 86.58,24.74 "/>
  <rect class="fil1" x="30.92" y="68.02" width="12.37" height="12.37"/>
  <rect class="fil1" x="61.84" y="30.92" width="12.37" height="12.37"/>
  <rect class="fil1" x="30.92" y="92.76" width="12.37" height="12.37"/>
  <rect class="fil1" x="30.92" y="117.5" width="12.37" height="12.37"/>
  <g id="_1411238840208">
   <path class="fil1" d="M101.57 92.07c2.15,0.41 4.29,-0.81 5.01,-2.88l3.78 -10.8c0.34,-0.96 -0.7,-1.82 -1.58,-1.31l-2.83 1.63 -7.47 -12.93c-0.92,-1.59 -2.62,-2.58 -4.46,-2.58l-11.49 0c-1.84,0 -3.54,0.98 -4.46,2.58l-8.01 13.88c-0.71,1.22 -0.29,2.78 0.93,3.49l8.66 5c1.22,0.7 2.79,0.29 3.49,-0.94l5.13 -8.89 4.59 7.95 -2.84 1.64c-0.88,0.51 -0.65,1.83 0.34,2.02l11.2 2.15z"/>
   <path class="fil1" d="M125.59 116.16c0.91,-1.6 0.89,-3.56 -0.04,-5.15l-8.12 -13.81c-0.71,-1.22 -2.28,-1.62 -3.5,-0.91l-8.62 5.06c-1.22,0.72 -1.62,2.28 -0.91,3.5l5.2 8.85 -9.17 0.07 -0.03 -3.28c-0.01,-1.01 -1.27,-1.47 -1.93,-0.7l-7.4 8.69c-1.42,1.67 -1.41,4.13 0.04,5.78l7.53 8.62c0.67,0.76 1.93,0.29 1.92,-0.73l-0.02 -3.27 14.93 -0.11c1.84,-0.01 3.53,-1.01 4.44,-2.61l5.67 -10z"/>
   <path class="fil1" d="M76.21 113.83l-10.27 -0.04 4.62 -7.93 2.84 1.65c0.87,0.51 1.91,-0.34 1.58,-1.3l-3.7 -10.79c-0.71,-2.08 -2.83,-3.32 -4.99,-2.92l-11.26 2.08c-1,0.18 -1.23,1.51 -0.35,2.02l2.83 1.65 -7.52 12.9c-0.93,1.59 -0.94,3.55 -0.02,5.15l5.71 9.98c0.91,1.6 2.61,2.59 4.45,2.59l16.02 0.07c1.41,0 2.56,-1.13 2.57,-2.54l0.04 -10c0.01,-1.41 -1.13,-2.56 -2.54,-2.57l0 0z"/>
  </g>
  <polygon class="fil0" points="-0,0 148.42,0 148.42,148.42 -0,148.42 "/>
 </g>
</svg>
