<?xml version="1.0" encoding="UTF-8"?>
<!DOCTYPE svg PUBLIC "-//W3C//DTD SVG 1.1//EN" "http://www.w3.org/Graphics/SVG/1.1/DTD/svg11.dtd">
<!-- Creator: CorelDRAW 2019 (64 Bit Versão de avaliação) -->
<svg xmlns="http://www.w3.org/2000/svg" xml:space="preserve" width="24px" height="24px" version="1.1" style="shape-rendering:geometricPrecision; text-rendering:geometricPrecision; image-rendering:optimizeQuality; fill-rule:evenodd; clip-rule:evenodd"
viewBox="0 0 24 24"
 xmlns:xlink="http://www.w3.org/1999/xlink">
 <defs>
  <style type="text/css">
   <![CDATA[
    .fil0 {fill:none}
    .fil1 {fill:black}
   ]]>
  </style>
 </defs>
 <g id="Camada_x0020_1">
  <metadata id="CorelCorpID_0Corel-Layer"/>
  <rect class="fil0" width="24" height="24"/>
  <g>
   <path class="fil1" d="M7.75 15.07l-1.69 1.69 -1.65 -1.64c-1.03,1.33 -1.72,2.93 -1.94,4.68l2.33 0 0 2.4 -4.8 0 0 -1.2c0,-5.81 4.13,-10.64 9.6,-11.76l0 -2.4 -9.6 -3.84 0 -2.4 24 0 0 2.4 -9.6 3.84 0 2.4c5.47,1.12 9.6,5.95 9.6,11.76l0 1.2 -4.8 0 0 -2.4 2.33 0c-0.22,-1.75 -0.91,-3.35 -1.95,-4.68l-1.64 1.64 -1.69 -1.69 1.64 -1.65c-1.33,-1.04 -2.94,-1.73 -4.69,-1.95l0 2.33 -2.4 0 0 -2.33c-1.75,0.22 -3.36,0.91 -4.69,1.95l1.64 1.65 0 0zm4.25 3.53c1.32,0 2.4,1.08 2.4,2.4 0,1.32 -1.08,2.4 -2.4,2.4 -0.39,0 -0.74,-0.08 -1.06,-0.25l-4.62 -2.15 4.62 -2.15c0.32,-0.17 0.67,-0.25 1.06,-0.25z"/>
  </g>
 </g>
</svg>
