<?xml version="1.0" encoding="UTF-8"?>
<!DOCTYPE svg PUBLIC "-//W3C//DTD SVG 1.1//EN" "http://www.w3.org/Graphics/SVG/1.1/DTD/svg11.dtd">
<!-- Creator: CorelDRAW 2019 (64 Bit Versão de avaliação) -->
<svg xmlns="http://www.w3.org/2000/svg" xml:space="preserve" width="24px" height="24px" version="1.1" style="shape-rendering:geometricPrecision; text-rendering:geometricPrecision; image-rendering:optimizeQuality; fill-rule:evenodd; clip-rule:evenodd"
viewBox="0 0 24 24"
 xmlns:xlink="http://www.w3.org/1999/xlink">
 <defs>
  <style type="text/css">
   <![CDATA[
    .fil0 {fill:none}
    .fil1 {fill:black}
   ]]>
  </style>
 </defs>
 <g id="Camada_x0020_1">
  <metadata id="CorelCorpID_0Corel-Layer"/>
  <path class="fil0" d="M0 0l24 0 0 24 -24 0 0 -24z"/>
  <path class="fil1" d="M12 6l0 -4.79 -11.99 0 0 21.58 23.98 0 0 -16.79 -11.99 0zm-7.19 14.39l-2.4 0 0 -2.39 2.4 0 0 2.39zm0 -4.79l-2.4 0 0 -2.4 2.4 0 0 2.4zm0 -4.8l-2.4 0 0 -2.4 2.4 0 0 2.4zm0 -4.8l-2.4 0 0 -2.39 2.4 0 0 2.39zm4.79 14.39l-2.4 0 0 -2.39 2.4 0 0 2.39zm0 -4.79l-2.4 0 0 -2.4 2.4 0 0 2.4zm0 -4.8l-2.4 0 0 -2.4 2.4 0 0 2.4zm0 -4.8l-2.4 0 0 -2.39 2.4 0 0 2.39zm11.99 14.39l-9.59 0 0 -2.39 2.4 0 0 -2.4 -2.4 0 0 -2.4 2.4 0 0 -2.4 -2.4 0 0 -2.4 9.59 0 0 11.99 0 0zm-2.39 -9.59l-2.4 0 0 2.4 2.4 0 0 -2.4zm0 4.8l-2.4 0 0 2.4 2.4 0 0 -2.4 0 0z"/>
 </g>
</svg>
