<?xml version="1.0" encoding="UTF-8"?>
<!DOCTYPE svg PUBLIC "-//W3C//DTD SVG 1.1//EN" "http://www.w3.org/Graphics/SVG/1.1/DTD/svg11.dtd">
<!-- Creator: CorelDRAW 2019 (64 Bit Versão de avaliação) -->
<svg xmlns="http://www.w3.org/2000/svg" xml:space="preserve" width="24px" height="24px" version="1.1" style="shape-rendering:geometricPrecision; text-rendering:geometricPrecision; image-rendering:optimizeQuality; fill-rule:evenodd; clip-rule:evenodd"
viewBox="0 0 24 24"
 xmlns:xlink="http://www.w3.org/1999/xlink">
 <defs>
  <style type="text/css">
   <![CDATA[
    .fil0 {fill:none}
    .fil1 {fill:black}
   ]]>
  </style>
 </defs>
 <g id="Camada_x0020_1">
  <metadata id="CorelCorpID_0Corel-Layer"/>
  <path class="fil0" d="M0 0l24 0 0 24 -24 0 0 -24z"/>
  <path class="fil0" d="M0 0l24 0 0 24 -24 0 0 -24z"/>
  <g>
   <path class="fil1" d="M16 22.5c0.05,0.4 -0.08,0.83 -0.39,1.11 -0.52,0.52 -1.36,0.52 -1.88,0l-5.34 -5.35c-0.31,-0.3 -0.44,-0.72 -0.39,-1.1l0 -6.83 -6.39 -8.17c-0.45,-0.57 -0.34,-1.41 0.23,-1.87 0.25,-0.18 0.53,-0.29 0.83,-0.29l0 0 18.66 0 0 0c0.3,0 0.58,0.11 0.83,0.29 0.57,0.46 0.68,1.3 0.23,1.87l-6.39 8.17 0 12.17 0 0zm-10.61 -19.84l5.28 6.75 0 7.36 2.66 2.67 0 -10.04 5.28 -6.74 -13.22 0z"/>
  </g>
 </g>
</svg>
