<svg xmlns="http://www.w3.org/2000/svg" viewBox="0 0 24 24">
   <path d="M6.26 11.43l9.14 0 0 2.29 -9.14 0 0 -2.29 0 0zm2.28 9.14l-4.57 0 0 -18.29 8 0 0 5.72 5.72 0 0 3.54 2.28 -2.28 0 -2.4 -6.86 -6.86 -9.14 0c-1.26,0 -2.29,1.02 -2.29,2.28l0 18.29c0,1.26 1.03,2.29 2.29,2.29l4.57 0 0 -2.29 0 0zm-2.28 -2.28l4.68 0 1.03 -1.03 0 -1.26 -5.71 0 0 2.29 0 0zm13.94 -5.72c0.11,0 0.34,0.12 0.46,0.23l1.48 1.49c0.23,0.22 0.23,0.68 0,0.91l-1.14 1.14 -2.4 -2.4 1.14 -1.14c0.12,-0.11 0.23,-0.23 0.46,-0.23l0 0zm0 4.46l-6.97 6.97 -2.4 0 0 -2.4 6.97 -6.97 2.4 2.4z"/>
</svg>
