<svg xmlns="http://www.w3.org/2000/svg" viewBox="0 0 24 24">
  <path d="M0 21l3.6 0 0 -9.6 16.8 0 0 9.6 3.6 0 0 -13.2 -12 -4.8 -12 4.8 0 13.2zm9.62 -7l-0.42 -0.42 -2.06 0 -0.42 0.42 -1.44 0 0 0.82 5.78 0 0 -0.82 -1.44 0zm-3.93 6.2c0,0.45 0.37,0.82 0.83,0.82l3.3 0c0.46,0 0.83,-0.37 0.83,-0.82l0 -4.96 -4.96 0 0 4.96zm11.66 -6.2l-0.42 -0.42 -2.06 0 -0.42 0.42 -1.44 0 0 0.82 5.78 0 0 -0.82 -1.44 0zm-3.93 6.2c0,0.45 0.37,0.82 0.83,0.82l3.3 0c0.46,0 0.83,-0.37 0.83,-0.82l0 -4.96 -4.96 0 0 4.96zm-0.56 -13.05c0.11,0.02 0.23,-0.04 0.27,-0.15l0.2 -0.59c0.02,-0.05 -0.04,-0.1 -0.08,-0.07l-0.16 0.09 -0.4 -0.7c-0.05,-0.08 -0.14,-0.14 -0.24,-0.14l-0.62 0c-0.1,0 -0.19,0.06 -0.24,0.14l-0.43 0.75c-0.04,0.07 -0.02,0.15 0.05,0.19l0.47 0.27c0.06,0.04 0.15,0.01 0.18,-0.05l0.28 -0.48 0.25 0.43 -0.16 0.09c-0.04,0.02 -0.03,0.09 0.02,0.1l0.61 0.12zm1.29 1.3c0.05,-0.09 0.05,-0.19 0,-0.28l-0.44 -0.74c-0.04,-0.07 -0.12,-0.09 -0.19,-0.05l-0.46 0.27c-0.07,0.04 -0.09,0.12 -0.05,0.19l0.28 0.48 -0.5 0 0 -0.18c0,-0.05 -0.06,-0.08 -0.1,-0.03l-0.4 0.46c-0.08,0.09 -0.08,0.23 0,0.32l0.41 0.46c0.03,0.04 0.1,0.02 0.1,-0.04l0 -0.18 0.81 0c0.1,0 0.19,-0.06 0.24,-0.14l0.3 -0.54zm-2.66 -0.13l-0.55 0 0.24 -0.43 0.16 0.09c0.04,0.03 0.1,-0.02 0.08,-0.07l-0.2 -0.58c-0.04,-0.11 -0.15,-0.18 -0.27,-0.16l-0.6 0.12c-0.06,0.01 -0.07,0.08 -0.02,0.1l0.15 0.09 -0.4 0.7c-0.05,0.08 -0.05,0.19 -0.01,0.28l0.31 0.53c0.05,0.09 0.14,0.14 0.24,0.14l0.87 0.01c0.07,0 0.13,-0.06 0.13,-0.14l0.01 -0.54c0,-0.07 -0.06,-0.14 -0.14,-0.14l0 0z"/>
</svg>
