<?xml version="1.0" encoding="UTF-8"?>
<!DOCTYPE svg PUBLIC "-//W3C//DTD SVG 1.1//EN" "http://www.w3.org/Graphics/SVG/1.1/DTD/svg11.dtd">
<!-- Creator: CorelDRAW 2019 (64 Bit Versão de avaliação) -->
<svg xmlns="http://www.w3.org/2000/svg" xml:space="preserve" width="24px" height="24px" version="1.1" style="shape-rendering:geometricPrecision; text-rendering:geometricPrecision; image-rendering:optimizeQuality; fill-rule:evenodd; clip-rule:evenodd"
viewBox="0 0 24 24"
 xmlns:xlink="http://www.w3.org/1999/xlink">
 <defs>
  <style type="text/css">
   <![CDATA[
    .fil0 {fill:none}
    .fil1 {fill:black}
   ]]>
  </style>
 </defs>
 <g id="Camada_x0020_1">
  <metadata id="CorelCorpID_0Corel-Layer"/>
  <path class="fil0" d="M0 0l24 0 0 24 -24 0 0 -24z"/>
  <path class="fil1" d="M14.19 8.38l1.18 0 0 -7.1 -9.46 0 0 5.92 -5.91 0 0 15.37 1.18 0 0 -14.19 5.92 0 0 -5.91 7.09 0 0 5.91zm-10.64 4.73l2.36 0 0 -2.36 -2.36 0 0 2.36zm5.91 -7.09l2.37 0 0 -2.37 -2.37 0 0 2.37zm-5.91 11.82l2.36 0 0 -2.36 -2.36 0 0 2.36zm0 4.73l2.36 0 0 -2.36 -2.36 0 0 2.36zm18.18 -8.95l-2.28 0 0 -3.03 -10.6 0c-0.84,0 -1.52,0.68 -1.52,1.52l0 8.33 1.52 0c0,1.26 1.01,2.28 2.27,2.28 1.26,0 2.28,-1.02 2.28,-2.28l4.54 0c0,1.26 1.02,2.28 2.27,2.28 1.26,0 2.28,-1.02 2.28,-2.28l1.51 0 0 -3.79 -2.27 -3.03 0 0zm-0.38 1.14l1.48 1.89 -3.38 0 0 -1.89 1.9 0zm-10.23 6.44c-0.42,0 -0.76,-0.34 -0.76,-0.76 0,-0.41 0.34,-0.76 0.76,-0.76 0.42,0 0.76,0.35 0.76,0.76 0,0.42 -0.34,0.76 -0.76,0.76zm1.68 -2.27c-0.41,-0.47 -1,-0.76 -1.68,-0.76 -0.67,0 -1.26,0.29 -1.68,0.76l-0.59 0 0 -6.82 9.09 0 0 6.82 -5.14 0zm7.41 2.27c-0.41,0 -0.76,-0.34 -0.76,-0.76 0,-0.41 0.35,-0.76 0.76,-0.76 0.42,0 0.76,0.35 0.76,0.76 0,0.42 -0.34,0.76 -0.76,0.76z"/>
 </g>
</svg>
