<?xml version="1.0" encoding="UTF-8"?>
<!DOCTYPE svg PUBLIC "-//W3C//DTD SVG 1.1//EN" "http://www.w3.org/Graphics/SVG/1.1/DTD/svg11.dtd">
<!-- Creator: CorelDRAW 2019 (64 Bit Versão de avaliação) -->
<svg xmlns="http://www.w3.org/2000/svg" xml:space="preserve" width="6.35mm" height="6.35mm" version="1.1" style="shape-rendering:geometricPrecision; text-rendering:geometricPrecision; image-rendering:optimizeQuality; fill-rule:evenodd; clip-rule:evenodd"
viewBox="0 0 18.89 18.89"
 xmlns:xlink="http://www.w3.org/1999/xlink">
 <defs>
  <style type="text/css">
   <![CDATA[
    .fil0 {fill:none}
    .fil1 {fill:black}
   ]]>
  </style>
 </defs>
 <g id="Camada_x0020_1">
  <metadata id="CorelCorpID_0Corel-Layer"/>
  <g id="_1412142585920">
   <polygon class="fil0" points="-0,0 18.89,0 18.89,18.89 -0,18.89 "/>
   <path class="fil1" d="M15.74 4.72l-6.3 0 -1.57 -1.57 -4.72 0c-0.87,0 -1.57,0.71 -1.57,1.57l-0.01 9.45c0,0.87 0.71,1.57 1.57,1.57l12.59 0c0.87,0 1.57,-0.71 1.57,-1.57l-0 -7.87c0,-0.87 -0.71,-1.57 -1.57,-1.57l0 0zm0 9.45l-12.59 0 0 -7.87 12.59 0 0 7.87z"/>
  </g>
  <polygon class="fil0" points="-0,0 18.89,0 18.89,18.89 -0,18.89 "/>
 </g>
</svg>
