<?xml version="1.0" encoding="UTF-8"?>
<!DOCTYPE svg PUBLIC "-//W3C//DTD SVG 1.1//EN" "http://www.w3.org/Graphics/SVG/1.1/DTD/svg11.dtd">
<!-- Creator: CorelDRAW 2019 (64 Bit Versão de avaliação) -->
<svg xmlns="http://www.w3.org/2000/svg" xml:space="preserve" width="24px" height="24px" version="1.1" style="shape-rendering:geometricPrecision; text-rendering:geometricPrecision; image-rendering:optimizeQuality; fill-rule:evenodd; clip-rule:evenodd"
viewBox="0 0 24 24"
 xmlns:xlink="http://www.w3.org/1999/xlink">
 <defs>
  <style type="text/css">
   <![CDATA[
    .fil0 {fill:none}
    .fil1 {fill:black}
   ]]>
  </style>
 </defs>
 <g id="Camada_x0020_1">
  <metadata id="CorelCorpID_0Corel-Layer"/>
  <path class="fil0" d="M0 0l24 0 0 24 -24 0 0 -24z"/>
  <rect class="fil0" width="24" height="24"/>
  <path class="fil1" d="M15.44 7.55l1.26 0 0 -7.55 -10.07 0 0 6.29 -6.29 0 0 16.35 1.26 0 0 -15.09 6.29 0 0 -6.29 7.55 0 0 6.29zm-11.33 5.03l2.52 0 0 -2.52 -2.52 0 0 2.52zm6.3 -7.55l2.51 0 0 -2.52 -2.51 0 0 2.52zm-6.3 12.58l2.52 0 0 -2.51 -2.52 0 0 2.51zm0 5.03l2.52 0 0 -2.51 -2.52 0 0 2.51zm3.73 -3.45c0,2.99 2.25,3.93 4.92,4.54 0.43,0.1 0.9,0.17 1.42,0.21l0.01 0 0.02 0.01 0.03 0 0.02 0 0.01 0 0.01 0 0.03 0.01 0.02 0 0.02 0 0.01 0 0.02 0 0.02 0 0.02 0 0.03 0.01 0.01 0 0.01 0 0.03 0 0.03 0 0.02 0 0 0 0.03 0 0.03 0.01 0.02 0 0.02 0 0.01 0 0.03 0 0.03 0 0.02 0 0.01 0 0.02 0 0.03 0 0.03 0.01 0.05 0 0.03 0 0.03 0 0 0 0.02 0c0.38,0.01 0.77,0.01 1.18,0l0.03 0 0.02 0 0.01 0 0.02 0 0.03 0 0.06 0 0.01 0c1.39,-0.04 2.72,-0.21 3.47,-0.4l0.04 -0.01 0 0 0.04 -0.01 0.03 -0.01 0 0 0.03 -0.01 0.03 -0.01 0.01 0 0.04 -0.01 0.02 -0.01c0.25,-0.07 0.51,-0.17 0.76,-0.28l0.02 -0.01 0.05 -0.02 0.01 -0.01 0.05 -0.02 0.01 -0.01c0.5,-0.22 1.06,-0.54 1.55,-0.96l0.01 -0.01 0.02 -0.02c0.16,-0.13 0.28,-0.25 0.36,-0.35 0.08,-0.09 0.15,-0.18 0.21,-0.28 0.18,-0.24 0.32,-0.51 0.41,-0.8 0.11,-0.33 0.15,-0.73 0.17,-1.12l0 -0.01 0 -0.01 0 -0.03 0 0 0 -0.02 0 -0.01 0 -0.01 0 -0.02 0 -0.01 0 -0.01 0 -0.02 0 -0.01 0 -0.02 0 0 0 -0.02 0 -0.01 0 -0.06c-0.01,-1.52 -0.65,-3 -0.73,-3.27 -0.05,-0.15 -0.16,-0.38 -0.32,-0.64 -0.51,-1.2 -1.59,-3.18 -2.61,-4.38 -0.88,-1.04 -1.71,-1.87 -2.37,-2.21 -2.44,-1.27 -4.99,0.1 -6.23,2.28l0 0.01 0 0c-1.45,2.17 -3.56,5.48 -3.56,8.04zm11.83 0.66c-0.53,0.06 -1.08,0.1 -1.65,0.1 -0.27,0 -0.8,-0.01 -1.11,-0.04 -1.58,-0.15 -3.92,-0.37 -5.33,-1.44 0.11,-0.16 0.74,-1.51 0.98,-1.87 0.63,-0.97 1.68,-2.3 2.45,-2.93 0.5,-0.4 0.96,-0.76 1.53,-0.98 0.12,0.18 1.06,1.3 1.28,1.66 0.62,0.99 1.37,2.5 1.62,3.46 0.18,0.7 0.31,1.34 0.23,2.04z"/>
 </g>
</svg>
