<svg xmlns="http://www.w3.org/2000/svg" viewBox="0 0 24 24">
  <path d="M14 9l1 0 0 -6 -8 0 0 5 -5 0 0 13 1 0 0 -12 5 0 0 -5 6 0 0 5zm-9 4l2 0 0 -2 -2 0 0 2zm5 -6l2 0 0 -2 -2 0 0 2zm-5 10l2 0 0 -2 -2 0 0 2zm0 4l2 0 0 -2 -2 0 0 2zm2.96 -2.75c0,2.38 1.79,3.13 3.91,3.61 0.34,0.08 0.72,0.14 1.13,0.17l0.01 0 0.02 0.01 0.02 0 0.01 0 0.01 0 0.01 0 0.02 0 0.02 0 0.02 0.01 0.01 0 0.01 0 0.01 0 0.02 0 0.02 0 0.01 0 0.01 0 0.02 0 0.03 0.01 0.02 0 0 0 0.02 0 0.02 0 0.02 0 0.01 0 0.01 0 0.02 0 0.03 0 0.02 0 0 0.01 0.02 0 0.02 0 0.02 0 0.05 0 0.02 0 0.02 0 0.01 0 0.02 0c0.29,0.01 0.6,0.01 0.93,0l0.02 0 0.02 0 0 0 0.03 0 0.02 0 0.04 0 0.01 0c1.11,-0.03 2.16,-0.17 2.76,-0.32l0.03 -0.01 0 0 0.03 0 0.02 -0.01 0.01 0 0.03 -0.01 0.02 0 0 -0.01 0.03 -0.01 0.02 0c0.2,-0.06 0.41,-0.14 0.61,-0.23l0.01 0 0.04 -0.02 0.01 -0.01 0.04 -0.01 0.01 -0.01c0.39,-0.18 0.84,-0.43 1.23,-0.77l0 0 0.03 -0.02c0.12,-0.1 0.21,-0.19 0.28,-0.27 0.06,-0.07 0.12,-0.15 0.17,-0.23 0.14,-0.19 0.25,-0.4 0.32,-0.63 0.09,-0.27 0.12,-0.59 0.13,-0.89l0 -0.02 0.01 0 0 -0.02 0 0 0 -0.02 0 -0.01 0 -0.01 0 -0.01 0 -0.01 0 -0.01 0 -0.01 0 -0.01 0 -0.02 0 0 0 -0.01 0 -0.01 0 -0.05c-0.01,-1.21 -0.52,-2.38 -0.58,-2.6 -0.04,-0.12 -0.13,-0.3 -0.26,-0.51 -0.4,-0.95 -1.26,-2.53 -2.07,-3.48 -0.7,-0.83 -1.36,-1.49 -1.89,-1.76 -1.94,-1.01 -3.96,0.08 -4.95,1.82l0 0 0 0c-1.15,1.73 -2.83,4.36 -2.83,6.39zm9.4 0.53c-0.42,0.05 -0.85,0.08 -1.31,0.08 -0.21,0 -0.63,-0.01 -0.88,-0.03 -1.25,-0.12 -3.12,-0.29 -4.24,-1.15 0.09,-0.13 0.59,-1.2 0.78,-1.49 0.5,-0.77 1.34,-1.82 1.95,-2.32 0.4,-0.32 0.77,-0.6 1.22,-0.79 0.09,0.15 0.84,1.04 1.02,1.33 0.49,0.78 1.09,1.98 1.28,2.75 0.14,0.55 0.25,1.06 0.18,1.62z"/>
</svg>
