<?xml version="1.0" encoding="UTF-8"?>
<!DOCTYPE svg PUBLIC "-//W3C//DTD SVG 1.1//EN" "http://www.w3.org/Graphics/SVG/1.1/DTD/svg11.dtd">
<!-- Creator: CorelDRAW 2019 (64 Bit Versão de avaliação) -->
<svg xmlns="http://www.w3.org/2000/svg" xml:space="preserve" width="6.35mm" height="6.35mm" version="1.1" style="shape-rendering:geometricPrecision; text-rendering:geometricPrecision; image-rendering:optimizeQuality; fill-rule:evenodd; clip-rule:evenodd"
viewBox="0 0 148.42 148.42"
 xmlns:xlink="http://www.w3.org/1999/xlink">
 <defs>
  <style type="text/css">
   <![CDATA[
    .fil1 {fill:none}
    .fil0 {fill:black}
   ]]>
  </style>
 </defs>
 <g id="Camada_x0020_1">
  <metadata id="CorelCorpID_0Corel-Layer"/>
  <g>
   <path class="fil0" d="M74.21 95.85c-27.33,0 -49.47,11.07 -49.47,24.74l0 12.37 98.94 0 0 -12.37c0,-13.67 -22.14,-24.74 -49.47,-24.74l0 0zm-24.74 -37.1c0,13.67 11.07,24.74 24.74,24.74 13.66,0 24.73,-11.07 24.73,-24.74l-49.47 0zm21.64 -43.29c-1.86,0 -3.09,1.3 -3.09,3.09l0 18.55 -6.18 0 0 -15.46c0,0 -13.91,5.32 -13.91,23.19 0,0 -4.64,0.87 -4.64,7.73l61.84 0c-0.31,-6.86 -4.64,-7.73 -4.64,-7.73 0,-17.87 -13.91,-23.19 -13.91,-23.19l0 15.46 -6.18 0 0 -18.55c0,-1.8 -1.18,-3.09 -3.09,-3.09l-6.18 0z"/>
  </g>
  <polygon class="fil1" points="-0,0 148.42,0 148.42,148.42 -0,148.42 "/>
  <rect class="fil1" width="148.42" height="148.42"/>
 </g>
</svg>
