<svg xmlns="http://www.w3.org/2000/svg" viewBox="0 0 24 24">
  <path d="M15.2 7.01l-6.31 -0.03c-1.92,2.06 -6.38,7.09 -6.39,9.48 -0.02,4.13 4.23,7.51 9.47,7.54 5.24,0.02 9.51,-3.32 9.53,-7.46 0.01,-2.39 -4.4,-7.46 -6.3,-9.53zm3.25 -6.31c-0.14,-0.16 -0.4,-0.36 -0.86,-0.36 -1.01,0 -2.61,0.96 -3.38,1.47 -0.57,-0.81 -1.42,-1.81 -2.13,-1.81 -0.72,-0.01 -1.57,0.99 -2.14,1.79 -0.77,-0.51 -2.37,-1.49 -3.37,-1.5 -0.46,0 -0.73,0.19 -0.87,0.35 -0.23,0.25 -0.33,0.59 -0.3,0.96 0.11,1.32 2.03,3.25 3.29,4.38l6.72 0.03c1.28,-1.12 3.22,-3.04 3.33,-4.35 0.04,-0.37 -0.06,-0.71 -0.29,-0.96z"/>
</svg>
