<?xml version="1.0" encoding="UTF-8"?>
<!DOCTYPE svg PUBLIC "-//W3C//DTD SVG 1.1//EN" "http://www.w3.org/Graphics/SVG/1.1/DTD/svg11.dtd">
<!-- Creator: CorelDRAW 2019 (64 Bit Versão de avaliação) -->
<svg xmlns="http://www.w3.org/2000/svg" xml:space="preserve" width="24px" height="24px" version="1.1" style="shape-rendering:geometricPrecision; text-rendering:geometricPrecision; image-rendering:optimizeQuality; fill-rule:evenodd; clip-rule:evenodd"
viewBox="0 0 24 24"
 xmlns:xlink="http://www.w3.org/1999/xlink">
 <defs>
  <style type="text/css">
   <![CDATA[
    .fil0 {fill:none}
    .fil1 {fill:black}
   ]]>
  </style>
 </defs>
 <g id="Camada_x0020_1">
  <metadata id="CorelCorpID_0Corel-Layer"/>
  <rect class="fil0" width="24" height="24"/>
  <g>
   <path class="fil1" d="M15.27 12c0,-1.42 -0.91,-2.62 -2.18,-3.08l0 -2.57c1.27,-0.46 2.18,-1.66 2.18,-3.08 0,-1.81 -1.46,-3.27 -3.27,-3.27 -1.81,0 -3.27,1.46 -3.27,3.27 0,1.42 0.91,2.62 2.18,3.08l0 2.58c-1.27,0.45 -2.18,1.65 -2.18,3.07 0,1.42 0.91,2.62 2.18,3.08l0 2.57c-1.27,0.46 -2.18,1.66 -2.18,3.08 0,1.81 1.46,3.27 3.27,3.27 1.81,0 3.27,-1.46 3.27,-3.27 0,-1.42 -0.91,-2.62 -2.18,-3.08l0 -2.57c1.27,-0.46 2.18,-1.66 2.18,-3.08l0 0zm-3.27 -9.82c0.6,0 1.09,0.49 1.09,1.09 0,0.6 -0.49,1.09 -1.09,1.09 -0.6,0 -1.09,-0.49 -1.09,-1.09 0,-0.6 0.49,-1.09 1.09,-1.09l0 0zm0 19.64c-0.6,0 -1.09,-0.49 -1.09,-1.09 0,-0.6 0.49,-1.09 1.09,-1.09 0.6,0 1.09,0.49 1.09,1.09 0,0.6 -0.49,1.09 -1.09,1.09z"/>
  </g>
 </g>
</svg>
