<?xml version="1.0" encoding="UTF-8"?>
<!DOCTYPE svg PUBLIC "-//W3C//DTD SVG 1.1//EN" "http://www.w3.org/Graphics/SVG/1.1/DTD/svg11.dtd">
<!-- Creator: CorelDRAW 2019 (64 Bit Versão de avaliação) -->
<svg xmlns="http://www.w3.org/2000/svg" xml:space="preserve" width="6.35mm" height="6.35mm" version="1.1" style="shape-rendering:geometricPrecision; text-rendering:geometricPrecision; image-rendering:optimizeQuality; fill-rule:evenodd; clip-rule:evenodd"
viewBox="0 0 148.42 148.42"
 xmlns:xlink="http://www.w3.org/1999/xlink">
 <defs>
  <style type="text/css">
   <![CDATA[
    .fil1 {fill:none}
    .fil0 {fill:black}
   ]]>
  </style>
 </defs>
 <g id="Camada_x0020_1">
  <metadata id="CorelCorpID_0Corel-Layer"/>
  <polygon class="fil0" points="87.79,54.72 93.98,54.72 93.98,17.62 44.5,17.62 44.5,48.54 13.58,48.54 13.58,128.93 19.76,128.93 19.76,54.72 50.69,54.72 50.69,23.8 87.79,23.8 "/>
  <rect class="fil0" x="32.13" y="67.09" width="12.37" height="12.37"/>
  <rect class="fil0" x="63.05" y="29.99" width="12.37" height="12.37"/>
  <rect class="fil0" x="32.13" y="91.83" width="12.37" height="12.37"/>
  <rect class="fil0" x="32.13" y="116.57" width="12.37" height="12.37"/>
  <path class="fil0" d="M127.2 82.13l-11.89 0 0 -15.84 -55.46 0c-4.36,0 -7.92,3.56 -7.92,7.92l0 43.57 7.92 0c0,6.57 5.31,11.89 11.89,11.89 6.57,0 11.88,-5.31 11.88,-11.89l23.77 0c0,6.57 5.31,11.89 11.89,11.89 6.58,0 11.89,-5.31 11.89,-11.89l7.92 0 0 -19.81 -11.89 -15.84 0 0zm-1.98 5.94l7.76 9.9 -17.67 0 0 -9.9 9.91 0zm-53.48 33.67c-2.18,0 -3.96,-1.78 -3.96,-3.96 0,-2.18 1.78,-3.96 3.96,-3.96 2.18,0 3.96,1.78 3.96,3.96 0,2.18 -1.78,3.96 -3.96,3.96zm8.79 -11.88c-2.18,-2.42 -5.27,-3.96 -8.79,-3.96 -3.53,0 -6.62,1.54 -8.8,3.96l-3.09 0 0 -35.65 47.54 0 0 35.65 -26.86 0zm38.74 11.88c-2.18,0 -3.96,-1.78 -3.96,-3.96 0,-2.18 1.78,-3.96 3.96,-3.96 2.18,0 3.96,1.78 3.96,3.96 0,2.18 -1.78,3.96 -3.96,3.96z"/>
  <polygon class="fil1" points="-0,0 148.42,0 148.42,148.42 -0,148.42 "/>
 </g>
</svg>
