<?xml version="1.0" encoding="UTF-8"?>
<!DOCTYPE svg PUBLIC "-//W3C//DTD SVG 1.1//EN" "http://www.w3.org/Graphics/SVG/1.1/DTD/svg11.dtd">
<!-- Creator: CorelDRAW 2019 (64 Bit Versão de avaliação) -->
<svg xmlns="http://www.w3.org/2000/svg" xml:space="preserve" width="6.35mm" height="6.35mm" version="1.1" style="shape-rendering:geometricPrecision; text-rendering:geometricPrecision; image-rendering:optimizeQuality; fill-rule:evenodd; clip-rule:evenodd"
viewBox="0 0 148.42 148.42"
 xmlns:xlink="http://www.w3.org/1999/xlink">
 <defs>
  <style type="text/css">
   <![CDATA[
    .fil0 {fill:none}
    .fil1 {fill:black}
   ]]>
  </style>
 </defs>
 <g id="Camada_x0020_1">
  <metadata id="CorelCorpID_0Corel-Layer"/>
  <g id="_1411239189648">
   <polygon class="fil0" points="-0,0 148.42,0 148.42,148.42 -0,148.42 "/>
   <path class="fil1" d="M122.03 69.93l0.26 -11.28c-0.09,-0 -0.17,-0 -0.26,-0l0.26 0 -0.26 11.28 0 0z"/>
   <polygon class="fil1" points="61.31,26.21 69.27,34.16 41.05,62.38 12.83,34.16 20.79,26.21 35.4,40.77 35.4,12.07 46.69,12.07 46.69,40.77 61.31,26.21 "/>
   <path class="fil1" d="M20.31 133.55c0,3.84 3.14,6.98 6.98,6.98l27.93 0c3.84,0 6.98,-3.14 6.98,-6.98l0 -41.9 -41.9 0 0 41.9zm6.98 -34.91l27.93 0 0 34.91 -27.93 0 0 -34.91zm26.18 -17.45l-3.49 -3.49 -17.45 0 -3.49 3.49 -12.22 0 0 6.98 48.88 0 0 -6.98 -12.22 0z"/>
   <polygon class="fil1" points="119.37,81.23 115.89,77.73 98.43,77.73 94.94,81.23 82.72,81.23 82.72,88.21 131.59,88.21 131.59,81.23 "/>
   <polygon class="fil1" points="93.19,98.68 121.12,98.68 121.12,133.59 93.19,133.59 "/>
   <path class="fil1" d="M86.21 133.59c0,3.84 3.14,6.98 6.98,6.98l27.93 0c3.84,0 6.98,-3.14 6.98,-6.98l0 -41.89 -41.9 0 0 41.89z"/>
   <polygon class="fil1" points="127.74,48.11 135.7,40.15 107.48,11.93 79.26,40.15 87.22,48.11 101.84,33.55 101.84,62.25 113.13,62.25 113.13,33.55 127.74,48.11 "/>
  </g>
 </g>
</svg>
