<?xml version="1.0" encoding="UTF-8"?>
<!DOCTYPE svg PUBLIC "-//W3C//DTD SVG 1.1//EN" "http://www.w3.org/Graphics/SVG/1.1/DTD/svg11.dtd">
<!-- Creator: CorelDRAW 2019 (64 Bit Versão de avaliação) -->
<svg xmlns="http://www.w3.org/2000/svg" xml:space="preserve" width="24px" height="24px" version="1.1" style="shape-rendering:geometricPrecision; text-rendering:geometricPrecision; image-rendering:optimizeQuality; fill-rule:evenodd; clip-rule:evenodd"
viewBox="0 0 24 24"
 xmlns:xlink="http://www.w3.org/1999/xlink">
 <defs>
  <style type="text/css">
   <![CDATA[
    .fil0 {fill:none}
    .fil1 {fill:black}
   ]]>
  </style>
 </defs>
 <g id="Camada_x0020_1">
  <metadata id="CorelCorpID_0Corel-Layer"/>
  <rect class="fil0" width="24" height="24"/>
  <g>
   <path class="fil1" d="M4 4l6 0 0 6 -6 0 0 -6 0 0zm16 0l0 6 -6 0 0 -6 6 0 0 0zm-6 11l2 0 0 -2 -2 0 0 -2 2 0 0 2 2 0 0 -2 2 0 0 2 -2 0 0 2 2 0 0 3 -2 0 0 2 -2 0 0 -2 -3 0 0 2 -2 0 0 -4 3 0 0 -1 0 0zm2 0l0 3 2 0 0 -3 -2 0 0 0zm-12 5l0 -6 6 0 0 6 -6 0 0 0zm2 -14l0 2 2 0 0 -2 -2 0 0 0zm10 0l0 2 2 0 0 -2 -2 0 0 0zm-10 10l0 2 2 0 0 -2 -2 0 0 0zm-2 -5l2 0 0 2 -2 0 0 -2 0 0zm5 0l4 0 0 4 -2 0 0 -2 -2 0 0 -2 0 0zm2 -5l2 0 0 4 -2 0 0 -4 0 0zm-9 -4l0 4 -2 0 0 -4c0,-1.1 0.9,-2 2,-2l4 0 0 2 -4 0 0 0zm20 -2c1.1,0 2,0.9 2,2l0 4 -2 0 0 -4 -4 0 0 -2 4 0 0 0zm-20 18l0 4 4 0 0 2 -4 0c-1.1,0 -2,-0.9 -2,-2l0 -4 2 0 0 0zm20 4l0 -4 2 0 0 4c0,1.1 -0.9,2 -2,2l-4 0 0 -2 4 0z"/>
  </g>
 </g>
</svg>
