<svg xmlns="http://www.w3.org/2000/svg" viewBox="0 0 24 24">
   <path d="M2.28 0c-1.26,0 -2.28,1.02 -2.28,2.28l0 18.29c0,1.26 1.02,2.29 2.28,2.29l9.62 0c1.24,0.74 2.65,1.14 4.1,1.14 4.42,0 8,-3.58 8,-8 0,-3.53 -2.33,-6.65 -5.71,-7.66l0 -1.48 -6.86 -6.86 -9.15 0 0 0zm0 2.28l8 0 0 5.72 5.72 0c-4.42,0 -8,3.58 -8,8 0,1.64 0.5,3.23 1.44,4.57l-7.16 0 0 -18.29 0 0zm13.72 8.01c3.16,0 5.72,2.55 5.72,5.71 0,3.16 -2.56,5.72 -5.72,5.72 -3.16,0 -5.71,-2.56 -5.71,-5.72 0,-3.16 2.55,-5.71 5.71,-5.71l0 0zm-1.14 1.14l0 5.71 4.12 2.47 0.86 -1.39 -3.27 -1.93 0 -4.86 -1.71 0z"/>
</svg>
