<svg xmlns="http://www.w3.org/2000/svg" viewBox="0 0 24 24">
  <path d="M14.2 8.85l1 0 0 -6 -8 0 0 5 -5 0 0 13 1 0 0 -12 5 0 0 -5 6 0 0 5zm-9.01 4l2.01 0 0 -2 -2.01 0 0 2zm5.01 -6l2 0 0 -2 -2 0 0 2zm-5.01 10l2.01 0 0 -2 -2.01 0 0 2zm0 4l2.01 0 0 -2 -2.01 0 0 2zm15.38 -7.57l-1.92 0 0 -2.56 -8.97 0c-0.71,0 -1.28,0.57 -1.28,1.28l0 7.05 1.28 0c0,1.06 0.86,1.92 1.92,1.92 1.06,0 1.92,-0.86 1.92,-1.92l3.85 0c0,1.06 0.85,1.92 1.92,1.92 1.06,0 1.92,-0.86 1.92,-1.92l1.28 0 0 -3.21 -1.92 -2.56 0 0zm-0.32 0.96l1.25 1.6 -2.85 0 0 -1.6 1.6 0zm-8.65 5.45c-0.35,0 -0.64,-0.29 -0.64,-0.64 0,-0.35 0.29,-0.64 0.64,-0.64 0.35,0 0.64,0.29 0.64,0.64 0,0.35 -0.29,0.64 -0.64,0.64zm1.42 -1.92c-0.35,-0.4 -0.85,-0.64 -1.42,-0.64 -0.57,0 -1.07,0.24 -1.42,0.64l-0.5 0 0 -5.77 7.69 0 0 5.77 -4.35 0zm6.27 1.92c-0.36,0 -0.64,-0.29 -0.64,-0.64 0,-0.35 0.28,-0.64 0.64,-0.64 0.35,0 0.64,0.29 0.64,0.64 0,0.35 -0.29,0.64 -0.64,0.64z"/>
</svg>
