<?xml version="1.0" encoding="UTF-8"?>
<!DOCTYPE svg PUBLIC "-//W3C//DTD SVG 1.1//EN" "http://www.w3.org/Graphics/SVG/1.1/DTD/svg11.dtd">
<!-- Creator: CorelDRAW 2019 (64 Bit Versão de avaliação) -->
<svg xmlns="http://www.w3.org/2000/svg" xml:space="preserve" width="6.35mm" height="6.35mm" version="1.1" style="shape-rendering:geometricPrecision; text-rendering:geometricPrecision; image-rendering:optimizeQuality; fill-rule:evenodd; clip-rule:evenodd"
viewBox="0 0 33.05 33.05"
 xmlns:xlink="http://www.w3.org/1999/xlink">
 <defs>
  <style type="text/css">
   <![CDATA[
    .fil1 {fill:none}
    .fil0 {fill:black}
   ]]>
  </style>
 </defs>
 <g id="Camada_x0020_1">
  <metadata id="CorelCorpID_0Corel-Layer"/>
  <g id="_1411217104608">
   <path class="fil0" d="M26.17 11.02l-5.51 5.51 4.13 0c0,4.56 -3.7,8.26 -8.26,8.26 -1.39,0 -2.71,-0.34 -3.86,-0.96l-2.01 2.01c1.69,1.07 3.7,1.71 5.87,1.71 6.09,0 11.02,-4.93 11.02,-11.02l4.13 0 -5.51 -5.51zm-17.9 5.51c0,-4.56 3.7,-8.26 8.26,-8.26 1.39,0 2.71,0.34 3.86,0.96l2.01 -2.01c-1.69,-1.07 -3.7,-1.71 -5.87,-1.71 -6.09,0 -11.02,4.93 -11.02,11.02l-4.13 0 5.51 5.51 5.51 -5.51 -4.13 0z"/>
   <polygon class="fil1" points="-0,0 33.05,0 33.05,33.05 -0,33.05 "/>
  </g>
 </g>
</svg>
