<?xml version="1.0" encoding="UTF-8"?>
<!DOCTYPE svg PUBLIC "-//W3C//DTD SVG 1.1//EN" "http://www.w3.org/Graphics/SVG/1.1/DTD/svg11.dtd">
<!-- Creator: CorelDRAW 2019 (64 Bit Versão de avaliação) -->
<svg xmlns="http://www.w3.org/2000/svg" xml:space="preserve" width="24px" height="24px" version="1.1" style="shape-rendering:geometricPrecision; text-rendering:geometricPrecision; image-rendering:optimizeQuality; fill-rule:evenodd; clip-rule:evenodd"
viewBox="0 0 24 24"
 xmlns:xlink="http://www.w3.org/1999/xlink">
 <defs>
  <style type="text/css">
   <![CDATA[
    .fil0 {fill:none}
    .fil1 {fill:black}
   ]]>
  </style>
 </defs>
 <g id="Camada_x0020_1">
  <metadata id="CorelCorpID_0Corel-Layer"/>
  <path class="fil0" d="M0 0l24 0 0 24 -24 0 0 -24z"/>
  <g>
   <path class="fil1" d="M0 12.27l11.59 0 0 2.57 -11.59 0 0 -2.57 0 0zm0.64 3.22l10.3 0 0 8.37 -10.3 0 0 -8.37 0 0zm3.54 1.93c-0.17,0 -0.32,0.14 -0.32,0.32l0 0.97 3.86 0 0 -0.97c0,-0.18 -0.14,-0.32 -0.32,-0.32l-3.22 0zm8.24 -5.15l11.58 0 0 2.57 -11.58 0 0 -2.57 0 0zm0.64 3.22l10.3 0 0 8.37 -10.3 0 0 -8.37 0 0zm3.54 1.93c-0.18,0 -0.32,0.14 -0.32,0.32l0 0.97 3.86 0 0 -0.97c0,-0.18 -0.14,-0.32 -0.32,-0.32l-3.22 0zm-10.52 -17.27l11.59 0 0 2.57 -11.59 0 0 -2.57 0 0zm0.65 3.21l10.3 0 0 8.37 -10.3 0 0 -8.37 0 0zm3.54 1.93c-0.18,0 -0.33,0.15 -0.33,0.33l0 0.96 3.87 0 0 -0.96c0,-0.18 -0.15,-0.33 -0.32,-0.33l-3.22 0z"/>
  </g>
 </g>
</svg>
