<?xml version="1.0" encoding="UTF-8"?>
<!DOCTYPE svg PUBLIC "-//W3C//DTD SVG 1.1//EN" "http://www.w3.org/Graphics/SVG/1.1/DTD/svg11.dtd">
<!-- Creator: CorelDRAW 2019 (64 Bit Versão de avaliação) -->
<svg xmlns="http://www.w3.org/2000/svg" xml:space="preserve" width="6.35mm" height="6.35mm" version="1.1" style="shape-rendering:geometricPrecision; text-rendering:geometricPrecision; image-rendering:optimizeQuality; fill-rule:evenodd; clip-rule:evenodd"
viewBox="0 0 148.42 148.42"
 xmlns:xlink="http://www.w3.org/1999/xlink">
 <defs>
  <style type="text/css">
   <![CDATA[
    .fil0 {fill:none}
    .fil1 {fill:black}
   ]]>
  </style>
 </defs>
 <g id="Camada_x0020_1">
  <metadata id="CorelCorpID_0Corel-Layer"/>
  <g id="_1411252131392">
   <polygon class="fil0" points="-0,0 148.42,0 148.42,148.42 -0,148.42 "/>
   <path class="fil1" d="M89.09 66.4l0.26 -11.28c-0.09,-0 -0.17,-0 -0.26,-0l0.26 0 -0.26 11.28 0 0z"/>
   <polygon class="fil1" points="86.43,77.7 82.94,74.21 65.48,74.21 61.99,77.7 49.77,77.7 49.77,84.68 98.65,84.68 98.65,77.7 "/>
   <polygon class="fil1" points="60.25,95.16 88.17,95.16 88.17,130.07 60.25,130.07 "/>
   <path class="fil1" d="M53.26 130.07c0,3.84 3.14,6.98 6.98,6.98l27.93 0c3.84,0 6.98,-3.14 6.98,-6.98l0 -41.89 -41.9 0 0 41.89z"/>
   <polygon class="fil1" points="94.8,44.58 102.75,36.63 74.54,8.41 46.32,36.63 54.28,44.58 68.89,30.02 68.89,58.72 80.18,58.72 80.18,30.02 94.8,44.58 "/>
  </g>
 </g>
</svg>
