<?xml version="1.0" encoding="UTF-8"?>
<!DOCTYPE svg PUBLIC "-//W3C//DTD SVG 1.1//EN" "http://www.w3.org/Graphics/SVG/1.1/DTD/svg11.dtd">
<!-- Creator: CorelDRAW 2019 (64 Bit Versão de avaliação) -->
<svg xmlns="http://www.w3.org/2000/svg" xml:space="preserve" width="6.35mm" height="6.35mm" version="1.1" style="shape-rendering:geometricPrecision; text-rendering:geometricPrecision; image-rendering:optimizeQuality; fill-rule:evenodd; clip-rule:evenodd"
viewBox="0 0 18.89 18.89"
 xmlns:xlink="http://www.w3.org/1999/xlink">
 <defs>
  <style type="text/css">
   <![CDATA[
    .fil0 {fill:none}
    .fil1 {fill:black}
   ]]>
  </style>
 </defs>
 <g id="Camada_x0020_1">
  <metadata id="CorelCorpID_0Corel-Layer"/>
  <g id="_1411284231168">
   <polygon class="fil0" points="-0,0 18.89,0 18.89,18.89 -0,18.89 "/>
   <g>
    <path class="fil1" d="M14.96 3.94l0 11.02 -11.02 0 0 -11.02 11.02 0 0 0zm0 -1.57l-11.02 0c-0.87,0 -1.57,0.71 -1.57,1.57l0 11.02c0,0.87 0.71,1.57 1.57,1.57l11.02 0c0.87,0 1.57,-0.71 1.57,-1.57l0 -11.02c0,-0.87 -0.71,-1.57 -1.57,-1.57zm-3.83 6.97l-2.36 3.05 -1.68 -2.04 -2.36 3.04 9.45 0 -3.04 -4.05 0 0z"/>
   </g>
  </g>
  <rect class="fil0" width="18.89" height="18.89"/>
 </g>
</svg>
