<?xml version="1.0" encoding="UTF-8"?>
<!DOCTYPE svg PUBLIC "-//W3C//DTD SVG 1.1//EN" "http://www.w3.org/Graphics/SVG/1.1/DTD/svg11.dtd">
<!-- Creator: CorelDRAW 2019 (64 Bit Versão de avaliação) -->
<svg xmlns="http://www.w3.org/2000/svg" xml:space="preserve" width="24px" height="24px" version="1.1" style="shape-rendering:geometricPrecision; text-rendering:geometricPrecision; image-rendering:optimizeQuality; fill-rule:evenodd; clip-rule:evenodd"
viewBox="0 0 24 24"
 xmlns:xlink="http://www.w3.org/1999/xlink">
 <defs>
  <style type="text/css">
   <![CDATA[
    .fil0 {fill:none}
    .fil1 {fill:black}
   ]]>
  </style>
 </defs>
 <g id="Camada_x0020_1">
  <metadata id="CorelCorpID_0Corel-Layer"/>
  <rect class="fil0" width="24" height="24"/>
  <rect class="fil0" width="24" height="24"/>
  <path class="fil0" d="M0 0l24 0 0 24 -24 0 0 -24z"/>
  <rect class="fil0" width="24" height="24"/>
  <path class="fil1" d="M15.84 13.2c0,-2.12 -1.72,-3.84 -3.84,-3.84 -2.12,0 -3.84,1.72 -3.84,3.84 0,2.12 1.72,3.84 3.84,3.84 2.12,0 3.84,-1.72 3.84,-3.84zm-7.44 -12l-2.2 2.4 -3.8 0c-1.32,0 -2.4,1.08 -2.4,2.4l0 14.4c0,1.32 1.08,2.4 2.4,2.4l19.2 0c1.32,0 2.4,-1.08 2.4,-2.4l0 -14.4c0,-1.32 -1.08,-2.4 -2.4,-2.4l-3.8 0 -2.2 -2.4 -7.2 0zm3.6 18c-3.31,0 -6,-2.69 -6,-6 0,-3.31 2.69,-6 6,-6 3.31,0 6,2.69 6,6 0,3.31 -2.69,6 -6,6z"/>
 </g>
</svg>
