<?xml version="1.0" encoding="UTF-8"?>
<!DOCTYPE svg PUBLIC "-//W3C//DTD SVG 1.1//EN" "http://www.w3.org/Graphics/SVG/1.1/DTD/svg11.dtd">
<!-- Creator: CorelDRAW 2019 (64 Bit Versão de avaliação) -->
<svg xmlns="http://www.w3.org/2000/svg" xml:space="preserve" width="6.35mm" height="6.35mm" version="1.1" style="shape-rendering:geometricPrecision; text-rendering:geometricPrecision; image-rendering:optimizeQuality; fill-rule:evenodd; clip-rule:evenodd"
viewBox="0 0 33.05 33.05"
 xmlns:xlink="http://www.w3.org/1999/xlink">
 <defs>
  <style type="text/css">
   <![CDATA[
    .fil0 {fill:none}
    .fil1 {fill:black}
   ]]>
  </style>
 </defs>
 <g id="Camada_x0020_1">
  <metadata id="CorelCorpID_0Corel-Layer"/>
  <g id="_1412975150704">
   <path class="fil0" d="M-0 0l33.05 0 0 33.05 -33.05 0 0 -33.05zm0 0l33.05 0 0 33.05 -33.05 0 0 -33.05z"/>
   <path class="fil1" d="M22.85 10.44l-9.08 9.08 -4.94 -4.93 -1.94 1.94 6.89 6.89 11.02 -11.02 -1.94 -1.96zm-6.32 -7.68c-7.6,0 -13.77,6.17 -13.77,13.77 0,7.6 6.17,13.77 13.77,13.77 7.6,0 13.77,-6.17 13.77,-13.77 0,-7.6 -6.17,-13.77 -13.77,-13.77zm0 24.79c-6.09,0 -11.02,-4.93 -11.02,-11.02 0,-6.09 4.93,-11.02 11.02,-11.02 6.09,0 11.02,4.93 11.02,11.02 0,6.09 -4.93,11.02 -11.02,11.02z"/>
  </g>
 </g>
</svg>
