<?xml version="1.0" encoding="UTF-8"?>
<!DOCTYPE svg PUBLIC "-//W3C//DTD SVG 1.1//EN" "http://www.w3.org/Graphics/SVG/1.1/DTD/svg11.dtd">
<!-- Creator: CorelDRAW 2019 (64 Bit Versão de avaliação) -->
<svg xmlns="http://www.w3.org/2000/svg" xml:space="preserve" width="6.35mm" height="6.35mm" version="1.1" style="shape-rendering:geometricPrecision; text-rendering:geometricPrecision; image-rendering:optimizeQuality; fill-rule:evenodd; clip-rule:evenodd"
viewBox="0 0 148.42 148.42"
 xmlns:xlink="http://www.w3.org/1999/xlink">
 <defs>
  <style type="text/css">
   <![CDATA[
    .fil0 {fill:none}
    .fil1 {fill:black}
   ]]>
  </style>
 </defs>
 <g id="Camada_x0020_1">
  <metadata id="CorelCorpID_0Corel-Layer"/>
  <g id="_1411099622000">
   <polygon class="fil0" points="-0,0 148.42,0 148.42,148.42 -0,148.42 "/>
   <polygon class="fil1" points="94.26,44.76 102.22,36.8 74,8.59 45.78,36.8 53.74,44.76 68.35,30.2 68.35,58.9 79.64,58.9 79.64,30.2 94.26,44.76 "/>
   <path class="fil1" d="M53.26 130.07c0,3.84 3.14,6.98 6.98,6.98l27.93 0c3.84,0 6.98,-3.14 6.98,-6.98l0 -41.9 -41.9 0 0 41.9zm6.98 -34.91l27.93 0 0 34.91 -27.93 0 0 -34.91zm26.18 -17.45l-3.49 -3.49 -17.45 0 -3.49 3.49 -12.22 0 0 6.98 48.88 0 0 -6.98 -12.22 0z"/>
   <polygon class="fil1" points="58.54,110.14 90.43,116.47 90.43,132.15 58.54,132.15 "/>
  </g>
 </g>
</svg>
