<?xml version="1.0" encoding="UTF-8"?>
<!DOCTYPE svg PUBLIC "-//W3C//DTD SVG 1.1//EN" "http://www.w3.org/Graphics/SVG/1.1/DTD/svg11.dtd">
<!-- Creator: CorelDRAW 2019 (64 Bit Versão de avaliação) -->
<svg xmlns="http://www.w3.org/2000/svg" xml:space="preserve" width="6.35mm" height="6.35mm" version="1.1" style="shape-rendering:geometricPrecision; text-rendering:geometricPrecision; image-rendering:optimizeQuality; fill-rule:evenodd; clip-rule:evenodd"
viewBox="0 0 18.89 18.89"
 xmlns:xlink="http://www.w3.org/1999/xlink">
 <defs>
  <style type="text/css">
   <![CDATA[
    .fil1 {fill:none}
    .fil0 {fill:black}
   ]]>
  </style>
 </defs>
 <g id="Camada_x0020_1">
  <metadata id="CorelCorpID_0Corel-Layer"/>
  <path class="fil0" d="M14.17 12.69c-0.6,0 -1.13,0.24 -1.54,0.61l-5.61 -3.27c0.04,-0.18 0.07,-0.36 0.07,-0.55 0,-0.19 -0.03,-0.37 -0.07,-0.55l5.55 -3.24c0.42,0.39 0.98,0.64 1.61,0.64 1.31,0 2.36,-1.05 2.36,-2.36 0,-1.31 -1.05,-2.36 -2.36,-2.36 -1.31,0 -2.36,1.05 -2.36,2.36 0,0.19 0.03,0.37 0.07,0.55l-5.55 3.24c-0.42,-0.39 -0.98,-0.64 -1.61,-0.64 -1.31,0 -2.36,1.05 -2.36,2.36 0,1.31 1.05,2.36 2.36,2.36 0.62,0 1.18,-0.24 1.61,-0.64l5.6 3.27c-0.04,0.17 -0.06,0.34 -0.06,0.52 0,1.27 1.03,2.29 2.3,2.29 1.27,0 2.3,-1.02 2.3,-2.29 0,-1.27 -1.03,-2.3 -2.3,-2.3z"/>
  <polygon class="fil1" points="-0,0 18.89,0 18.89,18.89 -0,18.89 "/>
 </g>
</svg>
