<?xml version="1.0" encoding="UTF-8"?>
<!DOCTYPE svg PUBLIC "-//W3C//DTD SVG 1.1//EN" "http://www.w3.org/Graphics/SVG/1.1/DTD/svg11.dtd">
<!-- Creator: CorelDRAW 2019 (64 Bit Versão de avaliação) -->
<svg xmlns="http://www.w3.org/2000/svg" xml:space="preserve" width="6.35mm" height="6.35mm" version="1.1" style="shape-rendering:geometricPrecision; text-rendering:geometricPrecision; image-rendering:optimizeQuality; fill-rule:evenodd; clip-rule:evenodd"
viewBox="0 0 146.25 146.25"
 xmlns:xlink="http://www.w3.org/1999/xlink">
 <defs>
  <style type="text/css">
   <![CDATA[
    .fil0 {fill:none}
    .fil1 {fill:black}
   ]]>
  </style>
 </defs>
 <g id="Camada_x0020_1">
  <metadata id="CorelCorpID_0Corel-Layer"/>
  <rect class="fil0" width="146.25" height="146.25"/>
  <g>
   <path class="fil1" d="M67.03 36.59l18.28 0 20.05 -20.11 24.38 15.78 -13.95 22.61 -48.75 0 0 12.19c0,3.35 -2.74,6.09 -6.09,6.09 -3.35,0 -6.09,-2.74 -6.09,-6.09l0 -18.28c0,-6.7 5.49,-12.19 12.19,-12.19l0 0zm-36.56 30.47l0 24.38 -13.95 13.95 15.72 24.38 34.8 -26.14 24.38 0c3.35,0 6.09,-2.74 6.09,-6.09l0 -6.09 6.09 0c3.35,0 6.09,-2.74 6.09,-6.09l0 -6.09 6.09 0c3.35,0 6.09,-2.74 6.09,-6.09l0 -6.09 -42.66 0 0 6.09c0,6.7 -5.48,12.19 -12.19,12.19l-12.19 0c-6.7,0 -12.19,-5.49 -12.19,-12.19l0 -18.28 -12.19 12.19z"/>
  </g>
 </g>
</svg>
