<svg xmlns="http://www.w3.org/2000/svg" viewBox="0 0 24 24">
   <path d="M14 13l1.5 0 0 2.82 2.44 1.41 -0.75 1.3 -3.19 -1.84 0 -3.69 0 0zm4 -5l-14 0 0 11 4.67 0c-0.43,-0.91 -0.67,-1.93 -0.67,-3 0,-3.87 3.13,-7 7,-7 1.07,0 2.09,0.24 3,0.67l0 -1.67 0 0zm-14 13c-1.11,0 -2,-0.9 -2,-2l0 -14c0,-1.11 0.89,-2 2,-2l1 0 0 -2 2 0 0 2 8 0 0 -2 2 0 0 2 1 0c1.1,0 2,0.9 2,2l0 6.1c1.24,1.26 2,2.99 2,4.9 0,3.87 -3.13,7 -7,7 -1.91,0 -3.64,-0.76 -4.9,-2l-6.1 0 0 0zm11 -9.85c-2.68,0 -4.85,2.17 -4.85,4.85 0,2.68 2.17,4.85 4.85,4.85 2.68,0 4.85,-2.17 4.85,-4.85 0,-2.68 -2.17,-4.85 -4.85,-4.85z"/>
</svg>
