<?xml version="1.0" encoding="UTF-8"?>
<!DOCTYPE svg PUBLIC "-//W3C//DTD SVG 1.1//EN" "http://www.w3.org/Graphics/SVG/1.1/DTD/svg11.dtd">
<!-- Creator: CorelDRAW 2019 (64 Bit Versão de avaliação) -->
<svg xmlns="http://www.w3.org/2000/svg" xml:space="preserve" width="6.35mm" height="6.35mm" version="1.1" style="shape-rendering:geometricPrecision; text-rendering:geometricPrecision; image-rendering:optimizeQuality; fill-rule:evenodd; clip-rule:evenodd"
viewBox="0 0 18.89 18.89"
 xmlns:xlink="http://www.w3.org/1999/xlink">
 <defs>
  <style type="text/css">
   <![CDATA[
    .fil1 {fill:none}
    .fil0 {fill:black}
   ]]>
  </style>
 </defs>
 <g id="Camada_x0020_1">
  <metadata id="CorelCorpID_0Corel-Layer"/>
  <g id="_1411255469088">
   <circle class="fil0" cx="9.45" cy="9.45" r="2.52"/>
   <path class="fil0" d="M7.08 1.57l-1.44 1.57 -2.5 0c-0.87,0 -1.57,0.71 -1.57,1.57l0 9.45c0,0.87 0.71,1.57 1.57,1.57l12.59 0c0.87,0 1.57,-0.71 1.57,-1.57l-0 -9.45c0,-0.87 -0.71,-1.57 -1.57,-1.57l-2.5 0 -1.44 -1.57 -4.72 0zm2.36 11.81c-2.17,0 -3.94,-1.76 -3.94,-3.94 0,-2.17 1.76,-3.94 3.94,-3.94 2.17,0 3.94,1.76 3.94,3.94 0,2.17 -1.76,3.94 -3.94,3.94z"/>
   <polygon class="fil1" points="-0,0 18.89,0 18.89,18.89 -0,18.89 "/>
  </g>
  <rect class="fil1" width="18.89" height="18.89"/>
 </g>
</svg>
