<?xml version="1.0" encoding="UTF-8"?>
<!DOCTYPE svg PUBLIC "-//W3C//DTD SVG 1.1//EN" "http://www.w3.org/Graphics/SVG/1.1/DTD/svg11.dtd">
<!-- Creator: CorelDRAW 2019 (64 Bit Versão de avaliação) -->
<svg xmlns="http://www.w3.org/2000/svg" xml:space="preserve" width="6.35mm" height="6.35mm" version="1.1" style="shape-rendering:geometricPrecision; text-rendering:geometricPrecision; image-rendering:optimizeQuality; fill-rule:evenodd; clip-rule:evenodd"
viewBox="0 0 12.92 12.92"
 xmlns:xlink="http://www.w3.org/1999/xlink">
 <defs>
  <style type="text/css">
   <![CDATA[
    .fil0 {fill:none}
    .fil1 {fill:black}
   ]]>
  </style>
 </defs>
 <g id="Camada_x0020_1">
  <metadata id="CorelCorpID_0Corel-Layer"/>
  <g id="_1411057263952">
   <polygon class="fil0" points="-0,0 12.92,0 12.92,12.92 -0,12.92 "/>
   <path class="fil1" d="M6.46 3.77l0 -2.15 -5.38 0 0 9.69 10.77 0 0 -7.54 -5.38 0zm-3.23 6.46l-1.08 0 0 -1.08 1.08 0 0 1.08zm0 -2.15l-1.08 0 0 -1.08 1.08 0 0 1.08zm0 -2.15l-1.08 0 0 -1.08 1.08 0 0 1.08zm0 -2.15l-1.08 0 0 -1.08 1.08 0 0 1.08zm2.15 6.46l-1.08 0 0 -1.08 1.08 0 0 1.08zm0 -2.15l-1.08 0 0 -1.08 1.08 0 0 1.08zm0 -2.15l-1.08 0 0 -1.08 1.08 0 0 1.08zm0 -2.15l-1.08 0 0 -1.08 1.08 0 0 1.08zm5.38 6.46l-4.31 0 0 -1.08 1.08 0 0 -1.08 -1.08 0 0 -1.08 1.08 0 0 -1.08 -1.08 0 0 -1.08 4.31 0 0 5.38 0 0zm-1.08 -4.31l-1.08 0 0 1.08 1.08 0 0 -1.08zm0 2.15l-1.08 0 0 1.08 1.08 -0 0 -1.08 0 0z"/>
  </g>
 </g>
</svg>
