<?xml version="1.0" encoding="UTF-8"?>
<!DOCTYPE svg PUBLIC "-//W3C//DTD SVG 1.1//EN" "http://www.w3.org/Graphics/SVG/1.1/DTD/svg11.dtd">
<!-- Creator: CorelDRAW 2019 (64 Bit Versão de avaliação) -->
<svg xmlns="http://www.w3.org/2000/svg" xml:space="preserve" width="6.35mm" height="6.35mm" version="1.1" style="shape-rendering:geometricPrecision; text-rendering:geometricPrecision; image-rendering:optimizeQuality; fill-rule:evenodd; clip-rule:evenodd"
viewBox="0 0 18.86 18.86"
 xmlns:xlink="http://www.w3.org/1999/xlink">
 <defs>
  <style type="text/css">
   <![CDATA[
    .fil0 {fill:none}
    .fil1 {fill:black}
   ]]>
  </style>
 </defs>
 <g id="Camada_x0020_1">
  <metadata id="CorelCorpID_0Corel-Layer"/>
  <rect class="fil0" width="18.86" height="18.86"/>
  <g>
   <path class="fil1" d="M6.65 11.44l-1.11 1.11 -1.08 -1.08c-0.68,0.87 -1.13,1.92 -1.27,3.06l1.52 0 0 1.57 -3.14 0 0 -0.79c0,-3.8 2.7,-6.97 6.29,-7.7l0 -1.57 -6.29 -2.51 0 -1.57 15.71 0 0 1.57 -6.29 2.51 0 1.57c3.58,0.73 6.29,3.9 6.29,7.7l0 0.79 -3.14 0 0 -1.57 1.52 0c-0.14,-1.15 -0.6,-2.19 -1.27,-3.06l-1.08 1.08 -1.11 -1.11 1.08 -1.08c-0.87,-0.68 -1.92,-1.13 -3.07,-1.27l0 1.52 -1.57 0 0 -1.52c-1.15,0.14 -2.2,0.6 -3.07,1.27l1.08 1.08 0 0zm2.78 2.31c0.86,0 1.57,0.71 1.57,1.57 0,0.86 -0.71,1.57 -1.57,1.57 -0.25,0 -0.49,-0.05 -0.69,-0.16l-3.02 -1.41 3.02 -1.41c0.2,-0.11 0.44,-0.17 0.69,-0.17z"/>
  </g>
 </g>
</svg>
