<?xml version="1.0" encoding="UTF-8"?>
<!DOCTYPE svg PUBLIC "-//W3C//DTD SVG 1.1//EN" "http://www.w3.org/Graphics/SVG/1.1/DTD/svg11.dtd">
<!-- Creator: CorelDRAW 2019 (64 Bit Versão de avaliação) -->
<svg xmlns="http://www.w3.org/2000/svg" xml:space="preserve" width="24px" height="24px" version="1.1" style="shape-rendering:geometricPrecision; text-rendering:geometricPrecision; image-rendering:optimizeQuality; fill-rule:evenodd; clip-rule:evenodd"
viewBox="0 0 24 24"
 xmlns:xlink="http://www.w3.org/1999/xlink">
 <defs>
  <style type="text/css">
   <![CDATA[
    .fil0 {fill:none}
    .fil1 {fill:black}
   ]]>
  </style>
 </defs>
 <g id="Camada_x0020_1">
  <metadata id="CorelCorpID_0Corel-Layer"/>
  <rect class="fil0" width="24" height="24"/>
  <g>
   <path class="fil1" d="M10.71 4.26l3.87 0 4.25 -4.26 5.16 3.34 -2.95 4.79 -10.33 0 0 2.58c0,0.71 -0.58,1.3 -1.29,1.3 -0.71,0 -1.29,-0.59 -1.29,-1.3l0 -3.87c0,-1.42 1.16,-2.58 2.58,-2.58l0 0zm-7.75 6.45l0 5.17 -2.95 2.96 3.33 5.16 7.37 -5.54 5.16 0c0.71,0 1.29,-0.58 1.29,-1.29l0 -1.29 1.3 0c0.71,0 1.29,-0.58 1.29,-1.29l0 -1.29 1.29 0c0.71,0 1.29,-0.58 1.29,-1.29l0 -1.3 -9.04 0 0 1.3c0,1.42 -1.16,2.58 -2.58,2.58l-2.58 0c-1.42,0 -2.59,-1.16 -2.59,-2.58l0 -3.88 -2.58 2.58z"/>
  </g>
 </g>
</svg>
