<svg xmlns="http://www.w3.org/2000/svg" viewBox="0 0 24 24">
   <path d="M13.97 1.84l6 6 0 12c0,1.1 -0.9,2 -2,2l-12 0c-1.1,0 -2,-0.9 -2,-2l0 -16c0,-1.1 0.9,-2 2,-2l8 0 0 0zm4 18l0 -11 -5 0 0 -5 -7 0 0 16 12 0 0 0zm-7.08 -7.69c-0.24,-0.77 -0.77,-3.23 0.63,-3.27 1.4,-0.04 0.48,3.12 0.48,3.12 0.39,1.49 2.02,2.56 2.02,2.56 0.5,-0.15 3.35,-0.48 2.95,1 -0.43,1.48 -3.5,0.09 -3.5,0.09 -1.95,0.14 -3.41,0.66 -3.41,0.66 -1.13,2.11 -2.45,3.03 -2.99,2.14 -0.67,-1.11 2.13,-2.54 2.13,-2.54 1.45,-2.35 1.67,-3.72 1.69,-3.76l0 0zm0.65 0.84c-0.4,1.3 -1.2,2.69 -1.2,2.69 0.85,-0.34 2.71,-0.73 2.71,-0.73 -1.14,-1 -1.49,-1.95 -1.51,-1.96l0 0zm3.14 2.17c0,0 1.75,0.65 1.79,0.39 0.07,-0.27 -1.33,-0.51 -1.79,-0.39l0 0zm-5.66 1.49c-0.77,0.3 -1.51,1.58 -1.33,1.58 0.18,0.01 0.91,-0.6 1.33,-1.58l0 0zm2.52 -5.55c0,-0.05 0.43,-1.68 0,-1.73 -0.3,-0.03 -0.01,1.69 0,1.73z"/>
</svg>
