<svg xmlns="http://www.w3.org/2000/svg" viewBox="0 0 24 24">
  <path d="M14 9l1 0 0 -6 -8 0 0 5 -5 0 0 13 1 0 0 -12 5 0 0 -5 6 0 0 5zm-9 4l2 0 0 -2 -2 0 0 2zm5 -6l2 0 0 -2 -2 0 0 2zm-5 10l2 0 0 -2 -2 0 0 2zm0 4l2 0 0 -2 -2 0 0 2zm11.42 -6.11c0.35,0.07 0.7,-0.13 0.82,-0.47l0.61 -1.74c0.05,-0.16 -0.12,-0.3 -0.26,-0.22l-0.46 0.27 -1.2 -2.09c-0.15,-0.26 -0.43,-0.42 -0.73,-0.42l-1.85 0c-0.3,0 -0.58,0.16 -0.73,0.42l-1.29 2.24c-0.11,0.2 -0.05,0.45 0.15,0.57l1.4 0.8c0.2,0.12 0.45,0.05 0.57,-0.15l0.83 -1.43 0.74 1.28 -0.46 0.26c-0.14,0.09 -0.11,0.3 0.05,0.33l1.81 0.35zm3.89 3.89c0.15,-0.25 0.14,-0.57 -0.01,-0.83l-1.31 -2.23c-0.11,-0.2 -0.37,-0.26 -0.56,-0.15l-1.4 0.82c-0.2,0.12 -0.26,0.37 -0.15,0.57l0.85 1.43 -1.49 0.01 0 -0.53c0,-0.17 -0.21,-0.24 -0.31,-0.12l-1.2 1.41c-0.23,0.27 -0.23,0.67 0.01,0.93l1.21 1.4c0.11,0.12 0.32,0.04 0.31,-0.12l0 -0.53 2.41 -0.02c0.3,0 0.58,-0.16 0.72,-0.42l0.92 -1.62zm-7.99 -0.37l-1.66 -0.01 0.75 -1.28 0.46 0.27c0.14,0.08 0.31,-0.06 0.26,-0.21l-0.6 -1.75c-0.12,-0.33 -0.46,-0.53 -0.81,-0.47l-1.82 0.34c-0.16,0.03 -0.2,0.24 -0.06,0.32l0.46 0.27 -1.22 2.08c-0.15,0.26 -0.15,0.58 0,0.84l0.92 1.61c0.15,0.26 0.42,0.42 0.72,0.42l2.59 0.01c0.23,0 0.42,-0.18 0.42,-0.41l0 -1.62c0.01,-0.23 -0.18,-0.41 -0.41,-0.41l0 0z"/>
</svg>
