<?xml version="1.0" encoding="UTF-8"?>
<!DOCTYPE svg PUBLIC "-//W3C//DTD SVG 1.1//EN" "http://www.w3.org/Graphics/SVG/1.1/DTD/svg11.dtd">
<!-- Creator: CorelDRAW 2019 (64 Bit Versão de avaliação) -->
<svg xmlns="http://www.w3.org/2000/svg" xml:space="preserve" width="24px" height="24px" version="1.1" style="shape-rendering:geometricPrecision; text-rendering:geometricPrecision; image-rendering:optimizeQuality; fill-rule:evenodd; clip-rule:evenodd"
viewBox="0 0 24 24"
 xmlns:xlink="http://www.w3.org/1999/xlink">
 <defs>
  <style type="text/css">
   <![CDATA[
    .fil0 {fill:none}
    .fil1 {fill:black}
   ]]>
  </style>
 </defs>
 <g id="Camada_x0020_1">
  <metadata id="CorelCorpID_0Corel-Layer"/>
  <rect class="fil0" width="24" height="24"/>
  <g>
   <path class="fil1" d="M14.29 18.29l9.14 0 0 2.28 -9.14 0 0 -2.28 0 0zm-2.86 -18.29l10.86 5.71 0 2.29 -21.72 0 0 -2.29 10.86 -5.71 0 0zm5.14 10.28l3.43 0 0 2.38 -1.14 -0.09c-0.8,0 -1.57,0.14 -2.29,0.39l0 -2.68 0 0zm-16 13.72l0 -3.43 11.52 0c0.22,1.3 0.81,2.48 1.66,3.43l-13.18 0 0 0zm9.14 -13.72l3.43 0 0 5.35c-0.52,0.79 -0.89,1.68 -1.05,2.66l-2.38 0 0 -8.01 0 0zm-6.85 0l3.43 0 0 8.01 -3.43 0 0 -8.01z"/>
  </g>
 </g>
</svg>
