<?xml version="1.0" encoding="UTF-8"?>
<!DOCTYPE svg PUBLIC "-//W3C//DTD SVG 1.1//EN" "http://www.w3.org/Graphics/SVG/1.1/DTD/svg11.dtd">
<!-- Creator: CorelDRAW 2019 (64 Bit Versão de avaliação) -->
<svg xmlns="http://www.w3.org/2000/svg" xml:space="preserve" width="6.35mm" height="6.35mm" version="1.1" style="shape-rendering:geometricPrecision; text-rendering:geometricPrecision; image-rendering:optimizeQuality; fill-rule:evenodd; clip-rule:evenodd"
viewBox="0 0 12.92 12.92"
 xmlns:xlink="http://www.w3.org/1999/xlink">
 <defs>
  <style type="text/css">
   <![CDATA[
    .fil0 {fill:none}
    .fil1 {fill:black}
   ]]>
  </style>
 </defs>
 <g id="Camada_x0020_1">
  <metadata id="CorelCorpID_0Corel-Layer"/>
  <g id="_1411185237728">
   <polygon class="fil0" points="-0,0 12.92,0 12.92,12.92 -0,12.92 "/>
   <path class="fil1" d="M8.88 6.46c0.74,0 1.34,-0.6 1.34,-1.35 0,-0.74 -0.6,-1.35 -1.34,-1.35 -0.74,0 -1.35,0.6 -1.35,1.35 0,0.74 0.6,1.35 1.35,1.35l-0 0zm-4.04 -0.54c0.89,0 1.61,-0.72 1.61,-1.62 0,-0.89 -0.72,-1.62 -1.61,-1.62 -0.89,0 -1.62,0.72 -1.62,1.62 0,0.89 0.72,1.62 1.62,1.62l-0 -0zm4.04 1.62c-0.99,0 -2.96,0.5 -2.96,1.48l0 1.21 5.92 0 0 -1.21c0,-0.99 -1.98,-1.48 -2.96,-1.48zm-4.04 -0.54c-1.25,0 -3.77,0.63 -3.77,1.88l0 1.35 3.77 0 0 -1.21c0,-0.46 0.18,-1.26 1.28,-1.87 -0.47,-0.1 -0.92,-0.15 -1.28,-0.15z"/>
  </g>
 </g>
</svg>
