<svg xmlns="http://www.w3.org/2000/svg" viewBox="0 0 24 24">
  <path d="M20.73 7.64l-3.28 0 0 -4.37 -15.27 0c-1.2,0 -2.18,0.98 -2.18,2.18l0 12 2.18 0c0,1.82 1.46,3.28 3.27,3.28 1.82,0 3.28,-1.46 3.28,-3.28l6.54 0c0,1.82 1.46,3.28 3.28,3.28 1.81,0 3.27,-1.46 3.27,-3.28l2.18 0 0 -5.45 -3.27 -4.36 0 0zm-0.55 1.63l2.14 2.73 -4.87 0 0 -2.73 2.73 0zm-14.73 9.28c-0.6,0 -1.09,-0.5 -1.09,-1.1 0,-0.6 0.49,-1.09 1.09,-1.09 0.6,0 1.1,0.49 1.1,1.09 0,0.6 -0.5,1.1 -1.1,1.1zm2.43 -3.28c-0.6,-0.66 -1.46,-1.09 -2.43,-1.09 -0.97,0 -1.82,0.43 -2.42,1.09l-0.85 0 0 -9.82 13.09 0 0 9.82 -7.39 0zm10.67 3.28c-0.6,0 -1.1,-0.5 -1.1,-1.1 0,-0.6 0.5,-1.09 1.1,-1.09 0.6,0 1.09,0.49 1.09,1.09 0,0.6 -0.49,1.1 -1.09,1.1zm-12.15 -5.33c0,0.45 0.37,0.82 0.82,0.82l3.31 0c0.45,0 0.83,-0.37 0.83,-0.82l0 -4.96 -4.96 0 0 4.96zm3.93 -6.2l-0.42 -0.42 -2.07 0 -0.41 0.42 -1.45 0 0 0.82 5.79 0 0 -0.82 -1.44 0z"/>
</svg>
