<?xml version="1.0" encoding="UTF-8"?>
<!DOCTYPE svg PUBLIC "-//W3C//DTD SVG 1.1//EN" "http://www.w3.org/Graphics/SVG/1.1/DTD/svg11.dtd">
<!-- Creator: CorelDRAW 2019 (64 Bit Versão de avaliação) -->
<svg xmlns="http://www.w3.org/2000/svg" xml:space="preserve" width="24px" height="24px" version="1.1" style="shape-rendering:geometricPrecision; text-rendering:geometricPrecision; image-rendering:optimizeQuality; fill-rule:evenodd; clip-rule:evenodd"
viewBox="0 0 24 24"
 xmlns:xlink="http://www.w3.org/1999/xlink">
 <defs>
  <style type="text/css">
   <![CDATA[
    .fil0 {fill:none}
    .fil1 {fill:black}
   ]]>
  </style>
 </defs>
 <g id="Camada_x0020_1">
  <metadata id="CorelCorpID_0Corel-Layer"/>
  <path class="fil0" d="M0 0l24 0 0 24 -24 0 0 -24z"/>
  <rect class="fil0" width="24" height="24"/>
  <g>
   <path class="fil1" d="M12 16.42c-5.58,0 -10.11,2.26 -10.11,5.05l0 2.53 20.22 0 0 -2.53c0,-2.79 -4.53,-5.05 -10.11,-5.05l0 0zm-5.05 -7.58c0,2.79 2.26,5.05 5.05,5.05 2.79,0 5.05,-2.26 5.05,-5.05l-10.1 0zm4.42 -8.84c-0.38,0 -0.63,0.26 -0.63,0.63l0 3.79 -1.27 0 0 -3.16c0,0 -2.84,1.09 -2.84,4.74 0,0 -0.95,0.18 -0.95,1.58l12.64 0c-0.07,-1.4 -0.95,-1.58 -0.95,-1.58 0,-3.65 -2.84,-4.74 -2.84,-4.74l0 3.16 -1.27 0 0 -3.79c0,-0.37 -0.24,-0.63 -0.63,-0.63l-1.26 0z"/>
  </g>
 </g>
</svg>
