<svg xmlns="http://www.w3.org/2000/svg" viewBox="0 0 24 24">
  <path d="M21.33 1.33l-4.66 0 -1.34 -1.33 -6.66 0 -1.34 1.33 -4.66 0 0 2.67 18.66 0 0 -2.67zm-17.33 20c0,1.47 1.2,2.67 2.67,2.67l10.66 0c1.47,0 2.67,-1.2 2.67,-2.67l0 -16 -16 0 0 16zm10.28 -7.68c0.36,0.07 0.71,-0.14 0.83,-0.48l0.63 -1.79c0.05,-0.16 -0.12,-0.3 -0.26,-0.22l-0.47 0.27 -1.24 -2.14c-0.15,-0.26 -0.43,-0.42 -0.74,-0.42l-1.9 0c-0.3,0 -0.59,0.16 -0.74,0.42l-1.32 2.3c-0.12,0.2 -0.05,0.46 0.15,0.58l1.43 0.83c0.21,0.11 0.47,0.04 0.58,-0.16l0.85 -1.47 0.76 1.32 -0.47 0.27c-0.14,0.08 -0.11,0.3 0.06,0.33l1.85 0.36zm3.98 3.98c0.15,-0.26 0.15,-0.59 -0.01,-0.85l-1.34 -2.28c-0.12,-0.21 -0.38,-0.27 -0.58,-0.16l-1.43 0.84c-0.2,0.12 -0.26,0.38 -0.15,0.58l0.86 1.47 -1.51 0.01 -0.01 -0.54c0,-0.17 -0.21,-0.25 -0.32,-0.12l-1.22 1.44c-0.24,0.27 -0.23,0.68 0,0.96l1.25 1.42c0.11,0.13 0.32,0.05 0.32,-0.12l-0.01 -0.54 2.48 -0.02c0.3,0 0.58,-0.16 0.73,-0.43l0.94 -1.66zm-8.18 -0.38l-1.7 -0.01 0.77 -1.31 0.47 0.27c0.14,0.09 0.32,-0.05 0.26,-0.21l-0.61 -1.79c-0.12,-0.34 -0.47,-0.55 -0.83,-0.48l-1.86 0.34c-0.17,0.03 -0.2,0.25 -0.06,0.34l0.47 0.27 -1.25 2.14c-0.15,0.26 -0.15,0.58 0,0.85l0.94 1.65c0.16,0.27 0.44,0.43 0.74,0.43l2.65 0.01c0.24,0 0.43,-0.19 0.43,-0.42l0 -1.66c0.01,-0.23 -0.18,-0.42 -0.42,-0.42l0 0z"/>
</svg>
