<?xml version="1.0" encoding="UTF-8"?>
<!DOCTYPE svg PUBLIC "-//W3C//DTD SVG 1.1//EN" "http://www.w3.org/Graphics/SVG/1.1/DTD/svg11.dtd">
<!-- Creator: CorelDRAW 2019 (64 Bit Versão de avaliação) -->
<svg xmlns="http://www.w3.org/2000/svg" xml:space="preserve" width="6.35mm" height="6.35mm" version="1.1" style="shape-rendering:geometricPrecision; text-rendering:geometricPrecision; image-rendering:optimizeQuality; fill-rule:evenodd; clip-rule:evenodd"
viewBox="0 0 12.94 12.94"
 xmlns:xlink="http://www.w3.org/1999/xlink">
 <defs>
  <style type="text/css">
   <![CDATA[
    .fil0 {fill:none}
    .fil1 {fill:black}
   ]]>
  </style>
 </defs>
 <g id="Camada_x0020_1">
  <metadata id="CorelCorpID_0Corel-Layer"/>
  <rect class="fil0" width="12.94" height="12.94"/>
  <g>
   <path class="fil1" d="M7.55 1.08l3.23 3.23 0 6.47c0,0.59 -0.49,1.08 -1.08,1.08l-6.47 0c-0.59,0 -1.08,-0.49 -1.08,-1.08l0 -8.63c0,-0.59 0.49,-1.08 1.08,-1.08l4.31 0 0 0zm2.16 9.7l0 -5.93 -2.7 0 0 -2.7 -3.77 0 0 8.63 6.47 0 0 0zm-3.23 -4.31l2.16 2.16 -1.35 0 0 1.62 -1.62 0 0 -1.62 -1.35 0 2.16 -2.16z"/>
  </g>
 </g>
</svg>
