<?xml version="1.0" encoding="UTF-8"?>
<!DOCTYPE svg PUBLIC "-//W3C//DTD SVG 1.1//EN" "http://www.w3.org/Graphics/SVG/1.1/DTD/svg11.dtd">
<!-- Creator: CorelDRAW 2019 (64 Bit Versão de avaliação) -->
<svg xmlns="http://www.w3.org/2000/svg" xml:space="preserve" width="24px" height="24px" version="1.1" style="shape-rendering:geometricPrecision; text-rendering:geometricPrecision; image-rendering:optimizeQuality; fill-rule:evenodd; clip-rule:evenodd"
viewBox="0 0 24 24"
 xmlns:xlink="http://www.w3.org/1999/xlink">
 <defs>
  <style type="text/css">
   <![CDATA[
    .fil0 {fill:none}
    .fil1 {fill:black}
   ]]>
  </style>
 </defs>
 <g id="Camada_x0020_1">
  <metadata id="CorelCorpID_0Corel-Layer"/>
  <path class="fil0" d="M1852.69 -25.5l75.01 0 0 75 -75.01 0 0 -75z"/>
  <path class="fil0" d="M0 0l24 0 0 24 -24 0 0 -24z"/>
  <path class="fil0" d="M0 0l24 0 0 24 -24 0 0 -24z"/>
  <path class="fil1" d="M20.4 7.2l-16.8 0c-1.99,0 -3.6,1.61 -3.6,3.6l0 7.2 4.8 0 0 4.8 14.4 0 0 -4.8 4.8 0 0 -7.2c0,-1.99 -1.61,-3.6 -3.6,-3.6l0 0zm-3.6 13.2l-9.6 0 0 -6 9.6 0 0 6zm3.6 -8.4c-0.66,0 -1.2,-0.54 -1.2,-1.2 0,-0.66 0.54,-1.2 1.2,-1.2 0.66,0 1.2,0.54 1.2,1.2 0,0.66 -0.54,1.2 -1.2,1.2zm-1.2 -10.8l-14.4 0 0 4.8 14.4 0 0 -4.8z"/>
 </g>
</svg>
