<?xml version="1.0" encoding="UTF-8"?>
<!DOCTYPE svg PUBLIC "-//W3C//DTD SVG 1.1//EN" "http://www.w3.org/Graphics/SVG/1.1/DTD/svg11.dtd">
<!-- Creator: CorelDRAW 2019 (64 Bit Versão de avaliação) -->
<svg xmlns="http://www.w3.org/2000/svg" xml:space="preserve" width="6.35mm" height="6.35mm" version="1.1" style="shape-rendering:geometricPrecision; text-rendering:geometricPrecision; image-rendering:optimizeQuality; fill-rule:evenodd; clip-rule:evenodd"
viewBox="0 0 32.94 32.94"
 xmlns:xlink="http://www.w3.org/1999/xlink">
 <defs>
  <style type="text/css">
   <![CDATA[
    .fil0 {fill:none}
    .fil1 {fill:black}
   ]]>
  </style>
 </defs>
 <g id="Camada_x0020_1">
  <metadata id="CorelCorpID_0Corel-Layer"/>
  <rect class="fil0" width="32.94" height="32.94"/>
  <g>
   <path class="fil1" d="M19.22 17.84l2.06 0 0 3.87 3.35 1.94 -1.03 1.78 -4.38 -2.53 0 -5.06 0 0zm5.49 -6.86l-19.22 0 0 15.1 6.41 0c-0.59,-1.25 -0.92,-2.65 -0.92,-4.12 0,-5.31 4.3,-9.61 9.61,-9.61 1.47,0 2.87,0.33 4.12,0.92l0 -2.29 0 0zm-19.22 17.84c-1.52,0 -2.75,-1.24 -2.75,-2.75l0 -19.22c0,-1.52 1.22,-2.75 2.75,-2.75l1.37 0 0 -2.74 2.75 0 0 2.74 10.98 0 0 -2.74 2.75 0 0 2.74 1.37 0c1.51,0 2.75,1.24 2.75,2.75l0 8.37c1.7,1.73 2.74,4.1 2.74,6.73 0,5.31 -4.3,9.61 -9.61,9.61 -2.62,0 -5,-1.04 -6.73,-2.74l-8.37 0 0 0zm15.1 -13.52c-3.68,0 -6.66,2.98 -6.66,6.66 0,3.68 2.98,6.66 6.66,6.66 3.68,0 6.66,-2.98 6.66,-6.66 0,-3.68 -2.98,-6.66 -6.66,-6.66z"/>
  </g>
 </g>
</svg>
