<svg xmlns="http://www.w3.org/2000/svg" viewBox="0 0 24 24">
  <path d="M19.73 11.31l0.05 -1.83c-0.02,0 -0.03,0 -0.05,0l0.05 0 -0.05 1.83 0 0zm-9.82 -7.07l1.29 1.28 -4.56 4.57 -4.57 -4.57 1.29 -1.28 2.36 2.35 0 -4.64 1.83 0 0 4.64 2.36 -2.35 0 0zm-6.63 17.36c0,0.62 0.51,1.13 1.13,1.13l4.52 0c0.62,0 1.13,-0.51 1.13,-1.13l0 -6.78 -6.78 0 0 6.78zm1.13 -5.65l4.52 0 0 5.65 -4.52 0 0 -5.65zm4.24 -2.82l-0.57 -0.57 -2.82 0 -0.56 0.57 -1.98 0 0 1.13 7.9 0 0 -1.13 -1.97 0zm10.65 0.01l-0.56 -0.57 -2.82 0 -0.57 0.57 -1.97 0 0 1.12 7.9 0 0 -1.12 -1.98 0zm1.36 -5.36l1.28 -1.29 -4.56 -4.56 -4.56 4.56 1.28 1.29 2.37 -2.36 0 4.65 1.82 0 0 -4.65 2.37 2.36 0 0zm-6.72 13.82c0,0.62 0.51,1.13 1.13,1.13l4.52 0c0.62,0 1.13,-0.51 1.13,-1.13l0 -6.77 -6.78 0 0 6.77z"/>
</svg>
