<?xml version="1.0" encoding="UTF-8"?>
<!DOCTYPE svg PUBLIC "-//W3C//DTD SVG 1.1//EN" "http://www.w3.org/Graphics/SVG/1.1/DTD/svg11.dtd">
<!-- Creator: CorelDRAW 2019 (64 Bit Versão de avaliação) -->
<svg xmlns="http://www.w3.org/2000/svg" xml:space="preserve" width="6.35mm" height="6.35mm" version="1.1" style="shape-rendering:geometricPrecision; text-rendering:geometricPrecision; image-rendering:optimizeQuality; fill-rule:evenodd; clip-rule:evenodd"
viewBox="0 0 18.89 18.89"
 xmlns:xlink="http://www.w3.org/1999/xlink">
 <defs>
  <style type="text/css">
   <![CDATA[
    .fil1 {fill:none}
    .fil0 {fill:black}
   ]]>
  </style>
 </defs>
 <g id="Camada_x0020_1">
  <metadata id="CorelCorpID_0Corel-Layer"/>
  <g id="_1411229856880">
   <path class="fil0" d="M12.99 4.72l0 9.05c0,1.74 -1.41,3.15 -3.15,3.15 -1.74,0 -3.15,-1.41 -3.15,-3.15l0 -9.84c0,-1.09 0.88,-1.97 1.97,-1.97 1.09,0 1.97,0.88 1.97,1.97l0 8.26c0,0.43 -0.35,0.79 -0.79,0.79 -0.43,0 -0.79,-0.35 -0.79,-0.79l-0 -7.48 -1.18 0 0 7.48c0,1.09 0.88,1.97 1.97,1.97 1.09,0 1.97,-0.88 1.97,-1.97l0 -8.26c0,-1.74 -1.41,-3.15 -3.15,-3.15 -1.74,0 -3.15,1.41 -3.15,3.15l0 9.84c0,2.39 1.94,4.33 4.33,4.33 2.39,0 4.33,-1.94 4.33,-4.33l0 -9.05 -1.18 0z"/>
   <polygon class="fil1" points="-0,0 18.89,0 18.89,18.89 -0,18.89 "/>
  </g>
  <polygon class="fil1" points="-0,0 18.89,0 18.89,18.89 -0,18.89 "/>
 </g>
</svg>
