<?xml version="1.0" encoding="UTF-8"?>
<!DOCTYPE svg PUBLIC "-//W3C//DTD SVG 1.1//EN" "http://www.w3.org/Graphics/SVG/1.1/DTD/svg11.dtd">
<!-- Creator: CorelDRAW 2019 (64 Bit Versão de avaliação) -->
<svg xmlns="http://www.w3.org/2000/svg" xml:space="preserve" width="24px" height="24px" version="1.1" style="shape-rendering:geometricPrecision; text-rendering:geometricPrecision; image-rendering:optimizeQuality; fill-rule:evenodd; clip-rule:evenodd"
viewBox="0 0 24 24"
 xmlns:xlink="http://www.w3.org/1999/xlink">
 <defs>
  <style type="text/css">
   <![CDATA[
    .fil0 {fill:none}
    .fil1 {fill:black}
   ]]>
  </style>
 </defs>
 <g id="Camada_x0020_1">
  <metadata id="CorelCorpID_0Corel-Layer"/>
  <rect class="fil0" width="24" height="24"/>
  <g>
   <path class="fil1" d="M19.2 10.8l-3.82 0c-0.5,-1.39 -1.82,-2.4 -3.38,-2.4 -1.56,0 -2.88,1.01 -3.38,2.4l-3.82 0c-0.4,0 -2.4,-0.12 -2.4,-2.4l0 -1.2c0,-2.2 1.85,-2.4 2.4,-2.4l12.22 0c0.5,1.39 1.82,2.4 3.38,2.4 1.99,0 3.6,-1.61 3.6,-3.6 0,-1.99 -1.61,-3.6 -3.6,-3.6 -1.56,0 -2.88,1.01 -3.38,2.4l-12.22 0c-1.93,0 -4.8,1.27 -4.8,4.8l0 1.2c0,3.53 2.87,4.8 4.8,4.8l3.82 0c0.5,1.39 1.82,2.4 3.38,2.4 1.56,0 2.88,-1.01 3.38,-2.4l3.82 0c0.4,0 2.4,0.12 2.4,2.4l0 1.2c0,2.2 -1.85,2.4 -2.4,2.4l-12.22 0c-0.5,-1.39 -1.82,-2.4 -3.38,-2.4 -1.99,0 -3.6,1.61 -3.6,3.6 0,1.99 1.61,3.6 3.6,3.6 1.56,0 2.88,-1.01 3.38,-2.4l12.22 0c1.93,0 4.8,-1.28 4.8,-4.8l0 -1.2c0,-3.52 -2.87,-4.8 -4.8,-4.8l0 0zm1.2 -8.4c0.66,0 1.2,0.54 1.2,1.2 0,0.66 -0.54,1.2 -1.2,1.2 -0.66,0 -1.2,-0.54 -1.2,-1.2 0,-0.66 0.54,-1.2 1.2,-1.2l0 0zm-16.8 19.2c-0.66,0 -1.2,-0.54 -1.2,-1.2 0,-0.66 0.54,-1.2 1.2,-1.2 0.66,0 1.2,0.54 1.2,1.2 0,0.66 -0.54,1.2 -1.2,1.2z"/>
  </g>
 </g>
</svg>
