<svg xmlns="http://www.w3.org/2000/svg" viewBox="0 0 24 24">
  <path d="M4 21.33c0,1.47 1.2,2.67 2.67,2.67l10.66 0c1.47,0 2.67,-1.2 2.67,-2.67l0 -16 -16 0 0 16zm12.67 -20l-1.34 -1.33 -6.66 0 -1.34 1.33 -4.66 0 0 2.67 18.66 0 0 -2.67 -4.66 0zm-10 6.67l10.66 0 0 13.33 -10.66 0 0 -13.33zm4.44 8.81l-1.43 -0.63c-0.64,0.27 -2.15,0.97 -2.39,1.51 -0.42,0.93 0.2,2.12 1.39,2.65 1.19,0.53 2.49,0.2 2.91,-0.74 0.24,-0.54 -0.26,-2.13 -0.48,-2.79zm1.37 -1.1c-0.02,-0.05 -0.06,-0.12 -0.16,-0.17 -0.23,-0.1 -0.69,-0.04 -0.92,0 -0.04,-0.25 -0.14,-0.56 -0.3,-0.63 -0.16,-0.07 -0.45,0.07 -0.66,0.19 -0.13,-0.19 -0.39,-0.57 -0.62,-0.67 -0.1,-0.05 -0.18,-0.03 -0.23,-0.01 -0.08,0.03 -0.13,0.1 -0.16,0.19 -0.11,0.31 0.13,0.94 0.31,1.32l1.52 0.68c0.4,-0.13 1.03,-0.37 1.19,-0.66 0.04,-0.08 0.05,-0.16 0.03,-0.24zm0.88 -5.2l-1.38 0.72c-0.19,0.68 -0.58,2.29 -0.31,2.82 0.48,0.91 1.8,1.16 2.95,0.56 1.15,-0.6 1.7,-1.83 1.23,-2.74 -0.28,-0.53 -1.83,-1.13 -2.49,-1.36zm-0.01 -1.76c-0.05,-0.02 -0.13,-0.03 -0.23,0.02 -0.23,0.12 -0.47,0.51 -0.58,0.72 -0.22,-0.12 -0.52,-0.24 -0.67,-0.16 -0.16,0.09 -0.23,0.4 -0.26,0.65 -0.23,-0.03 -0.69,-0.06 -0.92,0.06 -0.1,0.05 -0.13,0.12 -0.15,0.17 -0.02,0.08 0,0.17 0.05,0.25 0.18,0.27 0.82,0.47 1.23,0.58l1.47 -0.77c0.15,-0.4 0.36,-1.04 0.23,-1.34 -0.03,-0.09 -0.1,-0.15 -0.17,-0.18z"/>
</svg>
