<svg xmlns="http://www.w3.org/2000/svg" viewBox="0 0 24 24">
   <path d="M16.91 18.55l-9.82 0 0 -15.28 9.82 0 0 15.28zm-4.91 4.36c-0.9,0 -1.64,-0.73 -1.64,-1.64 0,-0.9 0.74,-1.63 1.64,-1.63 0.9,0 1.64,0.73 1.64,1.63 0,0.91 -0.74,1.64 -1.64,1.64l0 0zm4.36 -22.91l-8.72 0c-1.51,0 -2.73,1.22 -2.73,2.73l0 18.54c0,1.51 1.22,2.73 2.73,2.73l8.72 0c1.51,0 2.73,-1.22 2.73,-2.73l0 -18.54c0,-1.51 -1.22,-2.73 -2.73,-2.73l0 0zm-5.46 7.62l2.2 0 0 3.28 3.28 0 0 2.2 -3.28 0 0 3.28 -2.2 0 0 -3.28 -3.28 0 0 -2.2 3.28 0 0 -3.28z"/>
</svg>
