<?xml version="1.0" encoding="UTF-8"?>
<!DOCTYPE svg PUBLIC "-//W3C//DTD SVG 1.1//EN" "http://www.w3.org/Graphics/SVG/1.1/DTD/svg11.dtd">
<!-- Creator: CorelDRAW 2019 (64 Bit Versão de avaliação) -->
<svg xmlns="http://www.w3.org/2000/svg" xml:space="preserve" width="24px" height="24px" version="1.1" style="shape-rendering:geometricPrecision; text-rendering:geometricPrecision; image-rendering:optimizeQuality; fill-rule:evenodd; clip-rule:evenodd"
viewBox="0 0 24 24"
 xmlns:xlink="http://www.w3.org/1999/xlink">
 <defs>
  <style type="text/css">
   <![CDATA[
    .fil0 {fill:none}
    .fil1 {fill:black}
   ]]>
  </style>
 </defs>
 <g id="Camada_x0020_1">
  <metadata id="CorelCorpID_0Corel-Layer"/>
  <path class="fil0" d="M0 0l24 0 0 24 -24 0 0 -24z"/>
  <path class="fil1" d="M18.21 5.31l0 10.08 4.62 -4.63 1.17 1.18 -6.62 6.62 -6.63 -6.62 1.17 -1.17 4.63 4.62 0 -10.08 1.66 0zm-16 4.51l5.92 0 0 7.39 -5.92 0 0 -7.39zm-1.47 7.39c0,0.81 0.66,1.48 1.47,1.48l5.92 0c0.81,0 1.48,-0.67 1.48,-1.48l0 -8.87 -8.87 0 0 8.87zm7.02 -11.09l-0.74 -0.74 -3.69 0 -0.74 0.74 -2.59 0 0 1.48 10.35 0 0 -1.48 -2.59 0z"/>
 </g>
</svg>
