<svg xmlns="http://www.w3.org/2000/svg" viewBox="0 0 24 24">
   <path class="fil1" d="M12 7.2c2.65,0 4.8,2.15 4.8,4.8 0,2.65 -2.15,4.8 -4.8,4.8 -2.65,0 -4.8,-2.15 -4.8,-4.8 0,-2.65 2.15,-4.8 4.8,-4.8l0 0zm0 2.4c-1.33,0 -2.4,1.07 -2.4,2.4 0,1.33 1.07,2.4 2.4,2.4 1.33,0 2.4,-1.07 2.4,-2.4 0,-1.33 -1.07,-2.4 -2.4,-2.4l0 0zm-2.4 14.4c-0.3,0 -0.55,-0.21 -0.6,-0.5l-0.44 -3.18c-0.76,-0.3 -1.41,-0.71 -2.03,-1.19l-2.99 1.21c-0.26,0.1 -0.59,0 -0.73,-0.26l-2.4 -4.16c-0.16,-0.26 -0.09,-0.58 0.14,-0.76l2.53 -2 -0.08 -1.16 0.08 -1.2 -2.53 -1.96c-0.23,-0.18 -0.3,-0.5 -0.14,-0.76l2.4 -4.16c0.14,-0.26 0.47,-0.37 0.73,-0.26l2.99 1.2c0.62,-0.47 1.27,-0.88 2.03,-1.18l0.44 -3.18c0.05,-0.29 0.3,-0.5 0.6,-0.5l4.8 0c0.3,0 0.55,0.21 0.6,0.5l0.44 3.18c0.76,0.3 1.41,0.71 2.03,1.18l2.99 -1.2c0.26,-0.11 0.59,0 0.73,0.26l2.4 4.16c0.16,0.26 0.09,0.58 -0.14,0.76l-2.53 1.96 0.08 1.2 -0.08 1.2 2.53 1.96c0.23,0.18 0.3,0.5 0.14,0.76l-2.4 4.16c-0.14,0.26 -0.47,0.37 -0.73,0.26l-2.99 -1.2c-0.62,0.47 -1.27,0.88 -2.03,1.18l-0.44 3.18c-0.05,0.29 -0.3,0.5 -0.6,0.5l-4.8 0 0 0zm1.5 -21.6l-0.44 3.13c-1.44,0.3 -2.72,1.07 -3.64,2.14l-2.89 -1.25 -0.9 1.56 2.53 1.86c-0.48,1.4 -0.48,2.93 0,4.32l-2.54 1.87 0.9 1.56 2.91 -1.25c0.93,1.06 2.19,1.83 3.61,2.12l0.45 3.14 1.82 0 0.45 -3.13c1.42,-0.3 2.68,-1.07 3.61,-2.13l2.91 1.25 0.9 -1.56 -2.54 -1.86c0.48,-1.4 0.48,-2.93 0,-4.33l2.53 -1.86 -0.9 -1.56 -2.89 1.25c-0.92,-1.07 -2.2,-1.84 -3.64,-2.13l-0.44 -3.14 -1.8 0z"/>
 
</svg>
