<?xml version="1.0" encoding="UTF-8"?>
<!DOCTYPE svg PUBLIC "-//W3C//DTD SVG 1.1//EN" "http://www.w3.org/Graphics/SVG/1.1/DTD/svg11.dtd">
<!-- Creator: CorelDRAW 2019 (64 Bit Versão de avaliação) -->
<svg xmlns="http://www.w3.org/2000/svg" xml:space="preserve" width="24px" height="24px" version="1.1" style="shape-rendering:geometricPrecision; text-rendering:geometricPrecision; image-rendering:optimizeQuality; fill-rule:evenodd; clip-rule:evenodd"
viewBox="0 0 24 24"
 xmlns:xlink="http://www.w3.org/1999/xlink">
 <defs>
  <style type="text/css">
   <![CDATA[
    .fil0 {fill:none}
    .fil1 {fill:black}
   ]]>
  </style>
 </defs>
 <g id="Camada_x0020_1">
  <metadata id="CorelCorpID_0Corel-Layer"/>
  <path class="fil0" d="M0 0l24 0 0 24 -24 0 0 -24z"/>
  <path class="fil1" d="M0.06 8.02l18.57 0 0 -2.65 -18.57 0 0 2.65 0 0zm0 5.31l18.57 0 0 -2.66 -18.57 0 0 2.66zm0 5.3l18.57 0 0 -2.65 -18.57 0 0 2.65 0 0zm21.23 0l2.65 0 0 -2.65 -2.65 0 0 2.65 0 0zm0 -13.26l0 2.65 2.65 0 0 -2.65 -2.65 0zm0 7.96l2.65 0 0 -2.66 -2.65 0 0 2.66z"/>
 </g>
</svg>
