<svg xmlns="http://www.w3.org/2000/svg" viewBox="0 0 19 23.75">
   <path d="M11.88 0l-9.51 0c-1.31,0 -2.37,1.07 -2.37,2.38l0 19c0,1.31 1.06,2.37 2.37,2.37l14.26 0c1.31,0 2.37,-1.06 2.37,-2.37l0 -14.25 -7.12 -7.13 0 0zm4.75 21.38l-14.26 0 0 -19 8.32 0 0 5.93 5.94 0 0 13.07 0 0zm-5.94 -8.32c0,1.31 -1.07,2.38 -2.38,2.38 -1.3,0 -2.37,-1.07 -2.37,-2.38 0,-1.3 1.07,-2.37 2.37,-2.37 1.31,0 2.38,1.07 2.38,2.37l0 0zm2.37 5.94l0 1.19 -9.5 0 0 -1.19c0,-1.58 3.17,-2.37 4.75,-2.37 1.58,0 4.75,0.79 4.75,2.37z"/>
</svg>
