<svg xmlns="http://www.w3.org/2000/svg" viewBox="0 0 24 24">
  <path d="M15.22 10.48c0.46,0.08 0.91,-0.18 1.07,-0.62l0.81 -2.31c0.07,-0.21 -0.15,-0.39 -0.34,-0.28l-0.61 0.35 -1.59 -2.77c-0.2,-0.34 -0.56,-0.55 -0.96,-0.55l-2.46 0c-0.39,0 -0.75,0.21 -0.95,0.55l-1.72 2.97c-0.15,0.26 -0.06,0.6 0.2,0.75l1.86 1.07c0.26,0.15 0.59,0.06 0.74,-0.2l1.1 -1.91 0.98 1.7 -0.6 0.35c-0.19,0.11 -0.14,0.4 0.07,0.44l2.4 0.46zm5.14 5.15c0.19,-0.34 0.19,-0.76 -0.01,-1.1l-1.74 -2.96c-0.15,-0.26 -0.48,-0.34 -0.75,-0.19l-1.84 1.08c-0.26,0.16 -0.35,0.49 -0.2,0.75l1.12 1.9 -1.97 0.01 0 -0.7c0,-0.22 -0.27,-0.32 -0.41,-0.15l-1.59 1.86c-0.3,0.36 -0.3,0.88 0.01,1.24l1.61 1.84c0.15,0.16 0.42,0.06 0.41,-0.16l0 -0.7 3.19 -0.02c0.4,0 0.76,-0.21 0.95,-0.56l1.22 -2.14zm-10.57 -0.5l-2.2 -0.01 0.99 -1.69 0.61 0.35c0.19,0.11 0.41,-0.07 0.34,-0.28l-0.79 -2.31c-0.16,-0.44 -0.61,-0.71 -1.07,-0.62l-2.41 0.44c-0.22,0.04 -0.26,0.33 -0.08,0.44l0.61 0.35 -1.61 2.76c-0.2,0.34 -0.2,0.76 -0.01,1.1l1.22 2.14c0.2,0.34 0.56,0.55 0.96,0.55l3.43 0.02c0.3,0 0.54,-0.25 0.54,-0.55l0.01 -2.14c0,-0.3 -0.24,-0.55 -0.54,-0.55l0 0z"/>
</svg>
