<?xml version="1.0" encoding="UTF-8"?>
<!DOCTYPE svg PUBLIC "-//W3C//DTD SVG 1.1//EN" "http://www.w3.org/Graphics/SVG/1.1/DTD/svg11.dtd">
<!-- Creator: CorelDRAW 2019 (64 Bit Versão de avaliação) -->
<svg xmlns="http://www.w3.org/2000/svg" xml:space="preserve" width="24px" height="24px" version="1.1" style="shape-rendering:geometricPrecision; text-rendering:geometricPrecision; image-rendering:optimizeQuality; fill-rule:evenodd; clip-rule:evenodd"
viewBox="0 0 24 24"
 xmlns:xlink="http://www.w3.org/1999/xlink">
 <defs>
  <style type="text/css">
   <![CDATA[
    .fil0 {fill:none}
    .fil1 {fill:black}
   ]]>
  </style>
 </defs>
 <g id="Camada_x0020_1">
  <metadata id="CorelCorpID_0Corel-Layer"/>
  <path class="fil0" d="M0 0l24 0 0 24 -24 0 0 -24z"/>
  <path class="fil1" d="M10.8 6l2.4 0 0 2.4 -2.4 0 0 -2.4zm0 4.8l2.4 0 0 7.2 -2.4 0 0 -7.2zm1.2 -10.8c-6.62,0 -12,5.38 -12,12 0,6.62 5.38,12 12,12 6.62,0 12,-5.38 12,-12 0,-6.62 -5.38,-12 -12,-12zm0 21.6c-5.29,0 -9.6,-4.31 -9.6,-9.6 0,-5.29 4.31,-9.6 9.6,-9.6 5.29,0 9.6,4.31 9.6,9.6 0,5.29 -4.31,9.6 -9.6,9.6z"/>
 </g>
</svg>
