<?xml version="1.0" encoding="UTF-8"?>
<!DOCTYPE svg PUBLIC "-//W3C//DTD SVG 1.1//EN" "http://www.w3.org/Graphics/SVG/1.1/DTD/svg11.dtd">
<!-- Creator: CorelDRAW 2019 (64 Bit Versão de avaliação) -->
<svg xmlns="http://www.w3.org/2000/svg" xml:space="preserve" width="6.35mm" height="6.35mm" version="1.1" style="shape-rendering:geometricPrecision; text-rendering:geometricPrecision; image-rendering:optimizeQuality; fill-rule:evenodd; clip-rule:evenodd"
viewBox="0 0 18.86 18.86"
 xmlns:xlink="http://www.w3.org/1999/xlink">
 <defs>
  <style type="text/css">
   <![CDATA[
    .str0 {stroke:black;stroke-width:0.59;stroke-miterlimit:22.9256}
    .fil0 {fill:none}
    .fil1 {fill:black}
   ]]>
  </style>
 </defs>
 <g id="Camada_x0020_1">
  <metadata id="CorelCorpID_0Corel-Layer"/>
  <g id="_1411098752112">
   <polygon class="fil0" points="-0,0 18.86,0 18.86,18.86 -0,18.86 "/>
   <path class="fil1" d="M4.71 14.93c0,0.86 0.71,1.57 1.57,1.57l6.28 0c0.86,0 1.57,-0.71 1.57,-1.57l0 -9.43 -9.43 0 0 9.43zm1.57 -7.86l6.28 0 0 7.86 -6.28 0 0 -7.86zm5.89 -3.93l-0.79 -0.79 -3.93 0 -0.79 0.79 -2.75 0 0 1.57 11 0 0 -1.57 -2.75 0z"/>
  </g>
  <path class="fil1 str0" d="M6.2 11c2.75,-2.13 2.84,-1.2 6.37,-0l0 3.93 -6.28 0 -0.08 -3.93z"/>
 </g>
</svg>
