<?xml version="1.0" encoding="UTF-8"?>
<!DOCTYPE svg PUBLIC "-//W3C//DTD SVG 1.1//EN" "http://www.w3.org/Graphics/SVG/1.1/DTD/svg11.dtd">
<!-- Creator: CorelDRAW 2019 (64 Bit Versão de avaliação) -->
<svg xmlns="http://www.w3.org/2000/svg" xml:space="preserve" width="6.35mm" height="6.35mm" version="1.1" style="shape-rendering:geometricPrecision; text-rendering:geometricPrecision; image-rendering:optimizeQuality; fill-rule:evenodd; clip-rule:evenodd"
viewBox="0 0 18.86 18.86"
 xmlns:xlink="http://www.w3.org/1999/xlink">
 <defs>
  <style type="text/css">
   <![CDATA[
    .fil1 {fill:none}
    .fil0 {fill:black}
   ]]>
  </style>
 </defs>
 <g id="Camada_x0020_1">
  <metadata id="CorelCorpID_0Corel-Layer"/>
  <path class="fil0" d="M2.36 7.07l11 0 0 -1.57 -11 0 0 1.57 0 -0zm0 3.14l11 0 0 -1.57 -11 0 0 1.57zm0 3.14l11 0 0 -1.57 -11 0 0 1.57 0 -0zm12.57 0l1.57 0 0 -1.57 -1.57 0 0 1.57 0 -0zm0 -7.86l0 1.57 1.57 -0 0 -1.57 -1.57 0zm0 4.71l1.57 0 0 -1.57 -1.57 0 0 1.57z"/>
  <polygon class="fil1" points="-0,0 18.86,0 18.86,18.86 -0,18.86 "/>
 </g>
</svg>
