<?xml version="1.0" encoding="UTF-8"?>
<!DOCTYPE svg PUBLIC "-//W3C//DTD SVG 1.1//EN" "http://www.w3.org/Graphics/SVG/1.1/DTD/svg11.dtd">
<!-- Creator: CorelDRAW 2019 (64 Bit Versão de avaliação) -->
<svg xmlns="http://www.w3.org/2000/svg" xml:space="preserve" width="6.35mm" height="6.35mm" version="1.1" style="shape-rendering:geometricPrecision; text-rendering:geometricPrecision; image-rendering:optimizeQuality; fill-rule:evenodd; clip-rule:evenodd"
viewBox="0 0 146.25 146.25"
 xmlns:xlink="http://www.w3.org/1999/xlink">
 <defs>
  <style type="text/css">
   <![CDATA[
    .fil1 {fill:none}
    .fil0 {fill:black}
   ]]>
  </style>
 </defs>
 <g id="Camada_x0020_1">
  <metadata id="CorelCorpID_0Corel-Layer"/>
  <g id="_1410979018368">
   <path class="fil0" d="M18.28 30.47l0 85.31c0,6.7 5.42,12.19 12.19,12.19l85.31 0c6.7,0 12.19,-5.48 12.19,-12.19l0 -85.31c0,-6.7 -5.48,-12.19 -12.19,-12.19l-85.31 0c-6.76,0 -12.19,5.48 -12.19,12.19zm73.13 24.37c0,10.12 -8.16,18.28 -18.28,18.28 -10.12,0 -18.28,-8.16 -18.28,-18.28 0,-10.12 8.16,-18.28 18.28,-18.28 10.12,0 18.28,8.16 18.28,18.28zm-54.85 48.75c0,-12.19 24.37,-18.89 36.56,-18.89 12.19,0 36.56,6.7 36.56,18.89l0 6.09 -73.13 0 0 -6.09z"/>
   <polygon class="fil1" points="-0,0 146.25,0 146.25,146.25 -0,146.25 "/>
  </g>
 </g>
</svg>
