<?xml version="1.0" encoding="UTF-8"?>
<!DOCTYPE svg PUBLIC "-//W3C//DTD SVG 1.1//EN" "http://www.w3.org/Graphics/SVG/1.1/DTD/svg11.dtd">
<!-- Creator: CorelDRAW 2019 (64 Bit Versão de avaliação) -->
<svg xmlns="http://www.w3.org/2000/svg" xml:space="preserve" width="24px" height="24px" version="1.1" style="shape-rendering:geometricPrecision; text-rendering:geometricPrecision; image-rendering:optimizeQuality; fill-rule:evenodd; clip-rule:evenodd"
viewBox="0 0 24 24"
 xmlns:xlink="http://www.w3.org/1999/xlink">
 <defs>
  <style type="text/css">
   <![CDATA[
    .fil0 {fill:none}
    .fil1 {fill:black}
   ]]>
  </style>
 </defs>
 <g id="Camada_x0020_1">
  <metadata id="CorelCorpID_0Corel-Layer"/>
  <path class="fil0" d="M0 0l24 0 0 24 -24 0 0 -24z"/>
  <path class="fil0" d="M0 0l24 0 0 24 -24 0 0 -24z"/>
  <path class="fil1" d="M21.6 4.8l-9.6 0 -2.4 -2.4 -7.2 0c-1.32,0 -2.39,1.08 -2.39,2.4l-0.01 14.4c0,1.32 1.08,2.4 2.4,2.4l19.2 0c1.32,0 2.4,-1.08 2.4,-2.4l0 -12c0,-1.32 -1.08,-2.4 -2.4,-2.4l0 0zm0 14.4l-19.2 0 0 -12 19.2 0 0 12z"/>
 </g>
</svg>
