<?xml version="1.0" encoding="UTF-8"?>
<!DOCTYPE svg PUBLIC "-//W3C//DTD SVG 1.1//EN" "http://www.w3.org/Graphics/SVG/1.1/DTD/svg11.dtd">
<!-- Creator: CorelDRAW 2019 (64 Bit Versão de avaliação) -->
<svg xmlns="http://www.w3.org/2000/svg" xml:space="preserve" width="6.35mm" height="6.35mm" version="1.1" style="shape-rendering:geometricPrecision; text-rendering:geometricPrecision; image-rendering:optimizeQuality; fill-rule:evenodd; clip-rule:evenodd"
viewBox="0 0 146.25 146.25"
 xmlns:xlink="http://www.w3.org/1999/xlink"
 enable-background="new 0 0 511.998 511.998">
 <defs>
  <style type="text/css">
   <![CDATA[
    .fil0 {fill:none}
    .fil1 {fill:black}
   ]]>
  </style>
 </defs>
 <g id="Camada_x0020_1">
  <metadata id="CorelCorpID_0Corel-Layer"/>
  <rect class="fil0" width="146.25" height="146.25"/>
  <g id="_1410917636768">
   <path class="fil1" d="M92.73 63.84c2.81,0.54 5.59,-1.06 6.53,-3.76l4.93 -14.09c0.44,-1.25 -0.91,-2.37 -2.06,-1.71l-3.69 2.13 -9.74 -16.86c-1.2,-2.08 -3.42,-3.36 -5.82,-3.36l-14.98 0c-2.4,0 -4.62,1.28 -5.82,3.36l-10.45 18.1c-0.92,1.59 -0.38,3.63 1.22,4.55l11.29 6.52c1.59,0.92 3.63,0.38 4.55,-1.22l6.69 -11.6 5.98 10.36 -3.71 2.14c-1.14,0.66 -0.85,2.39 0.45,2.63l14.61 2.8z"/>
   <path class="fil1" d="M124.06 95.26c1.18,-2.09 1.16,-4.65 -0.05,-6.72l-10.58 -18.01c-0.93,-1.58 -2.97,-2.12 -4.56,-1.18l-11.25 6.6c-1.58,0.93 -2.12,2.97 -1.18,4.56l6.78 11.54 -11.96 0.09 -0.03 -4.28c-0.01,-1.32 -1.66,-1.92 -2.51,-0.91l-9.64 11.32c-1.85,2.18 -1.84,5.39 0.05,7.54l9.82 11.24c0.87,1 2.51,0.38 2.5,-0.95l-0.03 -4.26 19.47 -0.15c2.4,-0.02 4.61,-1.32 5.79,-3.4l7.4 -13.04z"/>
   <path class="fil1" d="M59.66 92.22l-13.39 -0.05 6.03 -10.34 3.69 2.16c1.14,0.67 2.5,-0.44 2.07,-1.7l-4.82 -14.07c-0.93,-2.71 -3.7,-4.33 -6.51,-3.81l-14.68 2.71c-1.3,0.24 -1.6,1.97 -0.46,2.64l3.68 2.15 -9.81 16.82c-1.21,2.07 -1.22,4.63 -0.03,6.72l7.44 13.02c1.19,2.08 3.4,3.37 5.8,3.38l20.89 0.09c1.84,0.01 3.34,-1.48 3.34,-3.32l0.06 -13.04c0.01,-1.84 -1.48,-3.34 -3.32,-3.35l0 0z"/>
  </g>
 </g>
</svg>
